<svg width="28" height="28" viewBox="0 0 28 28" fill="none" xmlns="http://www.w3.org/2000/svg">
<path d="M18.1729 7.44946H9.82761C8.49558 7.44946 7.41187 8.53318 7.41187 9.8652V18.2105C7.41187 19.5425 8.49558 20.6265 9.82761 20.6265H18.1729C19.5049 20.6265 20.5889 19.5428 20.5889 18.2105V9.8652C20.5889 8.53318 19.5052 7.44946 18.1729 7.44946ZM14.0002 18.3758C11.6085 18.3758 9.66258 16.4299 9.66258 14.0378C9.66258 11.6461 11.6085 9.70018 14.0002 9.70018C16.3923 9.70018 18.3382 11.6461 18.3382 14.0378C18.3382 16.4296 16.392 18.3758 14.0002 18.3758ZM18.4777 10.597C17.9115 10.597 17.451 10.1366 17.451 9.57072C17.451 9.00485 17.9115 8.54441 18.4777 8.54441C19.0435 8.54441 19.504 9.00485 19.504 9.57072C19.504 10.1366 19.0435 10.597 18.4777 10.597Z" fill="#6A453B"/>
<path d="M13.9998 11.533C12.6191 11.533 11.4949 12.6566 11.4949 14.0373C11.4949 15.4186 12.6191 16.5426 13.9998 16.5426C15.3811 16.5426 16.5045 15.4186 16.5045 14.0373C16.5045 12.6569 15.3808 11.533 13.9998 11.533Z" fill="#6A453B"/>
<path d="M14 0C6.26832 0 0 6.26832 0 14C0 21.7317 6.26832 28 14 28C21.7317 28 28 21.7317 28 14C28 6.26832 21.7317 0 14 0ZM22.4214 18.2104C22.4214 20.5534 20.5157 22.4591 18.1726 22.4591H9.82736C7.48461 22.4591 5.5786 20.5534 5.5786 18.2104V9.8651C5.5786 7.52236 7.48461 5.61635 9.82736 5.61635H18.1726C20.5157 5.61635 22.4214 7.52236 22.4214 9.8651V18.2104Z" fill="#6A453B"/>
</svg>
