<svg width="26" height="26" viewBox="0 0 26 26" fill="none" xmlns="http://www.w3.org/2000/svg">
<path d="M13 0C20.1801 0 26 5.82075 26 13C26 20.1801 20.1801 26 13 26C5.81985 26 0 20.1801 0 13C0 5.82075 5.81994 0 13 0Z" fill="#C8232C"/>
<path d="M13.3933 5.69263C8.8124 5.69263 6.50415 8.87276 6.50415 11.5239C6.50415 13.1294 7.13139 14.5578 8.47852 15.09C8.6987 15.1769 8.89782 15.0932 8.96118 14.8567L9.1578 14.1068C9.22277 13.8736 9.1976 13.7908 9.01964 13.5868C8.63042 13.144 8.38347 12.5696 8.38347 11.7562C8.38347 9.39754 10.2059 7.28582 13.1293 7.28582C15.7188 7.28582 17.1406 8.81742 17.1406 10.8625C17.1406 13.5535 15.9105 15.8253 14.084 15.8253C13.0765 15.8253 12.3209 15.0185 12.563 14.0264C12.8523 12.845 13.4145 11.5685 13.4145 10.7146C13.4145 9.95169 12.9912 9.31303 12.1137 9.31303C11.0826 9.31303 10.2548 10.3457 10.2548 11.7294C10.2548 12.611 10.5627 13.2065 10.5627 13.2065L9.32202 18.2936C8.95395 19.8024 9.26758 21.6533 9.29355 21.8402C9.30979 21.9506 9.45607 21.9766 9.52265 21.8938C9.6177 21.7736 10.8454 20.3053 11.263 18.838C11.3816 18.4228 11.9415 16.2721 11.9415 16.2721C12.2763 16.892 13.2553 17.4364 14.2961 17.4364C17.3942 17.4364 19.497 14.7007 19.497 11.0396C19.496 8.27149 17.0747 5.69263 13.3933 5.69263Z" fill="white"/>
</svg>
