<svg width="26" height="26" viewBox="0 0 26 26" fill="none" xmlns="http://www.w3.org/2000/svg">
<g clip-path="url(#clip0)">
<path d="M13.0009 25.9998C20.1805 25.9998 26.0007 20.1795 26.0007 12.9999C26.0007 5.82025 20.1805 0 13.0009 0C5.82122 0 0.000976562 5.82025 0.000976562 12.9999C0.000976562 20.1795 5.82122 25.9998 13.0009 25.9998Z" fill="#55ACEE"/>
<path d="M20.9629 9.34277C20.4058 9.5898 19.8065 9.75688 19.1781 9.8315C19.8197 9.44705 20.3122 8.83875 20.5446 8.11272C19.9442 8.4689 19.2789 8.72728 18.5714 8.86656C18.0046 8.26289 17.197 7.88562 16.3027 7.88562C14.5869 7.88562 13.1954 9.27719 13.1954 10.993C13.1954 11.2365 13.2229 11.4736 13.2762 11.7011C10.6938 11.5716 8.404 10.3346 6.8713 8.45407C6.60388 8.9129 6.45047 9.44705 6.45047 10.0164C6.45047 11.0942 6.99945 12.0457 7.83277 12.6028C7.32365 12.5868 6.84419 12.4471 6.42544 12.2137C6.42521 12.2269 6.42521 12.2402 6.42521 12.2531C6.42521 13.7587 7.49676 15.0145 8.91799 15.2998C8.65752 15.3711 8.38245 15.4089 8.0995 15.4089C7.89882 15.4089 7.70439 15.3897 7.51483 15.3535C7.91017 16.5877 9.05749 17.4862 10.4175 17.5114C9.35388 18.345 8.01422 18.8416 6.558 18.8416C6.30772 18.8416 6.05977 18.827 5.81714 18.798C7.19156 19.68 8.82529 20.1942 10.58 20.1942C16.2955 20.1942 19.4212 15.4594 19.4212 11.3528C19.4212 11.2182 19.4181 11.084 19.4121 10.951C20.0197 10.513 20.5465 9.96591 20.9629 9.34277Z" fill="#F1F2F2"/>
</g>
<defs>
<clipPath id="clip0">
<rect width="26" height="26" fill="white"/>
</clipPath>
</defs>
</svg>
