<svg width="12" height="12" viewBox="0 0 12 12" fill="none" xmlns="http://www.w3.org/2000/svg">
<g clip-path="url(#clip0)">
<path d="M1.15696 3.10594C1.02087 3.24358 0.952881 3.40671 0.952881 3.59511C0.952881 3.78355 1.02087 3.94668 1.15696 4.08433L5.96946 8.9546C6.10555 9.09225 6.26662 9.16113 6.45282 9.16113C6.63903 9.16113 6.80022 9.09225 6.93619 8.9546L11.7487 4.08433C11.8848 3.94672 11.9529 3.78359 11.9529 3.59511C11.9529 3.40671 11.8848 3.24359 11.7487 3.10594C11.6127 2.96821 11.4515 2.89929 11.2653 2.89929L1.64033 2.89929C1.45412 2.89933 1.29309 2.96821 1.15696 3.10594Z" fill="white"/>
</g>
<defs>
<clipPath id="clip0">
<rect width="11.1322" height="11" fill="white" transform="translate(11.9529 0.463867) rotate(90)"/>
</clipPath>
</defs>
</svg>
