<svg width="14" height="3" viewBox="0 0 14 3" fill="none" xmlns="http://www.w3.org/2000/svg">
<path d="M0.566406 0.476562C0.800781 0.242188 1.07031 0.125 1.375 0.125C1.67969 0.125 1.9375 0.242188 2.14844 0.476562C2.38281 0.6875 2.5 0.945312 2.5 1.25C2.5 1.55469 2.38281 1.82422 2.14844 2.05859C1.9375 2.26953 1.67969 2.375 1.375 2.375C1.07031 2.375 0.800781 2.26953 0.566406 2.05859C0.355469 1.82422 0.25 1.55469 0.25 1.25C0.25 0.945312 0.355469 0.6875 0.566406 0.476562ZM6.19141 0.476562C6.42578 0.242188 6.69531 0.125 7 0.125C7.30469 0.125 7.5625 0.242188 7.77344 0.476562C8.00781 0.6875 8.125 0.945312 8.125 1.25C8.125 1.55469 8.00781 1.82422 7.77344 2.05859C7.5625 2.26953 7.30469 2.375 7 2.375C6.69531 2.375 6.42578 2.26953 6.19141 2.05859C5.98047 1.82422 5.875 1.55469 5.875 1.25C5.875 0.945312 5.98047 0.6875 6.19141 0.476562ZM11.8164 0.476562C12.0508 0.242188 12.3203 0.125 12.625 0.125C12.9297 0.125 13.1875 0.242188 13.3984 0.476562C13.6328 0.6875 13.75 0.945312 13.75 1.25C13.75 1.55469 13.6328 1.82422 13.3984 2.05859C13.1875 2.26953 12.9297 2.375 12.625 2.375C12.3203 2.375 12.0508 2.26953 11.8164 2.05859C11.6055 1.82422 11.5 1.55469 11.5 1.25C11.5 0.945312 11.6055 0.6875 11.8164 0.476562Z" fill="#708093"/>
</svg>
