<svg width="32" height="32" viewBox="0 0 32 32" fill="none" xmlns="http://www.w3.org/2000/svg">
<circle cx="16" cy="16" r="15" fill="white" stroke="#FF6363" stroke-width="2"/>
<g clip-path="url(#clip0)">
<path d="M17.6723 16.0007L25.108 8.56497C25.57 8.10339 25.57 7.35445 25.108 6.89287C24.646 6.43089 23.8979 6.43089 23.4359 6.89287L16.0002 14.3286L8.56399 6.89287C8.10202 6.43089 7.35387 6.43089 6.89189 6.89287C6.42992 7.35445 6.42992 8.10339 6.89189 8.56497L14.3281 16.0007L6.89189 23.4365C6.42992 23.8981 6.42992 24.647 6.89189 25.1086C7.12288 25.3392 7.42561 25.4547 7.72794 25.4547C8.03028 25.4547 8.33301 25.3392 8.56399 25.1082L16.0002 17.6724L23.4359 25.1082C23.6669 25.3392 23.9696 25.4547 24.272 25.4547C24.5743 25.4547 24.877 25.3392 25.108 25.1082C25.57 24.6466 25.57 23.8977 25.108 23.4361L17.6723 16.0007Z" fill="#FF6363"/>
</g>
<defs>
<clipPath id="clip0">
<rect width="18.9091" height="18.9091" fill="white" transform="translate(6.54541 6.54541)"/>
</clipPath>
</defs>
</svg>
