<svg width="12" height="12" viewBox="0 0 12 12" fill="none" xmlns="http://www.w3.org/2000/svg">
<path d="M1.75 1.78125C2.9375 0.59375 4.35417 0 6 0C7.64583 0 9.05208 0.59375 10.2188 1.78125C11.4062 2.94792 12 4.35417 12 6C12 7.64583 11.4062 9.0625 10.2188 10.25C9.05208 11.4167 7.64583 12 6 12C4.35417 12 2.9375 11.4167 1.75 10.25C0.583333 9.0625 0 7.64583 0 6C0 4.35417 0.583333 2.94792 1.75 1.78125ZM9.53125 2.46875C8.55208 1.48958 7.375 1 6 1C4.625 1 3.44792 1.48958 2.46875 2.46875C1.48958 3.44792 1 4.625 1 6C1 7.375 1.48958 8.55208 2.46875 9.53125C3.44792 10.5104 4.625 11 6 11C7.375 11 8.55208 10.5104 9.53125 9.53125C10.5104 8.55208 11 7.375 11 6C11 4.625 10.5104 3.44792 9.53125 2.46875ZM3.21875 4.21875C3.36458 4.07292 3.54167 4 3.75 4C3.95833 4 4.13542 4.07292 4.28125 4.21875C4.42708 4.36458 4.5 4.54167 4.5 4.75C4.5 4.95833 4.42708 5.13542 4.28125 5.28125C4.13542 5.42708 3.95833 5.5 3.75 5.5C3.54167 5.5 3.36458 5.42708 3.21875 5.28125C3.07292 5.13542 3 4.95833 3 4.75C3 4.54167 3.07292 4.36458 3.21875 4.21875ZM7.71875 4.21875C7.86458 4.07292 8.04167 4 8.25 4C8.45833 4 8.63542 4.07292 8.78125 4.21875C8.92708 4.36458 9 4.54167 9 4.75C9 4.95833 8.92708 5.13542 8.78125 5.28125C8.63542 5.42708 8.45833 5.5 8.25 5.5C8.04167 5.5 7.86458 5.42708 7.71875 5.28125C7.57292 5.13542 7.5 4.95833 7.5 4.75C7.5 4.54167 7.57292 4.36458 7.71875 4.21875ZM3.5 8H8.5V9H3.5V8Z" fill="#708093"/>
</svg>
