<svg width="200" height="200" viewBox="0 0 200 200" fill="none" xmlns="http://www.w3.org/2000/svg">
<path d="M0.898437 68.7732L0.0395428 6.89196C-0.00135694 3.74268 2.57533 1.166 5.7246 1.2069L67.6059 2.10669C72.5547 2.18849 75.0087 8.15985 71.4913 11.6772L54.2726 28.896L82.9024 57.5258L56.3175 84.1106L27.6877 55.4808L10.469 72.6996C6.99249 76.1761 0.980236 73.7221 0.898437 68.7732Z" fill="#979797"/>
<path d="M172.31 55.849L189.529 73.0678C193.046 76.5851 199.018 74.1311 199.1 69.1823L199.999 7.30102C200.04 4.15174 197.464 1.57506 194.314 1.61596L132.433 2.51575C127.484 2.59755 125.03 8.56891 128.548 12.0863L145.726 29.2233L117.096 57.8531L143.681 84.4379L172.31 55.849Z" fill="#979797"/>
<path d="M128.507 188.323C124.989 191.841 127.443 197.812 132.392 197.894L194.273 198.793C197.423 198.834 199.999 196.258 199.958 193.108L199.059 131.227C198.977 126.278 193.005 123.824 189.488 127.342L172.269 144.56L143.639 115.931L117.055 142.515L145.684 171.145L128.507 188.323Z" fill="#979797"/>
<path d="M5.72596 198.385L67.6072 197.485C72.5561 197.403 75.0101 191.432 71.4927 187.914L54.2739 170.736L82.9037 142.107L56.3189 115.522L27.6891 144.152L10.4703 126.933C6.95295 123.415 0.981593 125.869 0.899794 130.818L0 192.699C0 195.849 2.57668 198.425 5.72596 198.385Z" fill="#979797"/>
</svg>
