<svg width="12" height="12" viewBox="0 0 12 12" fill="none" xmlns="http://www.w3.org/2000/svg">
<path d="M8.875 0C9.72917 0 10.4583 0.3125 11.0625 0.9375C11.6875 1.54167 12 2.27083 12 3.125C12 4 11.6875 4.73958 11.0625 5.34375L10.3438 6.0625C9.73958 6.6875 9 7 8.125 7C7.72917 7 7.35417 6.92708 7 6.78125L7.8125 5.96875C7.91667 5.98958 8.02083 6 8.125 6C8.70833 6 9.20833 5.79167 9.625 5.375L10.375 4.625C10.7917 4.22917 11 3.73958 11 3.15625C11 2.55208 10.7917 2.04167 10.375 1.625C9.95833 1.20833 9.45833 1 8.875 1C8.27083 1 7.77083 1.20833 7.375 1.625L6.625 2.375C6.125 2.875 5.92708 3.47917 6.03125 4.1875L5.21875 5C5.07292 4.64583 5 4.27083 5 3.875C5 3 5.3125 2.26042 5.9375 1.65625L6.65625 0.9375C7.26042 0.3125 8 0 8.875 0ZM7.625 3.625L8.375 4.375L4.375 8.375L3.625 7.625L7.625 3.625ZM3.875 5C4.27083 5 4.64583 5.07292 5 5.21875L4.1875 6.03125C4.08333 6.01042 3.97917 6 3.875 6C3.29167 6 2.79167 6.20833 2.375 6.625L1.625 7.375C1.20833 7.77083 1 8.27083 1 8.875C1 9.45833 1.20833 9.95833 1.625 10.375C2.04167 10.7917 2.54167 11 3.125 11C3.72917 11 4.22917 10.7917 4.625 10.375L5.375 9.625C5.875 9.125 6.07292 8.52083 5.96875 7.8125L6.78125 7C6.92708 7.35417 7 7.72917 7 8.125C7 9 6.6875 9.73958 6.0625 10.3438L5.34375 11.0625C4.73958 11.6875 4 12 3.125 12C2.27083 12 1.53125 11.6979 0.90625 11.0938C0.302083 10.4688 0 9.72917 0 8.875C0 8 0.3125 7.26042 0.9375 6.65625L1.65625 5.9375C2.26042 5.3125 3 5 3.875 5Z" fill="#708093"/>
</svg>
