<svg width="22" height="17" viewBox="0 0 22 17" fill="none" xmlns="http://www.w3.org/2000/svg">
<path fill-rule="evenodd" clip-rule="evenodd" d="M4.62827 6.96063C3.22875 6.00683 2.38986 5.43321 2.11156 5.24008C1.6042 4.90205 1.12527 4.43716 0.67523 3.84553C0.225148 3.25394 0 2.70443 0 2.19733C0 1.56954 0.169807 1.04633 0.509422 0.627749C0.849079 0.20925 1.33403 0 1.9642 0H20.0356C20.5675 0 21.0279 0.189077 21.4167 0.567443C21.8055 0.945725 22 1.40055 22 1.93188C22 2.5677 21.7995 3.17545 21.3983 3.75478C20.9973 4.33436 20.4981 4.82949 19.9007 5.23982C16.8234 7.34078 14.9081 8.64884 14.1552 9.16389C14.0734 9.22034 13.8993 9.3429 13.6334 9.53223C13.3673 9.72152 13.1465 9.87448 12.9705 9.99116C12.7945 10.1077 12.5817 10.2385 12.3322 10.3835C12.0827 10.5281 11.8472 10.637 11.6263 10.7091C11.4053 10.7817 11.2006 10.8178 11.0124 10.8178H11H10.9876C10.7994 10.8178 10.5948 10.7818 10.3738 10.7091C10.1528 10.637 9.91749 10.5282 9.66784 10.3835C9.41809 10.2386 9.20533 10.1078 9.02933 9.99116C8.85346 9.87448 8.63244 9.72152 8.36644 9.53223C8.10048 9.34307 7.92663 9.22034 7.8448 9.16389C7.1 8.64884 6.02784 7.91444 4.62827 6.96063ZM14.6585 10.6974C16.0497 9.70727 18.0879 8.31864 20.7721 6.53186C21.2389 6.21803 21.648 5.86766 22 5.48147V15.0679C22 15.5995 21.8078 16.0539 21.423 16.4324C21.0383 16.8108 20.5759 17 20.0358 17H1.96433C1.42412 17 0.961611 16.8108 0.576975 16.4324C0.192253 16.0541 0 15.5995 0 15.0679V5.48147C0.360126 5.87582 0.773442 6.22619 1.24008 6.53186C4.20283 8.5119 6.23665 9.90061 7.34162 10.6974C7.80808 11.0354 8.18666 11.2992 8.47712 11.4882C8.76767 11.6774 9.15446 11.8706 9.63726 12.0677C10.1201 12.2651 10.5703 12.3635 10.9877 12.3635H11H11.0125C11.43 12.3635 11.88 12.2651 12.3628 12.0677C12.8458 11.8706 13.2323 11.6774 13.5229 11.4882C13.8136 11.2992 14.192 11.0354 14.6585 10.6974Z" fill="#979797"/>
</svg>
