<svg width="10" height="10" viewBox="0 0 10 10" fill="none" xmlns="http://www.w3.org/2000/svg">
<path fill-rule="evenodd" clip-rule="evenodd" d="M6.36628 2.36207C5.15195 1.54102 3.54473 1.70689 2.49384 2.86872C1.82669 3.60629 1.52728 4.59104 1.58317 5.55556H0.00438671C-0.0502008 4.14366 0.404477 2.71405 1.37921 1.63642C3.04985 -0.210576 5.65632 -0.379339 7.5051 1.11387C7.86662 0.717802 8.39027 0.153692 8.39027 0.153692C8.70668 -0.1907 9.01328 0.10852 8.99956 0.417136V3.79059C8.99923 3.92069 8.90378 4.02657 8.78644 4.02657H8.35627H8.14217C8.14217 4.02657 8.0464 4.02585 7.92938 4.02585L5.71058 4.02657C5.52099 4.03307 5.14771 3.77903 5.48013 3.33851C5.48013 3.33851 5.95442 2.81234 6.36628 2.36207ZM7.50656 7.13146C8.17361 6.39384 8.47298 5.40902 8.4171 4.44444L9.99567 4.44517C10.0499 5.85716 9.59465 7.28722 8.62071 8.36456C6.9503 10.2113 4.34484 10.3808 2.495 8.88642C2.1332 9.28215 1.60996 9.8463 1.60996 9.8463C1.29326 10.1907 0.987024 9.89147 1.00042 9.58284V6.20952C1.00075 6.07978 1.09618 5.97389 1.21352 5.97389H1.6446H1.85867C1.85867 5.97389 1.95443 5.97461 2.07143 5.97461L4.29026 5.97389C4.47982 5.96666 4.85273 6.22073 4.52067 6.66128C4.52067 6.66128 4.04612 7.18784 3.63497 7.63814C4.84913 8.45924 6.45548 8.29336 7.50656 7.13146Z" fill="#B9B9B9"/>
</svg>
