<svg width="21" height="21" viewBox="0 0 21 21" fill="none" xmlns="http://www.w3.org/2000/svg">
<path d="M19.9189 8.16667H17.9542C17.6384 8.16667 17.3783 7.99283 17.2573 7.70117C17.1364 7.4095 17.1978 7.10228 17.4207 6.87906L18.8098 5.49033C19.0139 5.28617 19.1263 5.01433 19.1263 4.72578C19.1263 4.43683 19.0139 4.16539 18.8098 3.96083L17.0392 2.19022C16.6308 1.78189 15.9188 1.78111 15.5097 2.19022L14.1209 3.57894C13.9362 3.76367 13.7332 3.80217 13.5952 3.80217C13.4007 3.80217 13.2074 3.72594 13.0647 3.59256C12.9593 3.49378 12.8333 3.31878 12.8333 3.04578V1.08111C12.8333 0.484944 12.3484 0 11.7522 0H9.24778C8.65161 0 8.16667 0.484944 8.16667 1.08111V3.04578C8.16667 3.51944 7.77894 3.80217 7.40406 3.80217C7.26639 3.80217 7.06339 3.76328 6.87867 3.57894L5.48994 2.19022C5.08083 1.78111 4.36878 1.78189 3.96044 2.19022L2.18983 3.96083C1.98567 4.165 1.87328 4.43683 1.87328 4.72578C1.87328 5.01433 1.98567 5.28578 2.18983 5.49033L3.57894 6.87906C3.80178 7.10228 3.86283 7.4095 3.74228 7.70117C3.62172 7.99283 3.36156 8.16667 3.04578 8.16667H1.08111C0.484944 8.16667 0 8.65161 0 9.24778V11.7514C0 12.348 0.484944 12.8333 1.08111 12.8333H3.04578C3.36156 12.8333 3.62172 13.0072 3.74267 13.2988C3.86361 13.5905 3.80217 13.8977 3.57933 14.1209L2.19022 15.5097C1.98606 15.7138 1.87367 15.9857 1.87367 16.2742C1.87367 16.5632 1.98606 16.8346 2.19022 17.0392L3.96083 18.8098C4.36956 19.2185 5.08122 19.2193 5.49033 18.8098L6.87906 17.4211C7.06378 17.2363 7.26678 17.1978 7.40483 17.1978C7.77933 17.1978 8.16706 17.4809 8.16706 17.9542V19.9185C8.16667 20.5147 8.65161 21 9.24778 21H11.7518C12.348 21 12.8329 20.5147 12.8329 19.9185V17.9542C12.8329 17.4806 13.2207 17.1978 13.5952 17.1978C13.7328 17.1978 13.9362 17.2367 14.1209 17.4211L15.5097 18.8098C15.9188 19.2189 16.6308 19.2181 17.0392 18.8098L18.8098 17.0392C19.0139 16.835 19.1263 16.5632 19.1263 16.2742C19.1263 15.9857 19.0139 15.7142 18.8098 15.5097L17.4207 14.1209C17.1978 13.8977 17.1368 13.5905 17.2573 13.2988C17.3779 13.0072 17.6384 12.8333 17.9542 12.8333H19.9189C20.5151 12.8333 21 12.348 21 11.7518V9.24778C21 8.65161 20.5151 8.16667 19.9189 8.16667ZM13.2222 10.5C13.2222 12.0007 12.0007 13.2222 10.5 13.2222C8.99928 13.2222 7.77778 12.0007 7.77778 10.5C7.77778 8.99928 8.99928 7.77778 10.5 7.77778C12.0007 7.77778 13.2222 8.99928 13.2222 10.5Z" fill="#646464"/>
</svg>
