<svg width="14" height="13" viewBox="0 0 14 13" fill="none" xmlns="http://www.w3.org/2000/svg">
<path d="M9.10938 0.203125L13.6094 4.70312L13.9609 5.125L13.6094 5.54688L9.10938 10.0469L8.26562 9.20312L11.8164 5.6875H4.1875C3.41406 5.6875 2.74609 5.96875 2.18359 6.53125C1.64453 7.07031 1.375 7.72656 1.375 8.5C1.375 9.27344 1.64453 9.94141 2.18359 10.5039C2.74609 11.043 3.41406 11.3125 4.1875 11.3125V12.4375C3.10938 12.4375 2.18359 12.0508 1.41016 11.2773C0.636719 10.5039 0.25 9.57812 0.25 8.5C0.25 7.42188 0.636719 6.49609 1.41016 5.72266C2.18359 4.94922 3.10938 4.5625 4.1875 4.5625H11.8164L8.26562 1.04688L9.10938 0.203125Z" fill="#708093"/>
</svg>
