<svg width="18" height="16" viewBox="0 0 18 16" fill="none" xmlns="http://www.w3.org/2000/svg">
<path d="M9 0.445312L9.49219 1.60547L11.3203 5.71875L15.8203 6.17578L17.0859 6.31641L16.1016 7.16016L12.7969 10.1484L13.7109 14.5781L13.9922 15.7734L12.8672 15.1406L9 12.8906L5.13281 15.1406L4.00781 15.7734L4.28906 14.5781L5.20312 10.1484L1.89844 7.16016L0.914062 6.31641L2.17969 6.17578L6.67969 5.71875L8.50781 1.60547L9 0.445312ZM9 3.1875L7.55859 6.45703L7.41797 6.77344H7.10156L3.58594 7.16016L6.1875 9.51562L6.46875 9.76172L6.39844 10.0781L5.625 13.5234L8.71875 11.7656L9 11.625L9.28125 11.7656L12.375 13.5234L11.6016 10.0781L11.5312 9.76172L11.8125 9.51562L14.4141 7.16016L10.8984 6.77344H10.582L10.4414 6.45703L9 3.1875Z" fill="#FFB600"/>
</svg>
