<svg width="56" height="22" viewBox="0 0 56 22" fill="none" xmlns="http://www.w3.org/2000/svg">
<path d="M38.5 19L37.4226 20.0437L38.5 21.1558L39.5774 20.0437L38.5 19ZM23 3L24.0774 1.95631L23.1026 0.950094L22.0322 1.85395L23 3ZM0.5 22L17.5479 18.939L6.37302 5.7056L0.5 22ZM52.9226 1.95631L37.4226 17.9563L39.5774 20.0437L55.0774 4.04369L52.9226 1.95631ZM39.5774 17.9563L24.0774 1.95631L21.9226 4.04369L37.4226 20.0437L39.5774 17.9563ZM22.0322 1.85395L9.84663 12.144L11.7822 14.4361L23.9678 4.14605L22.0322 1.85395Z" fill="white"/>
</svg>
