<svg width="258" height="200" viewBox="0 0 258 200" fill="none" xmlns="http://www.w3.org/2000/svg">
<path d="M78.1082 0C52.1948 0 31.113 22.3526 31.113 49.8273C31.113 77.3021 52.1948 99.6547 78.1082 99.6547C104.022 99.6547 125.104 77.3021 125.104 49.8273C125.104 22.3526 104.022 0 78.1082 0Z" fill="#A96EE4"/>
<path d="M184.955 7.13049C184.849 7.13049 184.742 7.13099 184.636 7.13149C173.76 7.2215 163.603 11.8132 156.033 20.0618C148.597 28.1645 144.553 38.854 144.646 50.1605C144.74 61.4671 148.959 72.0882 156.528 80.0677C164.157 88.1091 174.262 92.5253 185.016 92.5253C185.124 92.5253 185.232 92.5248 185.341 92.5243C196.216 92.4343 206.374 87.8421 213.943 79.594C221.38 71.4913 225.423 60.8018 225.33 49.4947C225.137 26.064 207.056 7.13049 184.955 7.13049Z" fill="#A96EE4"/>
<path d="M186.936 100.683H183.034C164.86 100.683 148.276 107.592 135.754 118.917C138.887 121.321 141.869 123.941 144.695 126.767C153.033 135.104 159.58 144.82 164.156 155.641C168.28 165.387 170.633 175.656 171.181 186.231H257.469V171.21C257.469 132.323 225.828 100.683 186.936 100.683Z" fill="#A96EE4"/>
<path d="M156.066 186.231C154.643 163.306 143.021 143.14 125.677 130.217C113.06 120.813 97.4109 115.246 80.4592 115.246H75.7624C33.9186 115.247 0 149.165 0 191.009V200H156.216V191.009C156.216 189.404 156.166 187.81 156.066 186.231Z" fill="#A96EE4"/>
</svg>
