<svg width="165" height="200" viewBox="0 0 165 200" fill="none" xmlns="http://www.w3.org/2000/svg">
<path d="M164.819 167.525L155.531 50.4805C154.955 42.9393 148.575 37.0344 141.013 37.0344H122.665V64.2195C122.665 67.586 119.94 70.3112 116.574 70.3112C113.211 70.3112 110.482 67.586 110.482 64.2195V37.0344H54.4394V64.2195C54.4394 67.586 51.7102 70.3112 48.3477 70.3112C44.9811 70.3112 42.2559 67.586 42.2559 64.2195V37.0344H23.9081C16.3465 37.0344 9.96638 42.9393 9.38991 50.4642L0.098161 167.541C-0.620495 176.918 2.63235 186.25 9.02022 193.146C15.4085 200.041 24.4646 204.001 33.8661 204.001H131.056C140.457 204.001 149.513 200.041 155.902 193.146C162.289 186.25 165.542 176.918 164.819 167.525ZM109.906 107.92L78.3996 139.426C77.2097 140.616 75.6501 141.213 74.0909 141.213C72.5313 141.213 70.9721 140.616 69.7822 139.426L55.0163 124.66C52.6364 122.28 52.6364 118.426 55.0163 116.046C57.3961 113.667 61.2542 113.667 63.63 116.046L74.0913 126.504L101.292 99.3028C103.668 96.927 107.526 96.927 109.906 99.3028C112.285 101.683 112.285 105.54 109.906 107.92Z" fill="#1789FA"/>
<path d="M82.4609 -4C60.2914 -4 42.2563 14.0391 42.2563 36.2086V37.0329H54.4398V36.2086C54.4398 20.7561 67.0088 8.18303 82.4613 8.18303C97.9138 8.18303 110.483 20.7561 110.483 36.2086V37.0329H122.666V36.2086C122.665 14.0391 104.63 -4 82.4609 -4Z" fill="#1789FA"/>
</svg>
