<svg width="210" height="200" viewBox="0 0 210 200" fill="none" xmlns="http://www.w3.org/2000/svg">
<path d="M74.3578 205.538C88.4105 205.538 99.8024 194.146 99.8024 180.093C99.8024 166.04 88.4105 154.648 74.3578 154.648C60.3051 154.648 48.9131 166.04 48.9131 180.093C48.9131 194.146 60.3051 205.538 74.3578 205.538Z" fill="#0BCD65"/>
<path d="M155.88 154.401C141.758 153.012 129.185 163.332 127.795 177.453C126.406 191.574 136.726 204.148 150.847 205.538C152.52 205.702 154.206 205.702 155.88 205.538C170.001 204.148 180.321 191.574 178.932 177.453C177.731 165.253 168.079 155.602 155.88 154.401Z" fill="#0BCD65"/>
<path d="M208.251 57.5632C206.987 55.6703 204.845 54.5529 202.569 54.5987H174.407V54.1047C174.409 24.2254 150.189 0.00193008 120.31 1.15333e-07C90.431 -0.00192985 66.2075 24.2182 66.2056 54.0974C66.2056 54.0998 66.2056 54.1022 66.2056 54.1047V54.5987H45.2075L38.0435 21.99C37.2479 18.6729 34.2907 16.3275 30.8795 16.3082H0V31.1303H24.9506L47.9249 136.615C48.5314 140.083 51.5687 142.596 55.0889 142.543H184.289C187.7 142.524 190.656 140.179 191.453 136.862L209.733 63.7391C210.269 61.5616 209.717 59.2596 208.251 57.5632ZM120.306 93.3833C98.6135 93.3833 81.0277 75.7975 81.0277 54.1047C81.0277 32.4118 98.6135 14.826 120.306 14.826C141.999 14.826 159.585 32.4118 159.585 54.1047C159.45 75.7415 141.943 93.2482 120.306 93.3833Z" fill="#0BCD65"/>
<path d="M114.378 54.8457L100.791 41.0117L90.1682 51.3872L108.943 70.4089C110.311 71.8053 112.176 72.6043 114.131 72.6322C116.06 72.7268 117.941 72.0103 119.318 70.656L150.445 41.2587L140.316 30.3892L114.378 54.8457Z" fill="#0BCD65"/>
</svg>
