<svg width="166" height="200" viewBox="0 0 166 200" fill="none" xmlns="http://www.w3.org/2000/svg">
<path d="M96.5488 132.855C95.8019 132.037 94.8569 131.425 93.8804 130.916C91.7542 129.807 89.4289 129.134 87.1201 128.527V146.418C90.8676 145.994 95.1699 144.634 97.1375 141.136C98.0769 139.465 98.2637 137.412 97.8811 135.551C97.6735 134.543 97.2448 133.618 96.5488 132.855Z" fill="#FF8E5E"/>
<path d="M97.1179 141.17C97.1255 141.158 97.1297 141.15 97.1377 141.136C97.1311 141.147 97.1245 141.159 97.1179 141.17Z" fill="#FF8E5E"/>
<path d="M69.5424 104.255C68.8981 105.196 68.4938 106.265 68.3823 107.401C68.2708 108.539 68.3334 109.806 68.7658 110.877C69.1776 111.898 70.0403 112.652 70.9307 113.259C71.9298 113.939 73.0286 114.47 74.1477 114.92C75.0866 115.298 76.1427 115.659 77.2811 116.008V99.8193C74.4052 100.433 71.2629 101.743 69.5424 104.255Z" fill="#FF8E5E"/>
<path d="M97.2121 141.004C97.1885 141.046 97.1631 141.089 97.1382 141.135C97.1674 141.082 97.1904 141.042 97.2121 141.004Z" fill="#FF8E5E"/>
<path d="M97.3062 140.836C97.3123 140.825 97.3132 140.824 97.3062 140.836V140.836Z" fill="#FF8E5E"/>
<path d="M93.4231 43.5168C108.638 30.7359 118.804 1.94259 112.547 0.68324C104.234 -0.990721 86.1828 6.34939 77.4577 7.64263C65.0825 9.13681 51.6042 -5.77683 44.0387 2.53603C37.8873 9.29494 48.4488 33.8749 64.9724 44.5832C15.675 68.8121 -53.6158 190.443 67.2657 199.269C234.526 211.48 150.773 67.1273 93.4231 43.5168ZM107.788 139.441C107.273 144.183 104.76 148.471 101.004 151.382C97.0374 154.456 92.0626 155.886 87.1198 156.286V161.526C87.1198 162.928 86.5075 164.283 85.4581 165.211C84.0156 166.488 81.896 166.803 80.1453 165.996C78.4168 165.201 77.2812 163.428 77.2812 161.526V155.799C76.4336 155.638 75.5922 155.447 74.7606 155.219C70.1411 153.949 65.8562 151.475 62.7262 147.815C61.167 145.99 59.8959 143.92 59.0168 141.685C58.7872 141.101 58.5824 140.506 58.4031 139.905C58.2408 139.36 58.0732 138.807 58.0154 138.239C57.9179 137.287 58.1066 136.316 58.5504 135.468C59.4625 133.723 61.3844 132.67 63.3469 132.845C65.2783 133.016 66.9711 134.356 67.5791 136.197C67.7664 136.764 67.8935 137.346 68.1038 137.907C68.3123 138.464 68.5641 139.006 68.8601 139.521C69.4446 140.537 70.1769 141.473 71.0202 142.286C72.7586 143.961 74.9729 145.05 77.2812 145.697V126.232C72.7676 125.063 68.1085 123.554 64.3813 120.656C62.5699 119.247 61.0329 117.496 60.0263 115.424C58.9641 113.237 58.5241 110.801 58.5062 108.381C58.4878 105.924 58.9547 103.489 59.9797 101.25C60.9397 99.1537 62.3219 97.2718 64.0166 95.7117C67.6403 92.3765 72.4537 90.5162 77.2817 89.8328V89.4046V84.394C77.2817 82.9925 77.8939 81.6362 78.9434 80.7082C80.3863 79.4324 82.505 79.117 84.2561 79.9237C85.9842 80.7195 87.1203 82.4918 87.1203 84.394V89.4046V89.8032C87.7636 89.8841 88.405 89.9811 89.0432 90.0969C93.7841 90.9548 98.421 92.9125 101.888 96.3306C103.53 97.9495 104.875 99.8785 105.82 101.982C106.084 102.569 106.316 103.169 106.516 103.782C106.702 104.353 106.889 104.94 106.978 105.536C107.12 106.487 106.975 107.47 106.568 108.34C105.734 110.123 103.864 111.258 101.896 111.174C99.9632 111.089 98.2116 109.83 97.5193 108.023C97.3132 107.486 97.2101 106.917 96.9998 106.381C96.7875 105.838 96.5127 105.321 96.196 104.832C95.5804 103.881 94.7827 103.066 93.8721 102.394C91.9002 100.938 89.5086 100.18 87.1188 99.7557V118.383C89.959 119.063 92.8015 119.805 95.5225 120.878C99.6352 122.5 103.532 124.986 105.777 128.908C105.429 128.297 105.09 127.701 105.789 128.928C106.475 130.133 106.147 129.558 105.803 128.955C107.589 132.102 108.176 135.866 107.788 139.441Z" fill="#FF8E5E"/>
<path d="M97.0658 141.263C97.0371 141.314 97.0122 141.359 96.9924 141.393C97.0094 141.364 97.0348 141.319 97.0658 141.263Z" fill="#FF8E5E"/>
</svg>
