<svg width="53" height="24" viewBox="0 0 53 24" fill="none" xmlns="http://www.w3.org/2000/svg">
<path d="M16.5 7.5L17.4499 6.33906L16.4363 5.50981L15.4779 6.40216L16.5 7.5ZM33 21L32.0501 22.1609L33.1405 23.0531L34.0992 22.0207L33 21ZM52.5 0L35.9471 5.09902L48.6394 16.8848L52.5 0ZM3.02213 22.0978L17.5221 8.59784L15.4779 6.40216L0.977872 19.9022L3.02213 22.0978ZM15.5501 8.66094L32.0501 22.1609L33.9499 19.8391L17.4499 6.33906L15.5501 8.66094ZM34.0992 22.0207L44.4131 10.9134L42.2147 8.87204L31.9008 19.9793L34.0992 22.0207Z" fill="white"/>
</svg>
