<svg width="26" height="26" viewBox="0 0 26 26" fill="none" xmlns="http://www.w3.org/2000/svg">
<path d="M13 26C20.1797 26 26 20.1797 26 13C26 5.8203 20.1797 0 13 0C5.8203 0 0 5.8203 0 13C0 20.1797 5.8203 26 13 26Z" fill="#D80027"/>
<path d="M7.11445 7.91187L8.23672 11.365H11.8676L8.93242 13.5029L10.0547 16.956L7.11445 14.8232L4.17422 16.956L5.30156 13.5029L2.36133 11.365H5.99219L7.11445 7.91187Z" fill="#FFDA44"/>
<path d="M15.4121 20.1348L14.5539 19.0786L13.2844 19.5712L14.0207 18.4286L13.1625 17.3673L14.4777 17.7176L15.2191 16.5751L15.2902 17.936L16.6105 18.2864L15.3359 18.7739L15.4121 20.1348Z" fill="#FFDA44"/>
<path d="M17.1183 17.0372L17.5246 15.7372L16.4125 14.9501L17.7734 14.9298L18.1746 13.6298L18.6164 14.9196L19.9773 14.9044L18.8855 15.7169L19.3222 17.0067L18.2101 16.2196L17.1183 17.0372Z" fill="#FFDA44"/>
<path d="M19.4188 9.54202L18.8196 10.7658L19.7946 11.7155L18.4489 11.5225L17.8496 12.7412L17.616 11.4006L16.2653 11.2076L17.4739 10.5729L17.2403 9.22717L18.2153 10.1768L19.4188 9.54202Z" fill="#FFDA44"/>
<path d="M15.4477 5.83484L15.3462 7.1907L16.6106 7.70359L15.2852 8.02859L15.1887 9.38953L14.4727 8.23171L13.1473 8.55671L14.0259 7.5157L13.3048 6.36296L14.5692 6.87585L15.4477 5.83484Z" fill="#FFDA44"/>
</svg>
