<svg width="26" height="26" viewBox="0 0 26 26" fill="none" xmlns="http://www.w3.org/2000/svg">
<path d="M0.808594 17.5216C2.6454 22.472 7.41046 25.9999 13 25.9999C18.5895 25.9999 23.3546 22.472 25.1914 17.5216L13 16.3912L0.808594 17.5216Z" fill="#FFDA44"/>
<path d="M13 0C7.41046 0 2.6454 3.52788 0.808594 8.47829L13 9.60868L25.1914 8.47823C23.3546 3.52787 18.5895 0 13 0Z" fill="black"/>
<path d="M0.80859 8.47815C0.286051 9.88647 0 11.4097 0 12.9999C0 14.59 0.286051 16.1133 0.80859 17.5216H25.1915C25.714 16.1133 26 14.59 26 12.9999C26 11.4097 25.714 9.88647 25.1914 8.47815H0.80859Z" fill="#D80027"/>
</svg>
