<svg width="26" height="26" viewBox="0 0 26 26" fill="none" xmlns="http://www.w3.org/2000/svg">
<path d="M13 26C20.1797 26 26 20.1797 26 13C26 5.8203 20.1797 0 13 0C5.8203 0 0 5.8203 0 13C0 20.1797 5.8203 26 13 26Z" fill="#F0F0F0"/>
<path d="M12.4347 13.0001H25.9999C25.9999 11.8267 25.8435 10.6901 25.552 9.60876H12.4347V13.0001Z" fill="#D80027"/>
<path d="M12.4347 6.21749H24.0918C23.296 4.91892 22.2785 3.77111 21.0922 2.82617H12.4347V6.21749Z" fill="#D80027"/>
<path d="M12.9999 26C16.0594 26 18.8715 24.9426 21.0922 23.174H4.90759C7.12826 24.9426 9.94037 26 12.9999 26Z" fill="#D80027"/>
<path d="M1.90797 19.7828H24.0919C24.7307 18.7403 25.2262 17.6008 25.5521 16.3915H0.447754C0.773617 17.6008 1.26909 18.7403 1.90797 19.7828Z" fill="#D80027"/>
<path d="M6.02184 2.03013H7.20652L6.10457 2.8307L6.52549 4.12608L5.42359 3.32551L4.32169 4.12608L4.68528 3.00701C3.71505 3.8152 2.86467 4.76206 2.16389 5.81709H2.54348L1.84204 6.32668C1.73276 6.50899 1.62795 6.69419 1.5275 6.88213L1.86245 7.91304L1.23754 7.459C1.0822 7.78812 0.940113 8.12464 0.812398 8.46818L1.18143 9.60406H2.54348L1.44153 10.4046L1.86245 11.7L0.760551 10.8994L0.100496 11.379C0.0344297 11.9101 0 12.451 0 13H13C13 5.82034 13 4.97392 13 0C10.4319 0 8.03791 0.744961 6.02184 2.03013ZM6.52549 11.7L5.42359 10.8994L4.32169 11.7L4.74261 10.4046L3.64066 9.60406H5.00271L5.42359 8.30868L5.84447 9.60406H7.20652L6.10457 10.4046L6.52549 11.7ZM6.10457 6.61766L6.52549 7.91304L5.42359 7.11247L4.32169 7.91304L4.74261 6.61766L3.64066 5.81709H5.00271L5.42359 4.52171L5.84447 5.81709H7.20652L6.10457 6.61766ZM11.1885 11.7L10.0866 10.8994L8.98473 11.7L9.40565 10.4046L8.3037 9.60406H9.66575L10.0866 8.30868L10.5075 9.60406H11.8696L10.7676 10.4046L11.1885 11.7ZM10.7676 6.61766L11.1885 7.91304L10.0866 7.11247L8.98473 7.91304L9.40565 6.61766L8.3037 5.81709H9.66575L10.0866 4.52171L10.5075 5.81709H11.8696L10.7676 6.61766ZM10.7676 2.8307L11.1885 4.12608L10.0866 3.32551L8.98473 4.12608L9.40565 2.8307L8.3037 2.03013H9.66575L10.0866 0.734754L10.5075 2.03013H11.8696L10.7676 2.8307Z" fill="#0052B4"/>
</svg>
