<svg width="26" height="26" viewBox="0 0 26 26" fill="none" xmlns="http://www.w3.org/2000/svg">
<path d="M13 26C20.1797 26 26 20.1797 26 13C26 5.8203 20.1797 0 13 0C5.8203 0 0 5.8203 0 13C0 20.1797 5.8203 26 13 26Z" fill="#F0F0F0"/>
<path d="M2.68726 5.08533C1.6661 6.41392 0.896102 7.94523 0.447754 9.60877H7.2107L2.68726 5.08533Z" fill="#0052B4"/>
<path d="M25.5521 9.60884C25.1038 7.94535 24.3338 6.41404 23.3126 5.08545L18.7893 9.60884H25.5521Z" fill="#0052B4"/>
<path d="M0.447754 16.3915C0.896152 18.055 1.66615 19.5863 2.68726 20.9148L7.21055 16.3915H0.447754Z" fill="#0052B4"/>
<path d="M20.9145 2.68743C19.5859 1.66627 18.0547 0.896274 16.3911 0.447876V7.21077L20.9145 2.68743Z" fill="#0052B4"/>
<path d="M5.08533 23.3127C6.41392 24.3339 7.94523 25.1039 9.60872 25.5523V18.7894L5.08533 23.3127Z" fill="#0052B4"/>
<path d="M9.60867 0.447876C7.94518 0.896274 6.41387 1.66627 5.08533 2.68738L9.60867 7.21072V0.447876Z" fill="#0052B4"/>
<path d="M16.3912 25.5523C18.0547 25.1039 19.586 24.3339 20.9146 23.3128L16.3912 18.7894V25.5523Z" fill="#0052B4"/>
<path d="M18.7893 16.3915L23.3126 20.9149C24.3338 19.5863 25.1038 18.055 25.5521 16.3915H18.7893Z" fill="#0052B4"/>
<path d="M25.89 11.3044H14.6957H14.6957V0.110043C14.1406 0.0377813 13.5747 0 13 0C12.4252 0 11.8594 0.0377813 11.3044 0.110043V11.3043V11.3043H0.110043C0.0377813 11.8594 0 12.4253 0 13C0 13.5748 0.0377813 14.1406 0.110043 14.6956H11.3043H11.3043V25.89C11.8594 25.9622 12.4252 26 13 26C13.5747 26 14.1406 25.9623 14.6956 25.89V14.6957V14.6957H25.89C25.9622 14.1406 26 13.5748 26 13C26 12.4253 25.9622 11.8594 25.89 11.3044Z" fill="#D80027"/>
<path d="M16.3912 16.3913L22.1923 22.1923C22.4591 21.9256 22.7136 21.6468 22.9564 21.3577L17.9899 16.3912H16.3912V16.3913Z" fill="#D80027"/>
<path d="M9.60871 16.3914H9.60861L3.80762 22.1924C4.07432 22.4592 4.35316 22.7137 4.64221 22.9565L9.60871 17.9899V16.3914Z" fill="#D80027"/>
<path d="M9.60866 9.60882V9.60872L3.80761 3.80762C3.54081 4.07432 3.28629 4.35316 3.04346 4.64221L8.01002 9.60877H9.60866V9.60882Z" fill="#D80027"/>
<path d="M16.3912 9.60883L22.1923 3.80768C21.9256 3.54088 21.6468 3.28636 21.3577 3.04358L16.3912 8.01014V9.60883Z" fill="#D80027"/>
</svg>
