<svg width="14" height="13" viewBox="0 0 14 13" fill="none" xmlns="http://www.w3.org/2000/svg">
<path d="M2.00781 0.0625H2.5H11.5H11.9922L12.0625 0.554688L13.1875 7.86719V7.90234V7.9375V11.875V12.4375H12.625H1.375H0.8125V11.875V7.9375V7.90234V7.86719L1.9375 0.554688L2.00781 0.0625ZM2.99219 1.1875L2.04297 7.375H5.3125H5.875V7.9375C5.875 8.24219 5.98047 8.51172 6.19141 8.74609C6.42578 8.95703 6.69531 9.0625 7 9.0625C7.30469 9.0625 7.5625 8.95703 7.77344 8.74609C8.00781 8.51172 8.125 8.24219 8.125 7.9375V7.375H8.6875H11.957L11.0078 1.1875H2.99219ZM1.9375 8.5V11.3125H12.0625V8.5H9.14453C9.00391 8.99219 8.73438 9.40234 8.33594 9.73047C7.96094 10.0352 7.51562 10.1875 7 10.1875C6.48438 10.1875 6.02734 10.0352 5.62891 9.73047C5.25391 9.40234 4.99609 8.99219 4.85547 8.5H1.9375Z" fill="#708093"/>
</svg>
