<svg width="14" height="13" viewBox="0 0 14 13" fill="none" xmlns="http://www.w3.org/2000/svg">
<path d="M0.8125 0.0625H1.375H10.375H10.5859L10.7969 0.203125L13.0469 2.45312L13.1875 2.66406V2.875V11.875V12.4375H12.625H1.375H0.8125V11.875V0.625V0.0625ZM1.9375 1.1875V11.3125H3.0625V6.8125V6.25H3.625H10.375H10.9375V6.8125V11.3125H12.0625V3.12109L10.375 1.43359V4V4.5625H9.8125H4.1875H3.625V4V1.1875H1.9375ZM4.75 1.1875V3.4375H9.25V1.1875H8.125V2.3125H7V1.1875H4.75ZM4.1875 7.375V11.3125H9.8125V7.375H4.1875Z" fill="#708093"/>
</svg>
