<svg width="14" height="14" viewBox="0 0 14 14" fill="none" xmlns="http://www.w3.org/2000/svg">
<path d="M2.21875 2.50391C3.55469 1.16797 5.14844 0.5 7 0.5C8.85156 0.5 10.4336 1.16797 11.7461 2.50391C13.082 3.81641 13.75 5.39844 13.75 7.25C13.75 9.10156 13.082 10.6953 11.7461 12.0312C10.4336 13.3438 8.85156 14 7 14C5.14844 14 3.55469 13.3438 2.21875 12.0312C0.90625 10.6953 0.25 9.10156 0.25 7.25C0.25 5.39844 0.90625 3.81641 2.21875 2.50391ZM10.9727 3.27734C9.87109 2.17578 8.54688 1.625 7 1.625C5.45312 1.625 4.12891 2.17578 3.02734 3.27734C1.92578 4.37891 1.375 5.70312 1.375 7.25C1.375 8.79688 1.92578 10.1211 3.02734 11.2227C4.12891 12.3242 5.45312 12.875 7 12.875C8.54688 12.875 9.87109 12.3242 10.9727 11.2227C12.0742 10.1211 12.625 8.79688 12.625 7.25C12.625 5.70312 12.0742 4.37891 10.9727 3.27734ZM6.57812 2.36328C6.69531 2.24609 6.83594 2.1875 7 2.1875C7.16406 2.1875 7.29297 2.24609 7.38672 2.36328C7.50391 2.45703 7.5625 2.58594 7.5625 2.75C7.5625 2.91406 7.50391 3.05469 7.38672 3.17188C7.29297 3.26563 7.16406 3.3125 7 3.3125C6.83594 3.3125 6.69531 3.26563 6.57812 3.17188C6.48438 3.05469 6.4375 2.91406 6.4375 2.75C6.4375 2.58594 6.48438 2.45703 6.57812 2.36328ZM3.41406 3.69922C3.53125 3.58203 3.66016 3.52344 3.80078 3.52344C3.96484 3.52344 4.10547 3.58203 4.22266 3.69922C4.33984 3.79297 4.39844 3.92187 4.39844 4.08594C4.39844 4.22656 4.33984 4.35547 4.22266 4.47266C4.10547 4.58984 3.96484 4.64844 3.80078 4.64844C3.66016 4.64844 3.53125 4.58984 3.41406 4.47266C3.32031 4.35547 3.27344 4.22656 3.27344 4.08594C3.27344 3.92187 3.32031 3.79297 3.41406 3.69922ZM9.77734 3.66406L10.5859 4.47266L8.08984 6.96875C8.11328 7.0625 8.125 7.15625 8.125 7.25C8.125 7.55469 8.00781 7.82422 7.77344 8.05859C7.5625 8.26953 7.30469 8.375 7 8.375C6.69531 8.375 6.42578 8.26953 6.19141 8.05859C5.98047 7.82422 5.875 7.55469 5.875 7.25C5.875 6.94531 5.98047 6.6875 6.19141 6.47656C6.42578 6.24219 6.69531 6.125 7 6.125C7.09375 6.125 7.1875 6.13672 7.28125 6.16016L9.77734 3.66406ZM2.07812 6.86328C2.19531 6.74609 2.33594 6.6875 2.5 6.6875C2.66406 6.6875 2.79297 6.74609 2.88672 6.86328C3.00391 6.95703 3.0625 7.08594 3.0625 7.25C3.0625 7.41406 3.00391 7.55469 2.88672 7.67188C2.79297 7.76562 2.66406 7.8125 2.5 7.8125C2.33594 7.8125 2.19531 7.76562 2.07812 7.67188C1.98438 7.55469 1.9375 7.41406 1.9375 7.25C1.9375 7.08594 1.98438 6.95703 2.07812 6.86328ZM11.0781 6.86328C11.1953 6.74609 11.3359 6.6875 11.5 6.6875C11.6641 6.6875 11.793 6.74609 11.8867 6.86328C12.0039 6.95703 12.0625 7.08594 12.0625 7.25C12.0625 7.41406 12.0039 7.55469 11.8867 7.67188C11.793 7.76562 11.6641 7.8125 11.5 7.8125C11.3359 7.8125 11.1953 7.76562 11.0781 7.67188C10.9844 7.55469 10.9375 7.41406 10.9375 7.25C10.9375 7.08594 10.9844 6.95703 11.0781 6.86328ZM3.41406 10.0273C3.53125 9.91016 3.66016 9.85156 3.80078 9.85156C3.96484 9.85156 4.10547 9.91016 4.22266 10.0273C4.33984 10.1445 4.39844 10.2852 4.39844 10.4492C4.39844 10.5898 4.33984 10.7188 4.22266 10.8359C4.10547 10.9297 3.96484 10.9766 3.80078 10.9766C3.66016 10.9766 3.53125 10.9297 3.41406 10.8359C3.32031 10.7188 3.27344 10.5898 3.27344 10.4492C3.27344 10.2852 3.32031 10.1445 3.41406 10.0273ZM9.77734 10.0273C9.89453 9.91016 10.0234 9.85156 10.1641 9.85156C10.3281 9.85156 10.457 9.91016 10.5508 10.0273C10.668 10.1445 10.7266 10.2852 10.7266 10.4492C10.7266 10.5898 10.668 10.7188 10.5508 10.8359C10.457 10.9297 10.3281 10.9766 10.1641 10.9766C10.0234 10.9766 9.89453 10.9297 9.77734 10.8359C9.66016 10.7188 9.60156 10.5898 9.60156 10.4492C9.60156 10.2852 9.66016 10.1445 9.77734 10.0273Z" fill="#708093"/>
</svg>
