<svg width="14" height="14" viewBox="0 0 14 14" fill="none" xmlns="http://www.w3.org/2000/svg">
<path d="M7 0.0625H7.21094H12.625H13.1875V0.625V6.03906V6.25L13.0469 6.42578L6.54297 12.8594L6.15625 13.2109L5.73438 12.8594L0.390625 7.51562L0.0390625 7.09375L0.390625 6.70703L6.82422 0.203125L7 0.0625ZM7.49219 1.1875L1.58594 7.09375L6.15625 11.6641L12.0625 5.75781V1.1875H7.49219ZM9.95312 2.48828C10.0703 2.37109 10.2109 2.3125 10.375 2.3125C10.5391 2.3125 10.668 2.37109 10.7617 2.48828C10.8789 2.58203 10.9375 2.71094 10.9375 2.875C10.9375 3.03906 10.8789 3.17969 10.7617 3.29688C10.668 3.39063 10.5391 3.4375 10.375 3.4375C10.2109 3.4375 10.0703 3.39063 9.95312 3.29688C9.85938 3.17969 9.8125 3.03906 9.8125 2.875C9.8125 2.71094 9.85938 2.58203 9.95312 2.48828Z" fill="#6DD230"/>
</svg>
