<svg width="16" height="16" viewBox="0 0 16 16" fill="none" xmlns="http://www.w3.org/2000/svg">
<path d="M5.71484 2.58984C6.81641 1.48828 8.14062 0.9375 9.6875 0.9375C11.2344 0.9375 12.5586 1.48828 13.6602 2.58984C14.7617 3.69141 15.3125 5.01562 15.3125 6.5625C15.3125 8.10938 14.7617 9.43359 13.6602 10.5352C12.5586 11.6367 11.2344 12.1875 9.6875 12.1875C8.35156 12.1875 7.16797 11.7656 6.13672 10.9219L1.67188 15.4219L0.828125 14.5781L5.32812 10.1133C4.48438 9.08203 4.0625 7.89844 4.0625 6.5625C4.0625 5.01562 4.61328 3.69141 5.71484 2.58984ZM12.8516 3.39844C11.9844 2.50781 10.9297 2.0625 9.6875 2.0625C8.44531 2.0625 7.37891 2.50781 6.48828 3.39844C5.62109 4.26563 5.1875 5.32031 5.1875 6.5625C5.1875 7.80469 5.62109 8.87109 6.48828 9.76172C7.37891 10.6289 8.44531 11.0625 9.6875 11.0625C10.9297 11.0625 11.9844 10.6289 12.8516 9.76172C13.7422 8.87109 14.1875 7.80469 14.1875 6.5625C14.1875 5.32031 13.7422 4.26563 12.8516 3.39844Z" fill="#65768A"/>
</svg>
