<svg width="16" height="16" viewBox="0 0 16 16" fill="none" xmlns="http://www.w3.org/2000/svg">
<path d="M6.41797 0.9375H6.875H9.125H9.58203L9.6875 1.39453L10.0039 3.04688C10.5195 3.25781 11 3.55078 11.4453 3.92578L13.0977 3.36328L13.5547 3.22266L13.7656 3.60938L14.8906 5.57812L15.1016 5.96484L14.7852 6.28125L13.5195 7.37109C13.5898 7.79297 13.625 8.08594 13.625 8.25C13.625 8.41406 13.5898 8.70703 13.5195 9.12891L14.7852 10.2188L15.1016 10.5352L14.8906 10.9219L13.7656 12.8906L13.5547 13.2773L13.0977 13.1367L11.4453 12.5742C11 12.9492 10.5195 13.2422 10.0039 13.4531L9.6875 15.1055L9.58203 15.5625H9.125H6.875H6.41797L6.3125 15.1055L5.99609 13.4531C5.48047 13.2422 5 12.9492 4.55469 12.5742L2.90234 13.1367L2.44531 13.2773L2.23438 12.8906L1.10938 10.9219L0.898438 10.5352L1.21484 10.2188L2.48047 9.12891C2.41016 8.70703 2.375 8.41406 2.375 8.25C2.375 8.08594 2.41016 7.79297 2.48047 7.37109L1.21484 6.28125L0.898438 5.96484L1.10938 5.57812L2.23438 3.60938L2.44531 3.22266L2.90234 3.36328L4.55469 3.92578C5 3.55078 5.48047 3.25781 5.99609 3.04688L6.3125 1.39453L6.41797 0.9375ZM7.33203 2.0625L7.05078 3.53906L6.98047 3.85547L6.66406 3.96094C6.03125 4.17188 5.46875 4.5 4.97656 4.94531L4.69531 5.15625L4.41406 5.08594L2.97266 4.59375L2.30469 5.71875L3.42969 6.70312L3.71094 6.91406L3.60547 7.26562C3.53516 7.57031 3.5 7.89844 3.5 8.25C3.5 8.60156 3.53516 8.92969 3.60547 9.23438L3.71094 9.58594L3.42969 9.79688L2.30469 10.7812L2.97266 11.9062L4.41406 11.4141L4.69531 11.3438L4.97656 11.5547C5.46875 12 6.03125 12.3281 6.66406 12.5391L6.98047 12.6445L7.05078 12.9609L7.33203 14.4375H8.66797L8.94922 12.9609L9.01953 12.6445L9.33594 12.5391C9.96875 12.3281 10.5312 12 11.0234 11.5547L11.3047 11.3438L11.5859 11.4141L13.0273 11.9062L13.6953 10.7812L12.5703 9.79688L12.3242 9.58594L12.3945 9.23438C12.4648 8.92969 12.5 8.60156 12.5 8.25C12.5 7.89844 12.4648 7.57031 12.3945 7.26562L12.2891 6.91406L12.5703 6.70312L13.6953 5.71875L13.0273 4.59375L11.5859 5.08594L11.3047 5.15625L11.0234 4.94531C10.5312 4.5 9.96875 4.17188 9.33594 3.96094L9.01953 3.85547L8.94922 3.53906L8.66797 2.0625H7.33203ZM5.99609 6.28125C6.55859 5.71875 7.22656 5.4375 8 5.4375C8.77344 5.4375 9.42969 5.71875 9.96875 6.28125C10.5312 6.82031 10.8125 7.47656 10.8125 8.25C10.8125 9.02344 10.5312 9.69141 9.96875 10.2539C9.42969 10.793 8.77344 11.0625 8 11.0625C7.22656 11.0625 6.55859 10.793 5.99609 10.2539C5.45703 9.69141 5.1875 9.02344 5.1875 8.25C5.1875 7.47656 5.45703 6.82031 5.99609 6.28125ZM9.19531 7.05469C8.86719 6.72656 8.46875 6.5625 8 6.5625C7.53125 6.5625 7.13281 6.72656 6.80469 7.05469C6.47656 7.38281 6.3125 7.78125 6.3125 8.25C6.3125 8.71875 6.47656 9.11719 6.80469 9.44531C7.13281 9.77344 7.53125 9.9375 8 9.9375C8.46875 9.9375 8.86719 9.77344 9.19531 9.44531C9.52344 9.11719 9.6875 8.71875 9.6875 8.25C9.6875 7.78125 9.52344 7.38281 9.19531 7.05469Z" fill="#708093"/>
</svg>
