<svg width="14" height="14" viewBox="0 0 14 14" fill="none" xmlns="http://www.w3.org/2000/svg">
<path d="M2.21875 2.50391C3.55469 1.16797 5.14844 0.5 7 0.5C8.85156 0.5 10.4336 1.16797 11.7461 2.50391C13.082 3.81641 13.75 5.39844 13.75 7.25C13.75 9.10156 13.082 10.6953 11.7461 12.0312C10.4336 13.3438 8.85156 14 7 14C5.14844 14 3.55469 13.3438 2.21875 12.0312C0.90625 10.6953 0.25 9.10156 0.25 7.25C0.25 5.39844 0.90625 3.81641 2.21875 2.50391ZM10.9727 3.27734C9.87109 2.17578 8.54688 1.625 7 1.625C5.45312 1.625 4.12891 2.17578 3.02734 3.27734C1.92578 4.37891 1.375 5.70312 1.375 7.25C1.375 8.79688 1.92578 10.1211 3.02734 11.2227C4.12891 12.3242 5.45312 12.875 7 12.875C8.54688 12.875 9.87109 12.3242 10.9727 11.2227C12.0742 10.1211 12.625 8.79688 12.625 7.25C12.625 5.70312 12.0742 4.37891 10.9727 3.27734ZM6.4375 2.75H7.5625V6.6875H10.375V7.8125H7H6.4375V7.25V2.75Z" fill="#708093"/>
</svg>
