<svg width="12" height="14" viewBox="0 0 12 14" fill="none" xmlns="http://www.w3.org/2000/svg">
<path d="M5.01562 0.5H7.26562C7.59375 0.5 7.86328 0.605469 8.07422 0.816406C8.28516 1.02734 8.39062 1.29688 8.39062 1.625V2.1875H11.7656V3.3125H11.2031V12.3125C11.2031 12.7812 11.0391 13.1797 10.7109 13.5078C10.3828 13.8359 9.98438 14 9.51562 14H2.76562C2.29688 14 1.89844 13.8359 1.57031 13.5078C1.24219 13.1797 1.07812 12.7812 1.07812 12.3125V3.3125H0.515625V2.1875H3.89062V1.625C3.89062 1.29688 3.99609 1.02734 4.20703 0.816406C4.41797 0.605469 4.6875 0.5 5.01562 0.5ZM5.01562 1.625V2.1875H7.26562V1.625H5.01562ZM2.20312 3.3125V12.3125C2.20312 12.4766 2.25 12.6172 2.34375 12.7344C2.46094 12.8281 2.60156 12.875 2.76562 12.875H9.51562C9.67969 12.875 9.80859 12.8281 9.90234 12.7344C10.0195 12.6172 10.0781 12.4766 10.0781 12.3125V3.3125H2.20312ZM3.32812 5H4.45312V11.1875H3.32812V5ZM5.57812 5H6.70312V11.1875H5.57812V5ZM7.82812 5H8.95312V11.1875H7.82812V5Z" fill="#708093"/>
</svg>
