<?xml version="1.0" encoding="utf-8"?>
<!-- Generator: Adobe Illustrator 17.0.0, SVG Export Plug-In . SVG Version: 6.00 Build 0)  -->
<!DOCTYPE svg PUBLIC "-//W3C//DTD SVG 1.1//EN" "http://www.w3.org/Graphics/SVG/1.1/DTD/svg11.dtd">
<svg version="1.1" id="Capa_1" xmlns="http://www.w3.org/2000/svg" xmlns:xlink="http://www.w3.org/1999/xlink" x="0px" y="0px"
	 width="25px" height="25px" viewBox="0 0 25 25" enable-background="new 0 0 25 25" xml:space="preserve">
<path fill="#E7ECED" d="M8.78,19.6l-3.73,2.034C4.831,21.754,4.634,21.9,4.451,22.06C6.626,23.894,9.433,25,12.5,25
	c3.044,0,5.833-1.09,8.002-2.898c-0.2-0.169-0.417-0.321-0.658-0.441l-3.994-1.997c-0.516-0.258-0.842-0.785-0.842-1.362v-1.567
	c0.112-0.128,0.241-0.292,0.378-0.486c0.544-0.769,0.956-1.615,1.242-2.502c0.512-0.158,0.89-0.631,0.89-1.193v-1.673
	c0-0.368-0.164-0.697-0.418-0.927V7.537c0,0,0.497-3.763-4.599-3.763S7.901,7.537,7.901,7.537v2.418
	c-0.255,0.23-0.418,0.559-0.418,0.927v1.673c0,0.441,0.232,0.828,0.578,1.052c0.418,1.819,1.512,3.129,1.512,3.129v1.528
	C9.574,18.82,9.269,19.333,8.78,19.6z"/>
<g>
	<path fill="#556080" d="M12.714,0.002C5.811-0.116,0.12,5.384,0.002,12.286c-0.067,3.914,1.677,7.431,4.455,9.77
		c0.182-0.158,0.376-0.304,0.593-0.422l3.73-2.034c0.489-0.267,0.794-0.78,0.794-1.337v-1.528c0,0-1.095-1.309-1.512-3.129
		c-0.346-0.224-0.578-0.611-0.578-1.052v-1.673c0-0.368,0.164-0.697,0.418-0.927V7.536c0,0-0.497-3.763,4.599-3.763
		s4.599,3.763,4.599,3.763v2.418c0.255,0.23,0.418,0.559,0.418,0.927v1.673c0,0.562-0.377,1.035-0.89,1.193
		c-0.285,0.887-0.697,1.733-1.242,2.502c-0.137,0.194-0.266,0.358-0.378,0.486v1.567c0,0.577,0.326,1.105,0.842,1.362l3.994,1.997
		c0.24,0.12,0.456,0.271,0.656,0.44c2.693-2.246,4.433-5.605,4.498-9.387C25.116,5.811,19.617,0.12,12.714,0.002z"/>
</g>
</svg>
