<svg width="4" height="15" viewBox="0 0 4 15" fill="none" xmlns="http://www.w3.org/2000/svg">
<path fill-rule="evenodd" clip-rule="evenodd" d="M2 3.94737C0.89725 3.94737 0 3.06192 0 1.97368C0 0.885444 0.89725 0 2 0C3.10275 0 4 0.885444 4 1.97368C4 3.06192 3.10275 3.94737 2 3.94737ZM2 11.0526C3.10275 11.0526 4 11.9381 4 13.0263C4 14.1146 3.10275 15 2 15C0.89725 15 0 14.1146 0 13.0263C0 11.9381 0.89725 11.0526 2 11.0526ZM4 7.5C4 6.41176 3.10275 5.52632 2 5.52632C0.89725 5.52632 0 6.41176 0 7.5C0 8.58824 0.89725 9.47368 2 9.47368C3.10275 9.47368 4 8.58824 4 7.5Z" fill="#9DA5BB"/>
</svg>
