<svg width="485" height="366" viewBox="0 0 485 366" fill="none" xmlns="http://www.w3.org/2000/svg">
<path opacity="0.1" fill-rule="evenodd" clip-rule="evenodd" d="M298.694 50.1253C277.883 67.7992 250.889 66.6558 227.235 57.4587C203.58 48.2615 181.851 31.8931 158.804 20.256C139.482 10.5007 119.207 4.09468 98.684 1.24506C69.3102 -2.83354 36.5077 2.14541 16.0433 30.7046C-6.74751 62.5232 -4.99714 119.912 19.643 149.101C32.1835 163.957 48.6028 171.25 62.9207 182.864C77.2386 194.479 90.4991 213.729 89.2797 236.12C88.1503 256.829 75.0248 272.751 61.4403 282.732C50.9426 290.443 38.0151 298.866 36.7507 314.843C35.5268 330.297 46.398 342.412 56.7787 349.299C90.6431 371.768 132.373 371.552 166.12 348.732C178.152 340.588 189.204 329.757 201.825 323.419C234.965 306.762 271.484 323.527 306.577 329.663C336.275 334.853 366.733 332.161 395.67 321.794C413.048 315.568 430.493 306.037 442.701 288.318C451.507 275.533 456.992 259.35 462.139 243.368C467.629 226.331 472.907 209.17 477.974 191.886C481.011 181.509 484.003 170.935 484.791 159.838C486.213 139.724 480.219 119.84 472.057 102.868C452.677 62.5637 420.036 34.225 384.687 27.0267C349.337 19.8284 311.941 33.8874 284.524 64.6525" fill="#4D7CFE"/>
<path opacity="0.1" fill-rule="evenodd" clip-rule="evenodd" d="M220 244C276.333 244 322 241.985 322 239.5C322 237.015 276.333 235 220 235C163.667 235 118 237.015 118 239.5C118 241.985 163.667 244 220 244Z" fill="#4D7CFE"/>
<path fill-rule="evenodd" clip-rule="evenodd" d="M124 127.5C124 178.506 165.497 220 216.507 220C267.498 220 309 178.501 309 127.5C309 76.4987 267.53 35 216.507 35C165.484 35 124 76.4942 124 127.5ZM124.899 127.5C124.899 76.9931 165.992 35.899 216.507 35.899C267.004 35.899 308.114 76.9931 308.114 127.5C308.114 178.007 267.035 219.101 216.507 219.101C165.978 219.101 124.899 178.007 124.899 127.5Z" fill="white"/>
<path fill-rule="evenodd" clip-rule="evenodd" d="M145 128C145 167.699 177.304 200 217.002 200C256.7 200 289 167.699 289 128C289 88.3008 256.7 56 217.002 56C177.304 56 145 88.3008 145 128ZM145.902 128C145.902 88.797 177.796 56.9023 217.002 56.9023C256.191 56.9023 288.098 88.797 288.098 128C288.098 167.203 256.209 199.098 217.002 199.098C177.796 199.098 145.902 167.203 145.902 128Z" fill="white"/>
<path fill-rule="evenodd" clip-rule="evenodd" d="M167 127.5C167 154.838 189.162 177 216.5 177C243.825 176.968 265.968 154.825 266 127.5C266 100.162 243.838 78 216.5 78C189.162 78 167 100.162 167 127.5ZM167.9 127.5C167.9 100.659 189.659 78.9 216.5 78.9C243.328 78.9322 265.068 100.672 265.1 127.5C265.1 154.341 243.341 176.1 216.5 176.1C189.659 176.1 167.9 154.341 167.9 127.5Z" fill="white"/>
<path opacity="0.1" fill-rule="evenodd" clip-rule="evenodd" d="M440.5 184C444.09 184 447 183.105 447 182C447 180.895 444.09 180 440.5 180C436.91 180 434 180.895 434 182C434 183.105 436.91 184 440.5 184Z" fill="#4D7CFE"/>
<path opacity="0.1" fill-rule="evenodd" clip-rule="evenodd" d="M80 300C100.987 300 118 297.314 118 294C118 290.686 100.987 288 80 288C59.0132 288 42 290.686 42 294C42 297.314 59.0132 300 80 300Z" fill="#4D7CFE"/>
<g opacity="0.1">
<path fill-rule="evenodd" clip-rule="evenodd" d="M146.632 121.326H31.0756C27.7442 121.336 25.046 124.044 25.0361 127.389V200.692C25.046 204.037 27.7442 206.746 31.0756 206.756H121.726C121.726 206.756 124.074 219.271 116.358 220.62C116.358 220.62 133.638 221.864 130.618 206.756H146.632C149.963 206.746 152.661 204.037 152.671 200.692V127.389C152.661 124.044 149.963 121.336 146.632 121.326Z" fill="black"/>
<g opacity="0.2">
<rect x="42.0459" y="140.783" width="93.6113" height="5.72851" rx="2.86425" fill="black"/>
<rect x="42.0459" y="166.385" width="93.6113" height="5.72851" rx="2.86425" fill="black"/>
<rect x="42.0459" y="179.181" width="78.5037" height="5.72851" rx="2.86425" fill="black"/>
<rect x="42.0459" y="153.584" width="40.5904" height="5.72851" rx="2.86425" fill="black"/>
</g>
</g>
<path fill-rule="evenodd" clip-rule="evenodd" d="M146.995 121H32.0094C28.6946 121.01 26.0099 123.71 26 127.044V200.115C26.0099 203.449 28.6946 206.149 32.0094 206.159H122.209C122.209 206.159 124.55 218.636 116.867 219.975C116.867 219.975 134.061 221.216 131.057 206.159H146.995C150.309 206.149 152.993 203.448 153 200.115V127.044C152.993 123.711 150.309 121.01 146.995 121Z" fill="white"/>
<g opacity="0.2">
<rect x="43.0273" y="140.273" width="93.8644" height="5.75455" rx="2.87727" fill="#4D7CFE"/>
<rect x="43.0273" y="165.991" width="93.8644" height="5.75455" rx="2.87727" fill="#4D7CFE"/>
<rect x="43.0273" y="178.85" width="78.716" height="5.75455" rx="2.87727" fill="#4D7CFE"/>
<rect x="43.0273" y="153.132" width="40.7002" height="5.75455" rx="2.87727" fill="#4D7CFE"/>
</g>
<path fill-rule="evenodd" clip-rule="evenodd" d="M105.417 119.474L98.9433 133.088C98.9433 133.088 97.9866 135.642 97.3715 136.115C96.7565 136.588 94.0366 144.675 94.0366 144.675L87.098 155.279L86.6424 156L83.9089 155.257L82 148.197L82.1185 146.148V145.891C82.1185 145.891 86.4146 141.449 87.3668 141.111C87.3668 141.111 88.114 141.197 89.5491 137.755C90.9842 134.313 92.2826 133.565 92.2826 133.565L93.0298 131.07L101.075 118.406C101.075 118.406 107.818 108.842 109.654 113.086C111.49 117.33 105.417 119.474 105.417 119.474Z" fill="#FFD2C6"/>
<path fill-rule="evenodd" clip-rule="evenodd" d="M77.9779 215.93C77.9566 216.163 77.8838 216.387 77.7649 216.586C77.0371 217.667 72.9234 239.784 72.9234 239.784C73.2518 241.277 72.3287 244.253 71.7252 245.605C71.1217 246.958 69.7992 253.991 69.7992 253.991C69.7992 253.991 69.4708 269.143 68.6099 271.508C67.749 273.873 68.8851 278.948 68.8851 278.948C68.8007 281.282 70.1764 283.747 70.993 285.004C71.0551 285.086 71.1039 285.167 71.1527 285.235C71.419 285.624 71.5965 285.846 71.5965 285.846C71.8192 286.3 72.1356 286.699 72.524 287.017C72.5817 287.067 72.6438 287.112 72.7104 287.162C73.8375 287.934 75.1001 288.478 76.4291 288.763L76.5578 288.79C77.0904 288.912 77.4454 288.957 77.4454 288.957L77.7738 290.767L74.2591 291.508L67.5582 291.961C67.5582 291.961 59.6591 292.571 61.4519 288.985C61.5779 288.74 61.6862 288.486 61.7759 288.225C61.8424 288.053 61.9046 287.872 61.9578 287.691C63.0362 284.245 62.3084 280.056 62.3084 280.056L60.7641 267.867C58.2479 256.505 62.7522 243.855 62.7522 243.855C62.7522 243.855 62.3572 242.842 63.2225 240.273C64.0879 237.704 63.2225 232.091 63.2225 232.091C63.2225 232.091 62.7788 224.854 62.1619 221.267C61.9265 219.762 61.8462 218.235 61.9223 216.713C61.9507 215.819 62.0307 214.928 62.1619 214.044L77.2945 212C77.2945 212 78.1465 214.497 77.9779 215.93Z" fill="#FFD2C6"/>
<path opacity="0.1" fill-rule="evenodd" clip-rule="evenodd" d="M78 290.824L74.3977 291.531L67.5298 291.962C67.5298 291.962 59.4339 292.544 61.2714 289.126C61.4005 288.892 61.5115 288.65 61.6034 288.401C61.6716 288.238 61.7353 288.065 61.7899 287.893C63.1912 287.934 64.5752 288.199 65.8833 288.677C68.1893 289.54 69.9268 287.319 69.9268 287.319L71.0457 285.293L71.2094 285C71.4823 285.371 71.6642 285.582 71.6642 285.582C71.9322 286.08 72.324 286.509 72.8058 286.832L72.6148 287.212L71.5278 289.367C71.5278 289.367 72.9196 289.501 74.8253 289.798C75.5896 289.995 76.3809 289.583 76.6173 288.867L76.7492 288.893C77.295 289.009 77.6589 289.052 77.6589 289.052L78 290.824Z" fill="black"/>
<path fill-rule="evenodd" clip-rule="evenodd" d="M81.948 293.114C81.6748 294.309 74.0832 294.678 74.0832 294.678C74.0832 294.678 69.857 294.278 68.6729 295.243C67.4889 296.207 64.0005 295.976 63.8638 295.976C63.7272 295.976 61.8919 295.905 61.1724 292.688C60.4756 289.55 62.1105 289.004 62.1925 288.977C63.6622 288.997 65.1165 289.272 66.487 289.79C68.7959 290.679 70.5355 288.395 70.5355 288.395L71.8198 286C72.093 286.382 72.2752 286.6 72.2752 286.6C72.5413 287.116 72.934 287.56 73.4183 287.893L72.1386 290.519C72.1386 290.519 73.5321 290.657 75.4403 290.963C76.9659 291.203 77.2983 289.99 77.3666 289.502C77.3712 289.435 77.3712 289.368 77.3666 289.302C77.3666 289.302 78.5552 289.635 80.0171 290.035C81.3834 290.415 82.2228 291.754 81.948 293.114Z" fill="#626696"/>
<path fill-rule="evenodd" clip-rule="evenodd" d="M95.7144 232.56C95.5352 233.629 95.3516 236.399 95.3516 236.399C95.9787 238.716 94.3707 244.224 94.3707 244.224L93.5689 247.356C93.9272 251.383 91.3607 261.186 91.3607 261.186C91.3607 261.186 89.6407 270.287 88.7448 274.215C88.2102 276.395 88.3668 278.687 89.1927 280.774C89.2375 280.882 89.2644 280.935 89.2644 280.935C89.2644 281.011 89.2958 281.083 89.3182 281.154C89.3406 281.226 89.3764 281.369 89.4122 281.472C89.6177 282.02 89.9213 282.527 90.3081 282.966C90.4551 283.142 90.6153 283.307 90.7873 283.459L90.8142 283.486C91.6551 284.229 92.6191 284.821 93.6629 285.235L94.1109 285.414C94.5755 285.589 95.0496 285.738 95.5308 285.861C95.5838 285.876 95.6376 285.888 95.692 285.897L95.3292 288L90.5992 286.792L84.2612 284.738L81.1258 282.949C81.1258 282.949 81.1616 282.779 81.2243 282.452C81.2243 282.452 81.2243 282.416 81.2243 282.398C81.2512 282.26 81.278 282.094 81.3184 281.906C81.8514 279.177 83.0652 271.436 82.4561 265.754C81.6991 258.707 84.6374 248.98 85.3541 246.663C85.7785 245.338 85.9606 243.948 85.8916 242.56C84.727 240.86 84.4583 234.086 84.4583 234.086C84.4583 234.086 82.3172 229.71 80.5435 225.07C79.9583 223.555 79.5306 221.984 79.2669 220.381C79.0603 219.251 78.9733 218.102 79.0071 216.954C79.0071 216.954 93.3942 203.84 94.9709 216.538C95.0246 216.985 95.0739 217.379 95.1232 217.781C96.5027 229.388 95.8846 231.526 95.7144 232.56Z" fill="#FFD2C6"/>
<path opacity="0.1" fill-rule="evenodd" clip-rule="evenodd" d="M96 285.916L95.6264 288L90.7555 286.803L84.2288 284.768L81 282.995C81 282.995 81.0369 282.826 81.1015 282.503C81.1015 282.503 81.1015 282.467 81.1015 282.45C81.1292 282.312 81.1568 282.148 81.1983 281.962L81.6596 281.918H81.6965C82.6244 281.835 83.5598 281.956 84.4317 282.272C85.4926 282.658 86.8856 283.097 87.1716 282.911C87.6646 282.708 88.1997 282.617 88.7352 282.645L89.4133 281.217L89.5101 281C89.7207 281.544 90.0334 282.046 90.4327 282.481C90.5934 282.664 90.7676 282.836 90.9539 282.995L90.9262 283.5L90.8893 284.214C91.6173 284.662 92.4057 285.013 93.2325 285.256C93.4475 285.307 93.6724 285.307 93.8875 285.256L94.3487 285.433C94.8272 285.607 95.3154 285.755 95.8109 285.877C95.873 285.894 95.9361 285.907 96 285.916Z" fill="black"/>
<path fill-rule="evenodd" clip-rule="evenodd" d="M92.5926 290.852C91.2801 290.474 88.1166 289.874 87.605 290.341C87.0933 290.808 82.7108 290.341 82.7108 290.341C81.7739 290.324 80.9144 289.818 80.4461 289.008C79.5562 287.59 80.2726 283.004 80.2726 283.004L80.5974 282.973L81.1402 282.92H81.1758C82.0709 282.835 82.9737 282.956 83.8142 283.275C84.8375 283.658 86.1812 284.097 86.4571 283.915C86.932 283.71 87.4486 283.618 87.9654 283.649L88.7128 282C88.917 282.544 89.2185 283.047 89.6027 283.484C89.7577 283.668 89.9257 283.84 90.1055 284L90.0432 285.222C90.746 285.669 91.5064 286.019 92.3034 286.262C92.7006 286.424 93.1571 286.28 93.389 285.919C93.4246 285.863 93.4516 285.802 93.4691 285.737C93.5092 285.813 93.9407 285.959 95.3245 286.355C96.8283 286.271 98.2788 286.924 98.9462 288.959C99.6136 290.994 93.8785 291.225 92.5926 290.852Z" fill="#626696"/>
<path opacity="0.1" fill-rule="evenodd" clip-rule="evenodd" d="M77.9778 215.984C77.6862 216.071 77.421 216.153 77.1736 216.236C76.5376 216.437 75.8855 216.579 75.225 216.661C71.0582 217.268 64.1784 216.903 62 216.761C62.0282 215.858 62.1079 214.958 62.2386 214.065L77.3062 212C77.3062 212 78.1457 214.536 77.9778 215.984Z" fill="black"/>
<path fill-rule="evenodd" clip-rule="evenodd" d="M92 212.317C92 212.317 86.3656 213.198 81.7842 214.211C80.2541 214.547 78.841 214.897 77.7969 215.242C77.1481 215.438 76.4843 215.579 75.8123 215.664C70.7089 216.386 61.6452 215.719 61.6452 215.719C59.1566 207.572 64.6695 197.313 64.6695 197.313C64.539 196.495 65.817 193.988 65.817 193.988L65.8396 193.906L66.6226 191H87.5537L87.8102 192.249L88.3412 194.792L91.6265 210.537L92 212.317Z" fill="#626696"/>
<path opacity="0.1" fill-rule="evenodd" clip-rule="evenodd" d="M95 217.506L94.8755 217.558L92.4575 218.592C89.8394 219.76 82.0029 219.979 79.2649 220C79.0599 218.916 78.9735 217.814 79.007 216.712C79.007 216.712 93.2842 204.131 94.8489 216.313C94.9022 216.746 94.9511 217.12 95 217.506Z" fill="black"/>
<path fill-rule="evenodd" clip-rule="evenodd" d="M95 216.165L94.4805 216.393L92.0012 217.5C89.2668 218.762 80.9769 218.986 78.329 219H77.6317C76.4058 218.959 75.1798 217.806 75.1798 217.505C75.1798 217.34 75.0522 216.531 74.9428 215.836C74.8517 215.278 74.7697 214.797 74.7697 214.797C74.7697 214.797 69.3008 212.429 66.5253 210.513C64.4426 209.09 64.9667 198.984 65.3723 193.904C65.5136 192.152 65.6366 191 65.6366 191L87.0929 192.258L90.1008 192.431L91.8235 192.815L92.2792 192.911C92.2792 192.911 93.5097 201.938 94.1022 202.688C94.6947 203.438 94.3118 205.972 94.2389 207.412C94.2361 208.027 94.1689 208.64 94.0384 209.241C94.0384 209.241 94.9225 211.775 94.7129 213.192C94.6189 214.192 94.7163 215.201 95 216.165Z" fill="#626696"/>
<path fill-rule="evenodd" clip-rule="evenodd" d="M72.5 142C77.1944 142 81 138.194 81 133.5C81 128.806 77.1944 125 72.5 125C67.8056 125 64 128.806 64 133.5C64 138.194 67.8056 142 72.5 142Z" fill="#FFD2C6"/>
<path fill-rule="evenodd" clip-rule="evenodd" d="M68.1973 137.031C68.1973 137.031 68.8058 145.234 67.112 147.115C65.4183 148.996 61 152.552 61 152.552L62.3623 158.124L70.0363 159L79 149.531L76.9612 147.048C76.9612 147.048 75.3991 141.808 76.6887 139.19C77.9783 136.573 68.1973 137.031 68.1973 137.031Z" fill="#FFD2C6"/>
<path opacity="0.1" fill-rule="evenodd" clip-rule="evenodd" d="M87 155.255L86.5532 156L83.8722 155.232L82 147.941L82.1162 145.824L82.6658 145C82.6658 145 85.6059 145.074 85.4763 147.857C85.3467 150.3 86.6828 154.325 87 155.255Z" fill="black"/>
<path opacity="0.1" fill-rule="evenodd" clip-rule="evenodd" d="M93 194.936C93 194.936 90.8655 195.409 88.4215 195.726C85.9776 196.043 83.1569 196.203 82 195.534C80.0583 194.392 69.5381 194.718 66.5202 194.834C66.3049 194.834 66.1345 194.834 66 194.856L66.7803 192H87.6368L87.8924 193.227L90.852 193.397L92.5471 193.772C92.8296 194.463 93 194.936 93 194.936Z" fill="black"/>
<path fill-rule="evenodd" clip-rule="evenodd" d="M82.1296 146C82.1296 146 85.1186 146.067 84.9823 148.74C84.846 151.414 86.6131 156.027 86.6131 156.027L85.9317 157.565C85.9317 157.565 84.9823 161.307 85.7273 162.245C86.4723 163.184 89.1933 163.18 87.6306 170.869C87.6306 170.869 87.2945 176.618 88.1076 178.491C88.9207 180.364 88.9207 184.839 90.1427 186.712C91.3647 188.585 93 192.93 93 192.93C93 192.93 84.1646 194.866 81.857 193.529C79.5494 192.193 65.3492 192.872 65.3492 192.872C65.3492 192.872 65.4173 190.53 65.3492 190.266C65.2237 189.675 65.3466 189.059 65.6899 188.558C66.1442 187.924 66.9119 186.855 66.503 185.921C66.0942 184.986 67.5251 183.605 66.7756 182.157C66.0261 180.708 65.1175 180.418 65.2992 179.626C65.4809 178.835 65.0085 177.762 64.4679 177.096C63.9274 176.43 60.2524 169.362 60.2524 169.362L59.6437 166.05C59.6437 166.05 54.9149 162.639 55.0012 161.034C55.0875 159.429 56.791 157.207 56.791 157.207L61.3335 152.813C61.3335 152.813 63.8456 155.495 66.2895 154.552C68.7334 153.609 74.0074 149.138 74.0074 149.138C74.0074 149.138 75.888 148.137 76.0243 147.404C76.1606 146.671 77.3144 147.337 77.3144 147.337C77.3144 147.337 79.0133 146.42 79.354 146.742C79.6947 147.064 81.1711 147.337 81.1711 147.337L82.1296 146Z" fill="#FFCDE5"/>
<path fill-rule="evenodd" clip-rule="evenodd" d="M56.2922 160L54.8791 161.115C54.8791 161.115 53.4438 163.73 53.1071 168.414C52.7704 173.099 51.3351 179.726 51.3351 179.726L48.5532 184.755C48.5532 184.755 43.9683 194.46 43.3747 197.035C42.781 199.609 40.0611 203.967 40.0611 203.967C40.0611 203.967 30.8514 212.332 37.2791 213.819C43.7069 215.305 43.9018 207.16 43.9018 207.16C43.9018 207.16 45.4035 205.485 45.6472 204.347C45.8908 203.21 54.0374 188.642 54.0374 188.642C54.0374 188.642 56.8902 184.724 56.2922 182.651C56.2922 182.651 60 173.833 60 171.621C59.9299 169.78 59.7316 167.947 59.4064 166.135L60 161.514L56.2922 160Z" fill="#FFD2C6"/>
<path opacity="0.1" fill-rule="evenodd" clip-rule="evenodd" d="M76 179C76 179 69.4306 182.777 68.158 182.974C66.8853 183.171 73.7191 182.186 73.7191 182.186L76 179Z" fill="black"/>
<path opacity="0.1" fill-rule="evenodd" clip-rule="evenodd" d="M81 181C81 181 71.9743 184.163 68 183.586C68.0186 183.586 77.8754 185.528 81 181Z" fill="black"/>
<path opacity="0.1" fill-rule="evenodd" clip-rule="evenodd" d="M81.9606 183C81.9606 183 73.8078 187.507 69 186.774C69 186.774 80.2182 188.736 81.9606 187.696L76.9431 186.466C76.9431 186.466 82.5197 183.877 81.9606 183Z" fill="black"/>
<path opacity="0.1" fill-rule="evenodd" clip-rule="evenodd" d="M72.5368 118.199C70.2484 117.749 67.7113 118.019 65.8797 119.448C64.523 120.509 63.6185 122.144 62.0944 122.917C61.2877 123.254 60.4617 123.544 59.6206 123.784C56.5662 125.024 54.7654 128.183 55.2655 131.424C55.5052 132.772 56.1338 133.985 56.4414 135.297C56.9931 137.643 56.5092 140.101 55.9077 142.433C54.2396 148.914 51.7072 155.145 48.3778 160.96C48.1125 161.32 47.98 161.759 48.0025 162.205C48.0818 162.504 48.2375 162.778 48.4547 163C51.5797 166.595 56.6675 167.822 61.4432 167.984C63.2024 168.042 65.0612 167.984 66.5897 167.134C67.5862 166.566 68.4434 165.784 69.0997 164.847C70.7665 162.586 71.5942 159.822 71.4423 157.024C71.3112 154.777 70.5378 152.49 71.1212 150.31C71.1831 150.006 71.3234 149.722 71.5283 149.488C72.0438 148.967 72.885 149.101 73.6267 149.016C75.612 148.787 76.8964 146.706 77.1316 144.738C77.3667 142.77 76.8693 140.779 76.8602 138.798C76.8495 136.173 77.6742 133.613 79.2164 131.482C79.8767 130.583 80.7224 129.685 80.944 128.557C81.2244 127.141 80.3968 126.099 79.6822 124.962C78.5742 123.218 78.0315 121.183 76.3447 119.852C75.2224 119.014 73.9184 118.448 72.5368 118.199Z" fill="black"/>
<path fill-rule="evenodd" clip-rule="evenodd" d="M72.531 118.199C70.2457 117.749 67.7024 118.019 65.8696 119.453C64.512 120.509 63.6069 122.149 62.0818 122.922C61.2763 123.258 60.4512 123.546 59.611 123.785C56.5539 125.024 54.7504 128.183 55.2485 131.424C55.4883 132.772 56.1173 133.986 56.4296 135.302C56.9817 137.648 56.4929 140.102 55.8956 142.434C54.2302 148.915 51.7007 155.146 48.3744 160.963C48.1084 161.32 47.9771 161.759 48.0033 162.203C48.0796 162.504 48.2359 162.778 48.4558 162.998C51.5874 166.593 56.674 167.82 61.4528 167.982C63.2132 168.045 65.0731 167.982 66.6027 167.137C67.5999 166.567 68.4576 165.784 69.1143 164.845C70.7733 162.588 71.5966 159.83 71.4449 157.039C71.3137 154.792 70.5398 152.505 71.1281 150.321C71.1887 150.017 71.3275 149.734 71.5309 149.499C72.0468 148.977 72.8885 149.112 73.6352 149.049C75.6219 148.82 76.9025 146.739 77.1379 144.767C77.3732 142.794 76.8799 140.812 76.8663 138.826C76.8495 136.194 77.6734 133.625 79.2196 131.487C79.8803 130.588 80.722 129.69 80.9437 128.557C81.2243 127.142 80.4007 126.103 79.6857 124.962C78.5769 123.218 78.0339 121.183 76.3414 119.857C75.2197 119.015 73.9145 118.447 72.531 118.199Z" fill="#985C7E"/>
<path opacity="0.1" fill-rule="evenodd" clip-rule="evenodd" d="M69 202C69 202 70.8787 209.858 74 212L69 202Z" fill="black"/>
<g opacity="0.1">
<path fill-rule="evenodd" clip-rule="evenodd" d="M55.0765 133.408C54.9873 133.095 54.8847 132.783 54.7777 132.474C54.8669 132.787 54.9694 133.1 55.0765 133.408Z" fill="black"/>
<path fill-rule="evenodd" clip-rule="evenodd" d="M79.4071 126.411C79.4282 126.663 79.4162 126.917 79.3714 127.166C79.1485 128.297 78.319 129.177 77.6679 130.079C76.1459 132.196 75.3325 134.741 75.3445 137.349C75.3445 139.324 75.8395 141.294 75.6076 143.256C75.3758 145.217 74.1137 147.277 72.156 147.514C71.4336 147.599 70.5908 147.46 70.0868 147.961C69.8848 148.194 69.7465 148.476 69.6855 148.778C69.1191 150.95 69.8728 153.22 69.9976 155.458C70.1484 158.232 69.3387 160.974 67.7055 163.219C67.0572 164.151 66.2123 164.929 65.2305 165.498C63.7009 166.325 61.8903 166.392 60.1512 166.338C55.5222 166.182 50.599 164.998 47.5041 161.553C47.4217 161.756 47.3955 161.979 47.4283 162.196C47.5036 162.495 47.6576 162.768 47.8743 162.987C50.9602 166.561 55.9726 167.781 60.6818 167.942C62.4166 168.005 64.2494 167.942 65.7567 167.102C66.7385 166.533 67.5834 165.755 68.2317 164.823C69.8665 162.578 70.6778 159.837 70.5283 157.062C70.399 154.828 69.6364 152.554 70.2162 150.382C70.2759 150.08 70.4126 149.798 70.6131 149.565C71.1214 149.046 71.9509 149.18 72.6867 149.118C74.6444 148.89 75.9064 146.821 76.1383 144.86C76.3702 142.898 75.8841 140.928 75.8708 138.953C75.8598 136.346 76.6714 133.801 78.1897 131.683C78.8408 130.79 79.6702 129.896 79.8887 128.77C80.0294 127.951 79.8575 127.109 79.4071 126.411Z" fill="black"/>
</g>
<path fill-rule="evenodd" clip-rule="evenodd" d="M234.649 344.022C234.649 344.022 217.099 342.992 219.17 354.932C219.17 354.932 218.759 357.042 220.729 358C220.729 358 220.761 357.104 222.528 357.418C223.157 357.521 223.796 357.551 224.432 357.507C225.294 357.45 226.114 357.121 226.766 356.571C226.766 356.571 231.697 354.592 233.616 346.763C233.616 346.763 235.036 345.057 234.999 344.618L232.038 345.845C232.038 345.845 233.048 347.919 232.25 349.643C232.25 349.643 232.158 345.921 231.586 346.011C231.471 346.011 230.05 346.727 230.05 346.727C230.05 346.727 231.789 350.342 230.475 352.966C230.475 352.966 230.973 348.514 229.506 346.992L227.421 348.169C227.421 348.169 229.455 351.905 228.076 354.95C228.076 354.95 228.431 350.279 226.983 348.461L225.092 349.889C225.092 349.889 227.006 353.566 225.839 356.092C225.839 356.092 225.687 350.655 224.682 350.27C224.682 350.27 223.03 351.681 222.781 352.263C222.781 352.263 224.087 354.95 223.275 356.343C223.275 356.343 222.777 352.72 222.352 352.706C222.352 352.706 220.706 355.107 220.535 356.737C220.614 355.216 221.103 353.741 221.951 352.46C221.002 352.634 220.127 353.075 219.433 353.727C219.433 353.727 219.686 352.03 222.357 351.882C222.357 351.882 223.741 350.064 224.082 349.952C224.082 349.952 221.425 349.737 219.816 350.431C219.816 350.431 221.232 348.828 224.571 349.535L226.416 348.058C226.416 348.058 222.92 347.61 221.434 348.107C221.434 348.107 223.141 346.687 226.919 347.722L228.948 346.539C228.948 346.539 225.968 345.917 224.193 346.141C224.193 346.141 226.065 345.16 229.543 346.226L230.996 345.59C230.996 345.59 228.81 345.173 228.173 345.111C227.537 345.048 227.5 344.873 227.5 344.873C228.883 344.65 230.303 344.805 231.6 345.321C231.6 345.321 234.699 344.21 234.649 344.022Z" fill="#4D7CFE"/>
<path opacity="0.1" fill-rule="evenodd" clip-rule="evenodd" d="M223 361C229.627 361 235 360.105 235 359C235 357.895 229.627 357 223 357C216.373 357 211 357.895 211 359C211 360.105 216.373 361 223 361Z" fill="#4D7CFE"/>
<path fill-rule="evenodd" clip-rule="evenodd" d="M368.649 329.022C368.649 329.022 351.118 327.997 353.166 339.933C353.166 339.933 352.756 342.042 354.726 343C354.726 343 354.758 342.105 356.525 342.413C357.156 342.516 357.797 342.546 358.435 342.503C359.296 342.447 360.115 342.118 360.765 341.567C360.765 341.567 365.701 339.593 367.615 331.767C367.615 331.767 369.036 330.056 368.999 329.618L366.019 330.871C366.019 330.871 367.029 332.944 366.236 334.668C366.236 334.668 366.139 330.943 365.572 331.032C365.456 331.032 364.031 331.749 364.031 331.749C364.031 331.749 365.77 335.362 364.46 337.99C364.46 337.99 364.958 333.54 363.486 332.013L361.401 333.195C361.401 333.195 363.436 336.924 362.056 339.969C362.056 339.969 362.412 335.299 360.963 333.481L359.076 334.901C359.076 334.901 360.986 338.581 359.819 341.106C359.819 341.106 359.667 335.666 358.666 335.259C358.666 335.259 357.014 336.674 356.76 337.256C356.76 337.256 358.07 339.942 357.258 341.33C357.258 341.33 356.76 337.712 356.336 337.694C356.336 337.694 354.689 340.094 354.518 341.724C354.598 340.203 355.088 338.728 355.939 337.448C354.989 337.623 354.112 338.063 353.416 338.715C353.416 338.715 353.674 337.023 356.345 336.871C356.345 336.871 357.729 335.053 358.07 334.941C358.07 334.941 355.413 334.726 353.798 335.42C353.798 335.42 355.219 333.817 358.555 334.547L360.4 333.069C360.4 333.069 356.899 332.622 355.418 333.119C355.418 333.119 357.125 331.704 360.903 332.734L362.933 331.556C362.933 331.556 359.948 330.929 358.172 331.158C358.172 331.158 360.045 330.177 363.528 331.238L364.981 330.607C364.981 330.607 362.794 330.191 362.153 330.123C361.512 330.056 361.48 329.886 361.48 329.886C362.865 329.663 364.286 329.818 365.585 330.334C365.585 330.334 368.704 329.21 368.649 329.022Z" fill="#4D7CFE"/>
<path opacity="0.1" fill-rule="evenodd" clip-rule="evenodd" d="M357 346C363.627 346 369 345.105 369 344C369 342.895 363.627 342 357 342C350.373 342 345 342.895 345 344C345 345.105 350.373 346 357 346Z" fill="#4D7CFE"/>
<path opacity="0.1" fill-rule="evenodd" clip-rule="evenodd" d="M382 202C401.33 202 417 199.538 417 196.5C417 193.462 401.33 191 382 191C362.67 191 347 193.462 347 196.5C347 199.538 362.67 202 382 202Z" fill="#4D7CFE"/>
<path fill-rule="evenodd" clip-rule="evenodd" d="M422.365 74.2612C422.365 74.2612 423.793 79.0548 422.365 83.8484L422.518 88.0106C422.518 88.0106 421.005 91.8572 421.55 92.8042C421.55 92.8042 421.28 95.6406 417.613 97.5978C413.946 99.5549 409.806 104.213 409.806 104.213C409.078 105.387 407.895 106.204 406.54 106.468C406.481 106.914 406.481 107.18 406.481 107.18L406.287 107.262C406.314 107.363 406.342 107.465 406.37 107.57C406.386 107.627 406.402 107.685 406.418 107.744C406.517 108.136 406.616 108.547 406.711 108.975C407.315 111.735 407.679 115.162 406.454 117.092C406.287 117.355 406.137 117.627 406.004 117.908C404.35 121.417 405.481 125.823 405.481 125.823C405.481 125.823 404.035 135.816 403.4 137.434C402.949 138.607 403.364 140.208 403.643 141.042C403.779 141.443 403.849 141.863 403.85 142.287V145.831C403.85 145.831 404.58 148.803 404.215 149.61C403.85 150.417 404.846 152.672 404.846 152.672C404.846 152.672 407.188 162.489 406.197 164.103C405.206 165.718 405.296 169.325 405.296 169.325C405.296 169.325 403.395 183.368 402.67 183.905C402.077 184.432 401.56 185.039 401.134 185.708C401.134 185.708 402.422 188.906 401.647 190.218C401.629 190.251 401.608 190.283 401.584 190.313C401.724 190.682 402.044 191.553 402.22 192.229C402.274 192.45 402.332 192.73 402.382 193.036C402.479 193.632 402.526 194.236 402.521 194.84L402.575 194.89L402.517 194.944C402.512 195.211 402.472 195.476 402.4 195.733C402.129 196.545 400.093 196.545 400.093 196.545C400.093 196.545 396.39 197.519 394.764 198.348C393.138 199.178 392.03 198.727 392.03 198.727C388.864 199.469 384.935 198.516 382.93 198.03C382.57 197.942 382.272 197.87 382.051 197.825C380.605 197.532 380.024 195.665 381.826 195.3C382.056 195.256 382.28 195.189 382.497 195.102C383.386 194.709 384.154 194.086 384.723 193.298C385.931 192.139 387.204 191.049 388.534 190.033C389.448 189.358 390.254 188.545 390.921 187.625C391.294 187.271 391.765 187.038 392.273 186.958C392.227 186.876 392.188 186.792 392.156 186.705C391.967 186.149 392.133 185.535 392.575 185.149C392.268 184.526 392.441 183.772 392.989 183.345L393.66 182.827L393.503 182.646C393.088 182.163 393.034 181.466 393.367 180.924C393.66 180.432 393.944 179.571 394.021 178.056C394.205 174.547 395.106 173.195 395.106 173.195L394.561 157.172C394.613 156.303 394.613 155.431 394.561 154.561C394.503 153.92 393.775 153.971 393.199 154.011C392.887 154.033 392.62 154.052 392.525 153.957C392.429 153.861 392.361 153.636 392.281 153.369C392.136 152.888 391.951 152.273 391.484 152.041C391.152 151.752 390.922 151.363 390.831 150.931C390.511 149.921 390.448 148.847 390.647 147.806C390.74 147.303 390.619 146.783 390.313 146.372C389.498 145.29 389.768 141.601 389.768 141.601L388.516 133.885C386.529 140.433 383.997 148.32 383.159 148.893C382.339 149.38 381.853 150.279 381.894 151.233C383.069 152.686 382.619 158.9 382.619 158.9C382.619 158.9 382.623 176.103 381.772 177.262C380.92 178.421 379.272 182.029 379.272 182.029C379.272 182.029 384.096 186.299 380.335 188.468L380.173 190.272C380.195 190.296 380.217 190.322 380.236 190.349C380.592 190.782 380.841 191.293 380.961 191.841L380.988 191.868C381.056 192.446 380.803 193.009 379.74 193.248C377.204 193.807 368.338 193.767 368.338 193.767L363.383 194.551C363.383 194.551 354.873 195.381 353.923 192.748C352.972 190.114 354.671 190.272 354.671 190.272H354.738L358.288 189.983C358.288 189.983 362.788 188.252 364.442 187.057C365.747 186.049 366.98 184.951 368.131 183.769C368.453 183.72 368.782 183.782 369.064 183.945L369.217 183.792L369.465 183.548L368.528 182.11C367.595 180.486 371.262 177.424 371.262 177.424C371.262 177.424 370.298 173.677 370.658 173.492C371.019 173.307 371.28 169.885 371.28 169.885C371.28 169.885 370.388 157.466 370.749 156.298C370.847 155.739 370.68 155.166 370.298 154.746C369.803 154.043 369.558 153.193 369.604 152.334C369.684 151.593 369.47 150.85 369.01 150.264C367.924 149.091 369.01 144.054 369.01 144.054L369.906 137.403V126.675C369.917 124.67 370.293 122.683 371.014 120.813C371.478 119.501 371.781 118.138 371.915 116.754C371.731 116.817 371.613 116.844 371.613 116.844C371.735 116.777 371.843 116.688 371.933 116.583C371.939 116.526 371.947 116.469 371.955 116.412C371.971 116.299 371.987 116.186 371.987 116.069C372.276 112.736 374.037 109.498 375.276 107.591C375.56 106.477 375.244 101.823 375.244 101.823C373.825 99.3925 375.177 95.8842 375.177 95.8842C375.177 95.8842 376.6 79.2758 377.483 76.9804C378.366 74.6851 378.772 60.4532 376.668 60.575C374.564 60.6967 360.991 53.8108 360.991 53.8108C360.991 53.8108 361.333 53.2696 356.851 51.4478C352.369 49.626 345.855 43.9531 345.855 43.9531L336.845 33.1529C336.879 33.1598 336.914 33.1598 336.948 33.1529L336.764 33.0942C335.564 32.716 334.536 31.6383 333.257 30.2987C332.874 29.8973 332.468 29.4724 332.029 29.0357C330.363 27.3856 330.791 26.7643 332.799 23.8477C333.376 23.0102 334.083 21.9834 334.908 20.6887C335.039 20.3759 335.304 20.1391 335.629 20.0445C335.955 19.95 336.306 20.0077 336.584 20.2017C336.813 20.3508 337.015 20.5245 337.191 20.6763C337.527 20.965 337.77 21.1739 337.935 20.9818C338.242 20.6094 338.398 21.0622 338.592 21.6226C338.651 21.7951 338.714 21.9778 338.786 22.1497C339.492 23.9587 340.081 25.8115 340.548 27.6964C340.556 27.7283 340.564 27.7598 340.573 27.7911C340.596 27.8792 340.618 27.9649 340.638 28.0481L340.724 27.8903L345.476 31.6692L349.954 35.3174C349.954 35.3174 359.878 40.1065 361.086 41.324C361.974 42.2203 362.419 42.2735 363.033 42.3472C363.254 42.3735 363.496 42.4026 363.788 42.4739C364.439 42.6328 364.747 42.9612 364.958 43.187C365.107 43.3457 365.208 43.4537 365.347 43.4164C365.501 43.3754 365.711 43.5679 365.939 43.7771C366.212 44.0275 366.511 44.3018 366.771 44.2281C367.072 44.1428 367.59 44.3266 368.101 44.5079C368.4 44.614 368.697 44.7193 368.947 44.7693C369.622 44.9046 374.442 46.9293 374.442 46.9293C377.429 45.4412 385.506 46.05 385.506 46.05C385.506 46.05 388.151 44.4987 388.899 46.05C389.316 46.9491 390.214 47.5268 391.205 47.5336L394.426 46.1807L394.399 45.9237V45.8696C394.372 45.6667 394.345 45.4773 394.309 45.2924C390.976 43.9718 388.525 41.0673 387.782 37.5566C387.039 34.046 388.103 30.3963 390.615 27.8362L390.894 27.5656C390.563 27.4116 390.251 27.2178 389.966 26.9884C389.875 26.9292 389.806 26.8422 389.768 26.7404C389.751 26.6668 389.762 26.5896 389.8 26.5239C389.854 26.3466 389.984 26.2028 390.155 26.1316C390.552 25.9158 390.965 25.815 391.374 25.7154C391.972 25.5694 392.559 25.4262 393.066 24.9276C393.263 24.7337 393.416 24.5 393.516 24.2421C393.611 23.9644 393.611 23.6631 393.516 23.3853C393.421 23.1259 393.236 22.8995 393.055 22.6764C392.792 22.3527 392.534 22.0361 392.561 21.6357H392.593C392.59 21.5966 392.59 21.5575 392.593 21.5184C393.277 21.8028 394.009 21.9557 394.75 21.9694L395.133 21.3786C395.066 21.2478 394.985 21.2478 394.908 21.2478L394.823 20.8691H394.881L394.854 20.7473L397.242 21.3876C397.415 21.4624 397.614 21.4507 397.778 21.3561C397.868 21.2475 397.931 21.1193 397.962 20.9818C398.242 20.4974 398.826 20.2799 399.354 20.4632C399.861 20.6541 400.337 20.9169 400.769 21.2433C402.143 22.084 403.786 22.2753 405.404 22.4636C405.6 22.4864 405.795 22.5092 405.99 22.533C407.792 22.754 409.689 23.1508 410.945 24.4451C411.984 25.5128 412.372 26.958 412.764 28.4173C413.006 29.3185 413.249 30.2251 413.648 31.0514C413.846 31.3975 414.008 31.7632 414.13 32.1427C414.236 32.713 414.227 33.2987 414.103 33.8654L414.091 33.9444C413.838 35.5797 413.576 37.2791 412.689 38.6815L412.783 38.5687C412.677 38.759 412.56 38.9428 412.432 39.1189C412.075 39.6238 411.636 40.0758 411.2 40.5257C410.86 40.8754 410.522 41.2238 410.225 41.5946C410.257 41.5359 410.292 41.4796 410.328 41.4222C410.341 41.4002 410.355 41.3781 410.369 41.3556C409.982 41.7884 409.676 42.288 409.468 42.8302C409.361 43.1293 409.293 43.4466 409.225 43.762C409.142 44.1504 409.059 44.5361 408.905 44.882C408.81 45.1296 408.673 45.3586 408.499 45.5584C408.049 46.0091 407.415 46.2256 406.783 46.1447C407.071 46.9142 407.424 47.658 407.837 48.3678L407.981 48.449C408.133 48.4618 408.283 48.4844 408.432 48.5166C409.211 48.6655 411.914 50.9833 411.914 50.9833L416.734 55.2358C423.996 60.9087 422.365 69.7518 422.365 69.7518V74.2612ZM406.522 94.608L410.441 90.0579H410.423C410.423 90.0579 410.558 88.1008 411.914 88.1143C411.914 88.1143 409.387 86.0896 410.288 84.872C410.572 84.4842 410.684 83.6635 410.711 82.7255L407.472 89.9903C407.472 89.9903 405.504 93.1649 406.522 94.5809C406.52 94.5899 406.52 94.599 406.522 94.608Z" fill="url(#paint0_linear)"/>
<path fill-rule="evenodd" clip-rule="evenodd" d="M341 30.8705L338.955 35C338.306 34.9446 337.665 34.806 337.049 34.5875C335.07 33.9687 333.441 32.5002 332.571 30.5521C330.742 26.3464 333.77 23.6293 335.181 22.8312C336.591 22.0331 337.898 21.1139 338.955 23.7279C339.621 25.516 340.177 27.346 340.62 29.207C340.853 30.2024 341 30.8705 341 30.8705Z" fill="#CC818C"/>
<path fill-rule="evenodd" clip-rule="evenodd" d="M409 52.0245L405.559 57.0099C405.559 57.0099 389.282 64.5475 392.396 55.6875C393.758 51.7865 393.926 48.9302 393.68 46.9554C393.68 46.9554 393.68 46.9202 393.68 46.9025C393.363 44.4341 392.405 43.3762 392.405 43.3762C392.405 43.3762 408.269 35.4948 405.909 40.8857C405.428 42.0067 405.235 43.2245 405.346 44.4341C405.542 46.1764 406.126 47.8564 407.057 49.3577C407.611 50.3076 408.262 51.201 409 52.0245Z" fill="#CC818C"/>
<path fill-rule="evenodd" clip-rule="evenodd" d="M404.617 152.395C404.617 152.395 406.916 162.086 405.953 163.686C404.991 165.287 405.062 168.841 405.062 168.841C405.062 168.841 403.204 182.715 402.496 183.249C401.915 183.774 401.41 184.377 400.994 185.042C400.994 185.042 402.255 188.179 401.497 189.479C401.383 189.68 401.206 189.838 400.994 189.928C399.809 190.43 395.433 188.202 392.942 186.835C392.628 186.666 392.392 186.382 392.282 186.041C392.093 185.495 392.253 184.887 392.688 184.508C392.386 183.889 392.555 183.142 393.093 182.715L393.748 182.204L393.597 182.025C393.191 181.546 393.137 180.859 393.463 180.321C393.748 179.837 394.025 178.977 394.1 177.493C394.279 174.023 395.161 172.692 395.161 172.692L394.631 156.864C394.679 156.005 394.679 155.145 394.631 154.286C394.542 153.309 392.906 153.955 392.643 153.686C392.38 153.417 392.331 152.153 391.627 151.794C391.301 151.51 391.075 151.126 390.986 150.7C390.674 149.701 390.611 148.641 390.803 147.612C390.895 147.115 390.777 146.601 390.478 146.195C389.68 145.128 389.948 141.484 389.948 141.484L388.727 133.864C386.784 140.332 384.311 148.123 383.495 148.688C382.691 149.171 382.216 150.059 382.257 151.001C383.406 152.422 382.965 158.558 382.965 158.558C382.965 158.558 382.965 175.538 382.136 176.695C381.307 177.852 379.694 181.406 379.694 181.406C379.694 181.406 384.431 185.647 380.706 187.785L380.666 187.807C376.865 189.941 369 183.988 369 183.988L369.82 183.163L370.061 182.921L369.169 181.496C368.256 179.896 371.843 176.874 371.843 176.874C371.843 176.874 370.889 173.14 371.241 172.961C371.593 172.782 371.843 169.402 371.843 169.402C371.843 169.402 370.974 157.133 371.326 155.981C371.432 155.432 371.277 154.865 370.907 154.448C370.426 153.752 370.187 152.914 370.23 152.067C370.308 151.336 370.1 150.603 369.651 150.023C368.59 148.867 369.651 143.887 369.651 143.887L370.542 137.306V126.826C370.541 124.816 370.904 122.824 371.611 120.945C372.145 119.418 372.469 117.826 372.574 116.211C372.863 112.84 374.664 109.563 375.876 107.694C376.517 106.708 376.994 106.116 376.994 106.116L405.276 105C405.276 105 405.722 106.269 406.167 108.03C406.265 108.416 406.363 108.819 406.452 109.245C407.045 111.979 407.402 115.364 406.203 117.273C406.035 117.53 405.886 117.798 405.757 118.076C404.14 121.541 405.245 125.893 405.245 125.893C405.245 125.893 403.832 135.755 403.213 137.364C402.767 138.499 403.177 140.081 403.454 140.906C403.585 141.302 403.652 141.716 403.654 142.134V145.635C403.654 145.635 404.363 148.567 404.011 149.369C403.659 150.171 404.617 152.395 404.617 152.395Z" fill="#444053"/>
<path opacity="0.1" fill-rule="evenodd" clip-rule="evenodd" d="M406.155 118.182C405.98 118.445 405.822 118.718 405.682 119L403.99 118.909C404.151 118.068 403 110.187 403 110.187L406.411 110C407.046 112.805 407.43 116.259 406.155 118.182Z" fill="black"/>
<path fill-rule="evenodd" clip-rule="evenodd" d="M406.154 117.182C405.976 117.443 405.818 117.717 405.681 118L403.985 117.909C404.151 117.068 403 109.183 403 109.183L406.405 109C407.05 111.787 407.428 115.236 406.154 117.182Z" fill="#444053"/>
<path opacity="0.05" fill-rule="evenodd" clip-rule="evenodd" d="M406.154 117.182C405.976 117.443 405.818 117.717 405.681 118L403.985 117.909C404.151 117.068 403 109.183 403 109.183L406.405 109C407.05 111.787 407.428 115.236 406.154 117.182Z" fill="black"/>
<path opacity="0.1" fill-rule="evenodd" clip-rule="evenodd" d="M401 190.478C400.888 190.679 400.716 190.837 400.508 190.927C399.351 191.431 395.077 189.196 392.644 187.825C392.338 187.655 392.107 187.37 392 187.029C393.384 186.768 394.294 188.378 394.294 188.378C394.761 188.074 395.327 187.979 395.863 188.113C396.399 188.248 396.86 188.601 397.14 189.093C398.328 190.891 400.874 190.136 400.874 190.136C400.874 190.136 400.926 190.257 401 190.478Z" fill="black"/>
<path fill-rule="evenodd" clip-rule="evenodd" d="M401.88 195.718C401.616 196.521 399.653 196.521 399.653 196.521C399.653 196.521 396.132 197.555 394.565 198.358C392.998 199.162 391.924 198.738 391.924 198.738C388.319 199.591 383.693 198.115 382.298 197.835C380.903 197.555 380.352 195.686 382.078 195.329C382.299 195.284 382.516 195.216 382.725 195.126C383.586 194.733 384.328 194.109 384.873 193.321C386.039 192.17 387.266 191.085 388.548 190.071C389.433 189.4 390.211 188.593 390.855 187.678C392.906 185.818 394.376 188.373 394.376 188.373C394.848 188.068 395.421 187.973 395.963 188.108C396.505 188.243 396.971 188.598 397.254 189.091C398.456 190.897 401.031 190.138 401.031 190.138C401.031 190.138 401.471 191.348 401.709 192.219C401.762 192.44 401.819 192.72 401.867 193.027C402.04 193.915 402.044 194.828 401.88 195.718Z" fill="#FF748F"/>
<path fill-rule="evenodd" clip-rule="evenodd" d="M396 190.248C396.137 190.248 396.247 190.137 396.247 190C396.247 189.863 396.137 189.752 396 189.752C395.863 189.752 395.752 189.863 395.752 190C395.752 190.137 395.863 190.248 396 190.248Z" fill="#575988"/>
<path fill-rule="evenodd" clip-rule="evenodd" d="M394 192.248C394.137 192.248 394.247 192.137 394.247 192C394.247 191.863 394.137 191.752 394 191.752C393.863 191.752 393.752 191.863 393.752 192C393.752 192.137 393.863 192.248 394 192.248Z" fill="#575988"/>
<path fill-rule="evenodd" clip-rule="evenodd" d="M392 193.248C392.137 193.248 392.247 193.137 392.247 193C392.247 192.863 392.137 192.752 392 192.752C391.863 192.752 391.752 192.863 391.752 193C391.752 193.137 391.863 193.248 392 193.248Z" fill="#575988"/>
<path fill-rule="evenodd" clip-rule="evenodd" d="M393 193.248C393.137 193.248 393.247 193.137 393.247 193C393.247 192.863 393.137 192.752 393 192.752C392.863 192.752 392.752 192.863 392.752 193C392.752 193.137 392.863 193.248 393 193.248Z" fill="#575988"/>
<path fill-rule="evenodd" clip-rule="evenodd" d="M395 191.248C395.137 191.248 395.247 191.137 395.247 191C395.247 190.863 395.137 190.752 395 190.752C394.863 190.752 394.752 190.863 394.752 191C394.752 191.137 394.863 191.248 395 191.248Z" fill="#575988"/>
<path fill-rule="evenodd" clip-rule="evenodd" d="M401.889 195.703C401.625 196.51 399.661 196.51 399.661 196.51C399.661 196.51 396.138 197.548 394.57 198.355C393.003 199.163 391.928 198.736 391.928 198.736C388.322 199.593 383.694 198.111 382.298 197.829C380.902 197.548 380.352 195.671 382.078 195.313C382.3 195.267 382.517 195.198 382.725 195.109C384.25 195.644 385.841 195.949 387.45 196.016C391.008 196.17 393.826 196.016 393.826 196.016L397.428 194.823C398.11 194.396 398.867 194.112 399.656 193.989C400.45 193.823 401.2 193.486 401.858 193C402.036 193.891 402.047 194.808 401.889 195.703Z" fill="#DCE6F2"/>
<path opacity="0.5" fill-rule="evenodd" clip-rule="evenodd" d="M392.615 198C392.409 198 392.202 197.981 392 197.944L392.054 197.71C392.808 197.814 393.579 197.719 394.271 197.435C394.602 197.319 394.932 197.181 395.253 197.032C395.575 196.883 396.023 196.71 396.421 196.577L396.787 196.464C396.991 196.403 397.195 196.343 397.389 196.266C397.502 196.226 397.611 196.177 397.719 196.133C397.983 196.009 398.263 195.915 398.552 195.851C398.702 195.825 398.853 195.808 399.005 195.798C399.141 195.79 399.277 195.775 399.412 195.754C399.682 195.696 399.943 195.609 400.19 195.496C400.456 195.375 400.737 195.283 401.027 195.222L401.226 195.19C401.438 195.185 401.641 195.119 401.805 195L402 195.165C401.796 195.323 401.537 195.416 401.267 195.427L401.081 195.456C400.812 195.514 400.55 195.601 400.303 195.714C400.037 195.834 399.756 195.926 399.466 195.988C399.317 196.014 399.166 196.03 399.014 196.036C398.872 196.046 398.732 196.062 398.593 196.085C398.325 196.145 398.067 196.235 397.824 196.351L397.484 196.488C397.276 196.565 397.068 196.629 396.86 196.69L396.502 196.802C396.113 196.931 395.729 197.093 395.353 197.246C394.977 197.399 394.697 197.524 394.357 197.649C393.807 197.862 393.216 197.981 392.615 198Z" fill="#575988"/>
<path opacity="0.1" fill-rule="evenodd" clip-rule="evenodd" d="M393 153C393 153 394.942 150.309 398.259 150.354C401.577 150.399 403 150 403 150C403 150 400.875 151.197 399.404 151.345C397.934 151.493 393 153 393 153Z" fill="black"/>
<path opacity="0.1" fill-rule="evenodd" clip-rule="evenodd" d="M395 154C395 154 396.511 153.134 397.376 153.101C398.241 153.067 399 153 399 153C398.595 153.236 398.147 153.416 397.672 153.534C396.933 153.701 395 154 395 154Z" fill="black"/>
<path opacity="0.1" fill-rule="evenodd" clip-rule="evenodd" d="M395 155C395 155 397.973 155.232 398 156L395 155Z" fill="black"/>
<path opacity="0.1" fill-rule="evenodd" clip-rule="evenodd" d="M372 117C372.124 117.024 374.259 114.517 374.409 113.525C374.528 112.9 374.862 112.352 375.34 112C375.34 112 376.72 112.615 375.49 114.498C374.259 116.38 372 117 372 117Z" fill="black"/>
<path opacity="0.1" fill-rule="evenodd" clip-rule="evenodd" d="M406.758 40.9623C406.23 42.2026 405.763 42.2945 405.865 43.498C405.249 44.1433 404.542 44.6958 403.766 45.138C402.124 46.1073 400.339 48 398.295 48C396.928 48.0029 395.572 47.7488 394.299 47.2512C393.976 44.6787 393 43.5761 393 43.5761C393 43.5761 409.153 35.344 406.758 40.9623Z" fill="black"/>
<path fill-rule="evenodd" clip-rule="evenodd" d="M408 36.5C408 42.299 403.299 47 397.5 47C391.701 47 387 42.299 387 36.5C387 30.701 391.701 26 397.5 26C400.285 25.9988 402.957 27.1047 404.926 29.0741C406.895 31.0435 408.001 33.7149 408 36.5Z" fill="#CC818C"/>
<path opacity="0.1" fill-rule="evenodd" clip-rule="evenodd" d="M409 52.0518L405.559 57.0201C405.559 57.0201 389.282 64.5319 392.396 55.7023C393.758 51.8146 393.926 48.968 393.68 47H393.708C393.9 47.6523 394.008 48.3251 394.03 49.0031C394.08 50.3562 394.116 52.0782 397.593 52.6404C403.39 53.5849 406.503 50.075 407.048 49.3853C407.605 50.3353 408.258 51.2287 409 52.0518Z" fill="black"/>
<path opacity="0.1" fill-rule="evenodd" clip-rule="evenodd" d="M341 30.7558L339.019 35C338.39 34.9431 337.769 34.8007 337.171 34.576L337 34.3502C337.811 34.6912 340.544 29 340.544 29L340.632 29.0783C340.858 30.0691 341 30.7558 341 30.7558Z" fill="black"/>
<path opacity="0.1" fill-rule="evenodd" clip-rule="evenodd" d="M406 107.702C399.05 110.367 375 108.102 375 108.102C375.075 107.877 375.116 107.644 375.123 107.409C375.776 106.527 376.262 105.998 376.262 105.998L405.074 105C405.074 105 405.542 106.126 406 107.702Z" fill="black"/>
<path fill-rule="evenodd" clip-rule="evenodd" d="M394.465 47.0851L391.305 48.4327C390.33 48.4219 389.448 47.8483 389.04 46.9593C388.311 45.423 385.715 46.9593 385.715 46.9593C385.715 46.9593 377.788 46.3574 374.861 47.8308C374.861 47.8308 370.135 45.8228 369.491 45.6926C368.846 45.5623 367.826 45.0233 367.36 45.158C366.895 45.2928 366.295 44.2866 365.964 44.3539C365.633 44.4213 365.494 43.6846 364.429 43.4196C363.363 43.1546 362.965 43.487 361.766 42.2831C360.566 41.0792 350.85 36.3356 350.85 36.3356L346.454 32.7419L341.795 29C341.795 29 338.864 34.5432 338 34.2108L346.853 44.902C346.853 44.902 353.244 50.5171 357.639 52.3184C362.034 54.1197 361.699 54.6588 361.699 54.6588C361.699 54.6588 375.018 61.4733 377.081 61.343C379.145 61.2127 378.746 75.3089 377.878 77.5819C377.01 79.8549 375.618 96.2914 375.618 96.2914C375.618 96.2914 374.275 99.7638 375.68 102.172C375.68 102.172 376.016 107.113 375.68 107.984C375.68 107.984 399.54 110.545 406.307 107.535C406.307 107.535 407.305 96.4441 406.307 95.0381C405.309 93.6321 407.243 90.4966 407.243 90.4966L411.472 80.9195L421.847 70.4215C421.847 70.4215 423.444 61.6664 416.324 56.0468L411.593 51.8377C411.593 51.8377 408.948 49.5423 408.178 49.3985C407.408 49.2548 407.69 49.3985 407.69 49.3985C407.69 49.3985 404.602 53.8906 398.291 52.8395C394.863 52.26 394.827 50.5081 394.778 49.12C394.757 48.4314 394.652 47.748 394.465 47.0851Z" fill="#67647E"/>
<path opacity="0.1" fill-rule="evenodd" clip-rule="evenodd" d="M407 83C407 83 391.998 83.5771 389 88C389 88 392.887 86.2773 396.361 86.7812C399.836 87.2851 407 83 407 83Z" fill="black"/>
<path opacity="0.1" fill-rule="evenodd" clip-rule="evenodd" d="M391 98.9421C391 98.9421 398.022 99.3381 399.511 98.0591C401 96.7801 401 96 401 96L391 98.9421Z" fill="black"/>
<path opacity="0.1" fill-rule="evenodd" clip-rule="evenodd" d="M408.566 69C408.566 69 401.931 75.981 410 79L408.566 69Z" fill="black"/>
<path opacity="0.1" fill-rule="evenodd" clip-rule="evenodd" d="M374 55C374 55 376 59.6863 377 60L374 55Z" fill="black"/>
<path opacity="0.1" fill-rule="evenodd" clip-rule="evenodd" d="M367 54C367 54 372.053 58.5574 373 59C373 59 367.756 54 367 54Z" fill="black"/>
<path opacity="0.1" fill-rule="evenodd" clip-rule="evenodd" d="M388 49C388 49 382.729 56.4564 386.16 61C386.133 61 384.238 55.6148 388 49Z" fill="black"/>
<path fill-rule="evenodd" clip-rule="evenodd" d="M401 107.373L399.396 108.884L399.171 109.095L397.315 110.854C397.178 110.955 397.049 111.056 396.917 111.148C389.354 116.582 387.837 108.328 387.837 108.328C387.837 108.328 384.496 110.514 384.02 108.737C383.543 106.959 391.811 104.433 393.016 104.571C393.126 104.582 393.237 104.582 393.346 104.571C393.942 104.471 394.516 104.267 395.042 103.969C395.166 103.905 395.29 103.841 395.409 103.772C395.83 103.536 396.238 103.279 396.632 103L401 107.373Z" fill="#CC818C"/>
<path opacity="0.1" fill-rule="evenodd" clip-rule="evenodd" d="M408.987 36.7555C408.987 40.5484 407.039 44.0611 403.86 46C403.716 45.7487 403.588 45.4874 403.479 45.2179C403.102 44.3084 402.871 43.3581 402.494 42.4577C402.069 41.4742 401.467 40.5812 400.721 39.8249C400.602 39.6783 400.45 39.5642 400.277 39.4929C399.934 39.4457 399.586 39.5442 399.315 39.7658C398.871 40.0762 398.375 40.2998 397.851 40.4251C397.318 40.5483 396.761 40.3757 396.384 39.9704C395.976 39.4702 396.033 38.7335 396.153 38.0924C396.406 36.6918 396.836 35.3186 396.836 33.8953C396.836 32.472 396.313 30.935 395.106 30.2302C394.042 29.6118 392.721 29.7755 391.537 29.4345C391.353 29.3845 391.174 29.3206 391 29.2435C393.98 26.1134 398.512 25.145 402.463 26.7941C406.414 28.4431 408.999 32.3811 409 36.7555H408.987Z" fill="black"/>
<path fill-rule="evenodd" clip-rule="evenodd" d="M390.355 27.5622C390.162 27.6638 389.952 27.8451 390.01 28.0573C390.046 28.1568 390.113 28.2422 390.203 28.3004C390.696 28.6947 391.267 28.9837 391.879 29.1492C393.076 29.4675 394.417 29.3172 395.493 29.9229C396.708 30.6081 397.246 32.0979 397.241 33.4816C397.237 34.8653 396.793 36.2048 396.546 37.562C396.43 38.1897 396.367 38.8882 396.784 39.3922C397.166 39.7847 397.729 39.9522 398.268 39.8342C398.795 39.7139 399.295 39.4981 399.743 39.1976C400.016 38.9813 400.368 38.8854 400.716 38.9324C400.898 38.9984 401.061 39.1077 401.191 39.2507C401.947 39.9862 402.556 40.8562 402.984 41.8147C403.37 42.6989 403.603 43.6184 403.979 44.4982C404.314 45.4025 404.945 46.171 405.772 46.682C406.631 47.1931 407.73 47.0794 408.462 46.4035C409.081 45.7315 409.063 44.7148 409.359 43.8527C409.888 42.3629 411.367 41.4257 412.291 40.1393C413.331 38.6937 413.636 36.8679 413.9 35.1173C414.023 34.5648 414.033 33.9935 413.927 33.4374C413.805 33.0698 413.647 32.7145 413.456 32.3764C412.425 30.2721 412.448 27.6241 410.803 25.9397C409.565 24.6798 407.691 24.2952 405.925 24.083C404.159 23.8708 402.307 23.7382 400.792 22.8231C400.367 22.5063 399.899 22.2503 399.402 22.0627C398.883 21.8846 398.308 22.0963 398.035 22.5667C398.003 22.7015 397.94 22.8272 397.851 22.9336C397.692 23.024 397.499 23.0355 397.331 22.9646L394.982 22.3412L395.251 23.5083C394.397 23.5418 393.546 23.3909 392.758 23.0662C392.713 23.7249 393.466 24.1538 393.699 24.7682C393.873 25.3437 393.699 25.9661 393.251 26.373C392.381 27.2085 391.314 27.0449 390.355 27.5622Z" fill="#585268"/>
<path opacity="0.1" fill-rule="evenodd" clip-rule="evenodd" d="M380 187.481L379.905 188.526L379.864 188.548C375.998 190.637 368 184.808 368 184.808L368.834 184C369.109 184.297 369.24 184.692 369.196 185.089L370.832 185.176L372.785 187.222C372.785 187.222 378.074 187.815 379.506 187.481H380Z" fill="black"/>
<path fill-rule="evenodd" clip-rule="evenodd" d="M379.76 193.569C377.263 194.131 368.514 194.09 368.514 194.09L363.628 194.881C363.628 194.881 355.221 195.699 354.285 193.053C353.349 190.407 355.018 190.562 355.018 190.562H355.081L358.581 190.274C358.581 190.274 363.021 188.529 364.649 187.327C365.935 186.311 367.15 185.206 368.284 184.018C368.284 184.018 369.746 183.73 369.719 185.448L371.343 185.54L373.282 187.665C373.282 187.665 378.532 188.286 379.953 187.939H380.444L380.219 190.567L380.282 190.649C380.592 191.056 381.991 193.062 379.76 193.569Z" fill="#FF748F"/>
<path fill-rule="evenodd" clip-rule="evenodd" d="M371 187.248C371.137 187.248 371.247 187.137 371.247 187C371.247 186.863 371.137 186.752 371 186.752C370.863 186.752 370.752 186.863 370.752 187C370.752 187.137 370.863 187.248 371 187.248Z" fill="#575988"/>
<path fill-rule="evenodd" clip-rule="evenodd" d="M364 189.248C364.137 189.248 364.247 189.137 364.247 189C364.247 188.863 364.137 188.752 364 188.752C363.863 188.752 363.752 188.863 363.752 189C363.752 189.137 363.863 189.248 364 189.248Z" fill="#575988"/>
<path fill-rule="evenodd" clip-rule="evenodd" d="M361 190.248C361.137 190.248 361.247 190.137 361.247 190C361.247 189.863 361.137 189.752 361 189.752C360.863 189.752 360.752 189.863 360.752 190C360.752 190.137 360.863 190.248 361 190.248Z" fill="#575988"/>
<path fill-rule="evenodd" clip-rule="evenodd" d="M366 189.248C366.137 189.248 366.247 189.137 366.247 189C366.247 188.863 366.137 188.752 366 188.752C365.863 188.752 365.752 188.863 365.752 189C365.752 189.137 365.863 189.248 366 189.248Z" fill="#575988"/>
<path fill-rule="evenodd" clip-rule="evenodd" d="M363 190.248C363.137 190.248 363.247 190.137 363.247 190C363.247 189.863 363.137 189.752 363 189.752C362.863 189.752 362.752 189.863 362.752 190C362.752 190.137 362.863 190.248 363 190.248Z" fill="#575988"/>
<path fill-rule="evenodd" clip-rule="evenodd" d="M368 188.248C368.137 188.248 368.247 188.137 368.247 188C368.247 187.863 368.137 187.752 368 187.752C367.863 187.752 367.752 187.863 367.752 188C367.752 188.137 367.863 188.248 368 188.248Z" fill="#575988"/>
<path fill-rule="evenodd" clip-rule="evenodd" d="M369 187.248C369.137 187.248 369.247 187.137 369.247 187C369.247 186.863 369.137 186.752 369 186.752C368.863 186.752 368.752 186.863 368.752 187C368.752 187.137 368.863 187.248 369 187.248Z" fill="#575988"/>
<path fill-rule="evenodd" clip-rule="evenodd" d="M379.76 192.711C377.263 193.217 368.514 193.18 368.514 193.18L363.628 193.892C363.628 193.892 355.221 194.629 354.285 192.245C353.349 189.862 355.018 190.002 355.018 190.002H355.081C355.616 190.636 356.692 191.36 358.806 191.393L364.852 191.62L371.118 191.208C371.118 191.208 376.966 191.043 377.943 190.862C378.746 190.663 379.529 190.4 380.282 190.076C380.592 190.446 381.991 192.254 379.76 192.711Z" fill="#DCE6F2"/>
<path opacity="0.5" fill-rule="evenodd" clip-rule="evenodd" d="M363.992 194C363.658 194.001 363.324 193.965 363 193.893L363.09 193.679C363.918 193.838 364.78 193.803 365.588 193.579C365.886 193.512 366.179 193.436 366.49 193.357C367.888 192.938 369.372 192.791 370.841 192.925H371.035C373.723 193.05 376.419 192.944 379.084 192.607C379.716 192.57 380.32 192.358 380.806 192L381 192.167C380.473 192.56 379.818 192.796 379.129 192.841C376.441 193.179 373.723 193.285 371.013 193.159H370.823C369.935 193.102 369.042 193.124 368.158 193.226C367.617 193.316 367.083 193.434 366.558 193.579C366.26 193.659 365.962 193.738 365.656 193.806C365.113 193.931 364.554 193.997 363.992 194Z" fill="#575988"/>
<path opacity="0.1" fill-rule="evenodd" clip-rule="evenodd" d="M401 107.459L399.566 109L396 103.787C396.377 103.547 396.742 103.284 397.094 103L401 107.459Z" fill="black"/>
<path fill-rule="evenodd" clip-rule="evenodd" d="M418.323 66L421.379 70.241V74.6958C421.379 74.6958 422.777 79.4045 421.379 84.1088L421.535 88.2162C421.535 88.2162 420.052 91.9938 420.583 92.9205C420.583 92.9205 420.315 95.7047 416.728 97.6292C413.141 99.5537 409.085 104.089 409.085 104.089C409.085 104.089 407.557 107.007 403.438 106.343L399.516 108L395 102.235L401.111 98.9211C401.111 98.9211 403.237 96.07 404.502 96.2036L409.684 90.1852C409.684 90.1852 409.818 88.2652 411.144 88.2652C411.144 88.2652 408.687 86.2783 409.55 85.0844C410.412 83.8905 409.684 78.5893 409.684 78.5893L418.323 66Z" fill="#67647E"/>
<path opacity="0.1" fill-rule="evenodd" clip-rule="evenodd" d="M413 86.1316C413 86.1316 420.051 86.0158 420.922 87.616C421.793 89.2161 415.149 85.2417 413 86.1316Z" fill="black"/>
<path opacity="0.1" fill-rule="evenodd" clip-rule="evenodd" d="M399 108.65C399.002 108.767 398.993 108.884 398.971 108.999C398.797 110.104 397.832 110.94 396.662 111H396.53C395.169 111 394.066 109.948 394.066 108.65C394.067 108.39 394.113 108.131 394.202 107.885C393.038 106.99 392.977 105.387 393.005 104.586C393.615 104.489 394.203 104.29 394.742 104C395.046 104.833 395.454 105.628 395.958 106.368C396.145 106.323 396.337 106.3 396.53 106.301C397.185 106.299 397.813 106.546 398.276 106.987C398.739 107.428 399 108.026 399 108.65Z" fill="black"/>
<path fill-rule="evenodd" clip-rule="evenodd" d="M395.624 103C395.624 103 394.03 103.364 394.03 103.66C394.03 103.955 393.673 106.634 395.42 107.732C397.167 108.83 396.995 106.201 396.995 106.201C396.995 106.201 395.488 103.844 395.624 103Z" fill="#575988"/>
<path fill-rule="evenodd" clip-rule="evenodd" d="M396.5 111C397.881 111 399 109.881 399 108.5C399 107.119 397.881 106 396.5 106C395.119 106 394 107.119 394 108.5C394 109.881 395.119 111 396.5 111Z" fill="#E4AAB4"/>
<path fill-rule="evenodd" clip-rule="evenodd" d="M397 111C398.105 111 399 110.105 399 109C399 107.895 398.105 107 397 107C395.895 107 395 107.895 395 109C395 110.105 395.895 111 397 111Z" fill="#DCE6F2"/>
<path opacity="0.1" fill-rule="evenodd" clip-rule="evenodd" d="M388.036 110C388.036 110 392.833 113.942 399 111.445V113.352C399 113.352 394.889 116.149 391.162 114.455C387.435 112.762 388.036 110 388.036 110Z" fill="black"/>
<path opacity="0.1" fill-rule="evenodd" clip-rule="evenodd" d="M388.036 109C388.036 109 392.846 112.953 399 110.436V112.348C399 112.348 394.889 115.152 391.162 113.454C387.435 111.756 388.036 109 388.036 109Z" fill="black"/>
<path fill-rule="evenodd" clip-rule="evenodd" d="M388.036 109C388.036 109 392.846 112.953 399 110.436V112.348C399 112.348 394.889 115.152 391.162 113.454C387.435 111.756 388.036 109 388.036 109Z" fill="#444053"/>
<path opacity="0.05" fill-rule="evenodd" clip-rule="evenodd" d="M388.034 109C388.034 109 392.832 112.947 399 110.447V112.356C399 112.356 394.875 115.142 391.161 113.46C387.447 111.778 388.034 109 388.034 109Z" fill="black"/>
<path opacity="0.1" fill-rule="evenodd" clip-rule="evenodd" d="M372 184C372 184 378.652 185.101 379.627 185.339C380.602 185.577 379.359 186 379.359 186C379.359 186 373.265 185.02 372 184Z" fill="black"/>
<path opacity="0.1" fill-rule="evenodd" clip-rule="evenodd" d="M372 180C372.118 180 376.956 178.894 378 177L372 180Z" fill="black"/>
<path opacity="0.1" fill-rule="evenodd" clip-rule="evenodd" d="M378 155.002C378 155.002 379.677 157.057 380.759 156.999C381.841 156.94 378.985 154.924 378 155.002Z" fill="black"/>
<path opacity="0.1" fill-rule="evenodd" clip-rule="evenodd" d="M379 159C379 159 379.808 160.345 381 159.915L379 159Z" fill="black"/>
<path opacity="0.05" fill-rule="evenodd" clip-rule="evenodd" d="M384 121.019L388.839 134C388.839 134 389.522 125.648 388.077 123.147C387.241 121.691 385.65 120.861 384 121.019Z" fill="black"/>
<g opacity="0.1">
<path fill-rule="evenodd" clip-rule="evenodd" d="M394.971 21.7481L394.931 21.5656L394.179 21.3604L394.263 21.7389C394.499 21.758 394.735 21.761 394.971 21.7481Z" fill="black"/>
<path fill-rule="evenodd" clip-rule="evenodd" d="M392.91 24.7998L392.989 24.7268C393.43 24.3084 393.602 23.6679 393.432 23.0756C393.341 22.8508 393.216 22.6429 393.06 22.4598C392.689 22.3872 392.326 22.2772 391.977 22.1313C391.932 22.811 392.675 23.2489 392.905 23.8875C393.008 24.1821 393.01 24.5041 392.91 24.7998Z" fill="black"/>
<path fill-rule="evenodd" clip-rule="evenodd" d="M405.339 45.6589C404.523 45.1306 403.901 44.338 403.57 43.4056C403.194 42.4933 402.968 41.5354 402.588 40.6368C402.166 39.6487 401.565 38.7523 400.818 37.9958C400.694 37.8456 400.534 37.7309 400.354 37.6628C400.011 37.6137 399.664 37.7128 399.394 37.9365C398.95 38.2463 398.456 38.4704 397.935 38.5979C397.403 38.7159 396.85 38.5436 396.47 38.1417C396.064 37.64 396.121 36.901 396.24 36.2579C396.497 34.853 396.922 33.4708 396.926 32.0431C396.93 30.6154 396.4 29.0782 395.197 28.394C394.135 27.7691 392.817 27.9379 391.658 27.5958C391.054 27.426 390.49 27.1276 390.004 26.72L389.911 26.6333C389.813 26.6748 389.717 26.722 389.624 26.7747C389.433 26.8796 389.23 27.0666 389.283 27.281C389.321 27.3847 389.389 27.4738 389.478 27.5365C389.965 27.9409 390.528 28.2375 391.132 28.4077C392.313 28.7407 393.631 28.5856 394.692 29.2105C395.895 29.913 396.422 31.4547 396.422 32.8596C396.422 34.2645 395.98 35.6694 395.736 37.0698C395.617 37.7129 395.559 38.4382 395.966 38.9537C396.343 39.3594 396.898 39.5324 397.43 39.4098C397.951 39.2837 398.446 39.0612 398.89 38.7529C399.16 38.53 399.506 38.4297 399.85 38.4747C400.021 38.5478 400.172 38.662 400.292 38.8077C401.037 39.5659 401.637 40.4618 402.061 41.4487C402.442 42.361 402.667 43.3144 403.043 44.2175C403.369 45.1604 403.992 45.9634 404.812 46.4982C405.648 46.9544 406.807 46.9544 407.466 46.2108C407.637 46.0113 407.771 45.7809 407.86 45.5312C407.123 46.1001 406.126 46.1506 405.339 45.6589Z" fill="black"/>
<path fill-rule="evenodd" clip-rule="evenodd" d="M409.116 42.215C409.775 41.3574 410.638 40.6276 411.257 39.7245C411.38 39.5452 411.493 39.3594 411.598 39.168C410.801 40.2125 409.709 41.0564 409.116 42.215Z" fill="black"/>
</g>
<g opacity="0.1">
<path fill-rule="evenodd" clip-rule="evenodd" d="M370.249 30.1838H263.688C260.616 30.1912 258.127 32.6668 258.117 35.7245V102.737C258.127 105.795 260.616 108.271 263.688 108.278H347.279C347.279 108.278 349.446 119.722 342.325 120.951C342.325 120.951 358.26 122.089 355.476 108.278H370.244C373.316 108.271 375.803 105.794 375.811 102.737V35.7245C375.804 32.6693 373.318 30.1937 370.249 30.1838Z" fill="black"/>
<g opacity="0.2">
<rect x="273.804" y="47.9714" width="86.3202" height="5.23586" rx="2.61793" fill="black"/>
<rect x="273.804" y="71.3713" width="71.2279" height="5.23586" rx="2.61793" fill="black"/>
<rect x="273.804" y="59.6714" width="51.276" height="5.23586" rx="2.61793" fill="black"/>
</g>
</g>
<path fill-rule="evenodd" clip-rule="evenodd" d="M371.423 29H264.586C261.505 29.0099 259.01 31.4924 259 34.5577V101.722C259.01 104.787 261.506 107.268 264.586 107.276H348.394C348.394 107.276 350.566 118.746 343.427 119.977C343.427 119.977 359.403 121.118 356.612 107.276H371.419C374.498 107.268 376.993 104.786 377 101.722V34.5577C376.993 31.4949 374.502 29.0123 371.423 29Z" fill="white"/>
<g opacity="0.2">
<rect x="275.081" y="47.009" width="85.8477" height="5.2925" rx="2.64625" fill="#4D7CFE"/>
<rect x="275.081" y="70.6667" width="70.838" height="5.2925" rx="2.64625" fill="#4D7CFE"/>
<rect x="275.081" y="58.8401" width="50.9953" height="5.2925" rx="2.64625" fill="#4D7CFE"/>
</g>
<path fill-rule="evenodd" clip-rule="evenodd" d="M36.4077 249C36.4077 249 38.0067 251.084 35.6665 254.232C33.3264 257.38 31.3949 260.046 32.1765 262C32.1765 262 35.707 256.155 38.5817 256.075C41.4564 255.994 39.5698 252.515 36.4077 249Z" fill="#4D7CFE"/>
<path opacity="0.1" fill-rule="evenodd" clip-rule="evenodd" d="M36.3663 249C36.5056 249.202 36.6157 249.421 36.6934 249.653C39.5331 252.935 41.0415 255.994 38.3154 256.075C35.7756 256.146 32.7315 260.614 32 261.745C32 261.83 32.0545 261.915 32.0863 262C32.0863 262 35.6575 256.155 38.5653 256.075C41.4731 255.994 39.5649 252.515 36.3663 249Z" fill="black"/>
<path fill-rule="evenodd" clip-rule="evenodd" d="M39.1843 251.523C39.1843 252.33 39.1033 253 38.9999 253C38.8964 253 38.8154 252.345 38.8154 251.523C38.8154 250.7 38.9189 251.094 39.0224 251.094C39.1258 251.094 39.1843 250.715 39.1843 251.523Z" fill="#FFD037"/>
<path fill-rule="evenodd" clip-rule="evenodd" d="M40.5216 252.503C39.7439 252.858 39.0635 253.069 39.0041 252.979C38.9447 252.889 39.5441 252.53 40.3056 252.179C41.067 251.828 40.7808 252.085 40.8456 252.179C40.9104 252.273 41.2993 252.152 40.5216 252.503Z" fill="#FFD037"/>
<path fill-rule="evenodd" clip-rule="evenodd" d="M27.5923 249C27.5923 249 25.9933 251.084 28.3335 254.232C30.6736 257.38 32.6051 260.046 31.8235 262C31.8235 262 28.293 256.155 25.4183 256.075C22.5436 255.994 24.4302 252.515 27.5923 249Z" fill="#4D7CFE"/>
<path opacity="0.1" fill-rule="evenodd" clip-rule="evenodd" d="M27.6337 249C27.4944 249.202 27.3844 249.421 27.3066 249.653C24.4669 252.935 22.9585 255.994 25.6846 256.075C28.2244 256.146 31.2685 260.614 32 261.745C31.9773 261.83 31.9455 261.915 31.9137 262C31.9137 262 28.3425 256.155 25.4347 256.075C22.5269 255.994 24.4351 252.515 27.6337 249Z" fill="black"/>
<path fill-rule="evenodd" clip-rule="evenodd" d="M24.8154 251.523C24.8154 252.33 24.8964 253 24.9999 253C25.1033 253 25.1843 252.345 25.1843 251.523C25.1843 250.7 25.0808 251.094 24.9774 251.094C24.8739 251.094 24.8154 250.715 24.8154 251.523Z" fill="#FFD037"/>
<path fill-rule="evenodd" clip-rule="evenodd" d="M23.48 252.503C24.2569 252.858 24.9366 253.069 24.9959 252.979C25.0553 252.889 24.4565 252.53 23.6958 252.179C22.9351 251.828 23.221 252.085 23.1563 252.179C23.0916 252.273 22.6977 252.152 23.48 252.503Z" fill="#FFD037"/>
<path opacity="0.1" fill-rule="evenodd" clip-rule="evenodd" d="M32 278C41.3888 278 49 276.881 49 275.5C49 274.119 41.3888 273 32 273C22.6112 273 15 274.119 15 275.5C15 276.881 22.6112 278 32 278Z" fill="#4D7CFE"/>
<path fill-rule="evenodd" clip-rule="evenodd" d="M40.9983 258.955L40.9187 259.594L40.8081 260.5L40.7594 260.879L40.6488 261.781L40.6046 262.16L40.494 263.067L39.2289 273.363C39.1183 274.282 37.6099 275 35.7874 275H29.2142C27.3917 275 25.8877 274.282 25.7727 273.363L24.5076 263.071L24.397 262.164L24.3528 261.786L24.2422 260.883L24.1935 260.505L24.0829 259.598L24.0033 258.96C23.9414 258.44 24.7597 258 25.7727 258H39.1802C40.2242 257.996 41.0425 258.436 40.9983 258.955Z" fill="#65617D"/>
<path fill-rule="evenodd" clip-rule="evenodd" d="M41 260L40.8882 261H24.1118L24 260H41Z" fill="#9D9CB5"/>
<path fill-rule="evenodd" clip-rule="evenodd" d="M41 261L40.8861 262H24.1185L24 261H41Z" fill="#9D9CB5"/>
<path fill-rule="evenodd" clip-rule="evenodd" d="M40 263L39.8907 264H24.1093L24 263H40Z" fill="#9D9CB5"/>
<path opacity="0.1" fill-rule="evenodd" clip-rule="evenodd" d="M291 361C311.987 361 329 358.314 329 355C329 351.686 311.987 349 291 349C270.013 349 253 351.686 253 355C253 358.314 270.013 361 291 361Z" fill="#4D7CFE"/>
<g opacity="0.1">
<path fill-rule="evenodd" clip-rule="evenodd" d="M334.749 164.394H219.193C215.861 164.403 213.163 167.112 213.153 170.457V243.76C213.163 247.105 215.861 249.813 219.193 249.823H309.843C309.843 249.823 312.191 262.339 304.475 263.683C304.475 263.683 321.751 264.927 318.731 249.823H334.749C338.08 249.813 340.778 247.105 340.788 243.76V170.457C340.778 167.112 338.08 164.403 334.749 164.394Z" fill="black"/>
<g opacity="0.2">
<rect x="230.163" y="209.452" width="93.6113" height="5.72851" rx="2.86425" fill="black"/>
<rect x="230.163" y="196.651" width="40.5904" height="5.72851" rx="2.86425" fill="black"/>
</g>
</g>
<path fill-rule="evenodd" clip-rule="evenodd" d="M332.992 164H218.008C214.694 164.01 212.01 166.71 212 170.044V243.112C212.01 246.445 214.694 249.146 218.008 249.155H308.192C308.192 249.155 310.528 261.631 302.851 262.975C302.851 262.975 320.042 264.216 317.038 249.155H332.992C336.306 249.146 338.99 246.445 339 243.112V170.044C338.99 166.71 336.306 164.01 332.992 164Z" fill="white"/>
<g opacity="0.2">
<rect x="229.382" y="208.219" width="93.4153" height="5.72714" rx="2.86357" fill="#4D7CFE"/>
<rect x="229.382" y="195.421" width="40.5055" height="5.72714" rx="2.86357" fill="#4D7CFE"/>
</g>
<path fill-rule="evenodd" clip-rule="evenodd" d="M311.979 350.738C311.437 348.428 311.084 346.397 311.084 346.397C311.084 346.397 311.209 343.88 310.085 341.989V341.358V336.707C310.404 335.862 310.795 335.047 311.254 334.271C312.087 332.807 311.254 327.449 311.254 327.449C311.254 327.449 308.165 319.893 308.917 315.102C309.669 310.311 302.574 293.817 302.574 293.817C302.617 292.226 302.841 290.646 303.241 289.107C303.315 288.784 303.345 288.452 303.33 288.121C303.332 288.08 303.332 288.04 303.33 287.999C303.33 287.999 303.33 288.026 303.33 288.04C303.223 284.888 300.738 278.953 300.738 278.953L301.074 267.664C301.074 267.664 302.659 261.004 300.071 252.066C299.176 248.95 298.589 246.451 298.222 244.528C298.182 244.308 298.142 244.078 298.106 243.898C303.433 243.083 307.507 242.403 307.507 242.403C307.507 242.403 304.427 229.403 302.341 227.152C300.255 224.9 298.589 217.695 298.589 217.695C298.589 217.695 297.501 208.514 299.256 205.835C301.011 203.156 301.257 198.527 301.257 198.527C301.257 198.527 305.286 195.6 305.765 194.303C306.244 193.006 307.108 190.079 307.108 188.535C307.108 186.99 306.607 185.608 306.773 184.797C306.938 183.987 305.604 180.898 306.271 179.434C306.446 178.985 306.537 178.507 306.54 178.025C306.54 178.025 306.54 177.998 306.54 177.984C306.544 176.706 306.425 175.43 306.186 174.175C305.03 173.192 303.679 172.466 302.224 172.045L302.135 171.694L301.911 170.793C301.777 170.703 301.647 170.627 301.517 170.555V170.222L301.477 168.902L302.108 165.939C303.339 160.779 296.494 160.009 296.494 160.009C296.081 159.218 295.39 158.61 294.556 158.302C293.177 157.816 294.327 166.061 294.972 166.588C295.456 166.984 296.951 169.569 297.658 170.838L297.774 171.05C297.66 171.15 297.556 171.26 297.461 171.379L297.721 173.18L297.761 173.455C297.309 174.022 296.941 174.653 296.669 175.328C296.669 175.328 297.922 176.71 297.672 178.255C297.421 179.799 298.052 181.722 298.083 181.825C298.012 181.74 297.13 180.781 296.252 181.015C295.375 181.249 292.913 181.992 292.913 181.992C292.913 181.992 291.077 182.316 291.247 182.722C291.417 183.127 289.994 184.914 289.994 184.914L285.069 180.213C285.025 180.074 284.971 179.934 284.926 179.786C284.716 179.115 284.566 178.426 284.479 177.728C285.015 177.597 285.542 177.429 286.054 177.223C286.565 177.042 287.025 176.741 287.397 176.345C287.894 175.751 287.988 174.945 288.19 174.207C288.584 172.761 289.421 171.473 290.021 170.1C291.038 167.787 291.379 165.23 291.006 162.729C290.927 161.96 290.668 161.22 290.249 160.572C289.443 159.455 287.984 159.005 286.918 158.113C285.853 157.222 285.172 155.862 283.937 155.2C282.818 154.596 281.452 154.669 280.19 154.876C277.723 155.286 275.353 156.153 273.202 157.433C272.481 157.861 271.693 158.356 270.865 158.208C270.157 158.077 269.638 157.505 269.177 156.96C269.177 156.938 269.177 156.915 269.199 156.893L269.146 156.83C268.64 157.988 268.391 159.244 268.416 160.509C268.416 160.707 268.416 160.905 268.438 161.103V161.31C268.438 161.369 268.438 161.427 268.438 161.481C268.44 161.571 268.428 161.661 268.403 161.747C268.302 162 268.149 162.229 267.955 162.418C267.803 162.588 267.668 162.772 267.552 162.967C267.57 162.899 267.593 162.831 267.619 162.765C267.304 163.228 267.127 163.771 267.109 164.332C267.08 164.738 267.212 165.139 267.476 165.448C267.723 165.692 267.993 165.91 268.282 166.101C267.579 169.999 269.366 173.924 272.758 175.936C272.817 176.075 272.875 176.219 272.929 176.363C273.56 178.034 274.034 179.966 273.824 181.767C273.824 181.902 273.788 182.033 273.761 182.163C273.734 182.294 273.64 182.298 273.587 182.37C273.587 182.37 265.443 182.451 263.523 180.704C261.602 178.957 258.684 184.968 258.684 184.968C258.684 184.968 255.765 185.536 255.183 184.968C254.601 184.401 251.176 184.887 251.176 184.887C249.782 183.643 247.971 182.977 246.108 183.023C244.969 182.152 243.712 181.448 242.375 180.934L242.285 180.902C241.698 180.688 241.071 180.608 240.45 180.668C240.45 180.668 236.443 177.336 235.275 175.553C234.106 173.77 228.56 167.137 228.519 167.106V166.786L228.457 165.818C228.292 165.846 228.126 165.861 227.96 165.863C227.928 165.768 227.893 165.656 227.848 165.529C227.527 164.588 227.132 163.674 226.666 162.796C226.666 162.796 226.666 161.58 227.02 161.274C227.373 160.968 226.872 156.501 226.872 156.501C226.872 156.501 223.264 148.013 220.031 154.349C220.031 154.349 213.921 158.451 219.051 163.224C219.051 163.224 221.097 164.219 221.383 165.025C221.576 165.538 222.279 166.97 222.726 167.921L222.937 168.348L222.879 168.398L222.955 169.195L222.986 169.501C222.019 170.055 221.366 170.6 221.522 171.014C221.807 171.718 222.004 172.454 222.109 173.207C222.109 173.207 229.173 182.123 230.091 185.95C230.091 185.95 249.112 197.32 255.371 198.13L254.287 203.818C254.126 205.355 254.042 206.9 254.037 208.447C254.117 209.667 253.285 215.201 253.285 215.201C253.285 215.201 252.201 223.306 251.284 224.459C250.366 225.612 250.554 230.461 250.554 230.461C250.333 232.794 249.913 235.103 249.3 237.364C248.405 240.453 249.05 244.271 249.05 244.271C249.05 244.271 245.88 251.58 253.473 246.626C253.473 246.626 257.202 246.392 261.495 246.244C261.495 246.388 261.495 246.527 261.495 246.694C261.495 247.248 261.495 247.851 261.468 248.495C261.41 252.683 261.388 258.451 261.576 262.819C261.911 270.532 264.262 285.806 264.262 285.806V293.461C264.112 294.182 264.039 294.917 264.042 295.654C263.991 298.359 264.703 301.022 266.097 303.336L266.684 308.451C266.684 308.451 268.053 311.824 268.08 313.855C268.074 314.02 268.054 314.184 268.022 314.345C267.97 314.603 267.948 314.866 267.955 315.129C267.879 317.452 269.271 323.009 269.271 323.009C269.271 323.009 269.352 328.615 270.166 328.939C270.878 329.218 269.213 332.172 268.716 333.019C268.716 332.965 268.716 332.911 268.685 332.857L268.582 333.028C268.409 333.479 268.321 333.958 268.322 334.442C268.226 335.224 268.587 335.992 269.249 336.414C270.833 337.387 271.684 338.215 270.337 338.526C269.842 338.604 269.352 338.708 268.868 338.837L268.797 338.647C268.409 338.806 268.182 339.214 268.25 339.629C268.26 340.294 268.431 340.946 268.747 341.529C270.09 344.537 270.986 345.672 270.986 345.672L271.63 345.6C271.533 345.845 271.408 346.077 271.259 346.293C271.016 346.646 270.692 346.935 270.314 347.135C269.966 347.347 269.577 347.48 269.173 347.527C268.257 347.558 267.398 347.979 266.809 348.684C265.976 349.77 265.466 351.242 267.1 352.539L273.067 354.61C273.067 354.61 283.328 355.961 282.786 353.633C282.245 351.305 281.891 349.288 281.891 349.288C281.933 347.873 281.648 346.467 281.058 345.181C280.95 344.972 280.829 344.771 280.696 344.578L281.058 344.537C281.058 344.537 281.81 339.417 282.809 338.445C283.042 338.22 283.095 338.049 283.037 337.914C283.14 337.634 282.88 337.463 282.545 337.378L282.473 337.58C282.145 337.508 281.81 337.471 281.475 337.468C281.475 337.468 281.143 334.789 282.227 333.816C282.404 333.591 282.48 333.302 282.437 333.019C282.445 332.651 282.407 332.283 282.325 331.925L282.285 331.988C281.739 329.556 279.89 325.684 279.89 325.684C279.89 325.684 279.805 323.248 280.476 322.27C281.148 321.293 280.391 309.032 280.391 309.032C280.391 309.032 280.642 303.102 279.89 300.341C279.138 297.581 280.808 294.33 280.808 294.33C280.808 294.33 280.808 294.263 280.808 294.15L280.83 294.109C280.83 294.109 280.79 293.745 280.732 293.177C280.732 293.177 280.732 293.213 280.732 293.231C280.561 291.664 280.244 288.819 280.011 287.504C279.675 285.635 280.091 276.697 280.091 276.697L281.596 272.878L284.282 279.462L287.12 288.233C287.12 288.233 288.526 290.084 288.557 291.962C288.564 292.053 288.564 292.145 288.557 292.236C288.536 292.432 288.525 292.629 288.526 292.826C288.476 293.932 288.778 295.026 289.39 295.947C289.39 295.947 290.142 300.089 291.31 301.147C292.478 302.206 292.478 304.232 292.478 304.232C292.478 304.232 293.893 310.243 294.565 311.301C295.124 312.202 295.156 314.638 295.151 315.386C295.151 315.525 295.151 315.606 295.151 315.606C295.151 315.606 295.348 317.754 295.339 319.56C295.339 319.78 295.339 320.01 295.339 320.204C295.337 320.187 295.337 320.171 295.339 320.154C295.335 320.647 295.277 321.138 295.165 321.618C295.165 321.618 295.165 321.672 295.138 321.703L295.165 321.397C294.864 322.623 294.714 323.881 294.717 325.143C294.677 327.305 295.003 329.862 296.306 331.362C298.544 333.964 299.977 333.64 299.977 333.64C299.977 333.64 298.894 336.887 297.555 337.535C297.506 337.562 297.459 337.593 297.416 337.63C297.416 337.567 297.389 337.504 297.381 337.441C297.087 337.771 296.946 338.211 296.991 338.652C296.893 340.079 297.788 342.398 298.643 343.466C298.957 343.779 299.345 344.007 299.771 344.128L299.561 344.258C299.416 344.34 299.266 344.413 299.113 344.479C298.897 344.574 298.667 344.633 298.433 344.654C297.516 344.681 296.655 345.103 296.069 345.812C295.236 346.892 294.726 348.365 296.36 349.662L302.327 351.733C302.327 351.733 312.521 353.057 311.979 350.738Z" fill="url(#paint1_linear)"/>
<path fill-rule="evenodd" clip-rule="evenodd" d="M272.73 355.613L267.028 353.503C265.454 352.182 265.958 350.682 266.75 349.576C267.303 348.862 268.126 348.432 269.008 348.397C269.396 348.349 269.769 348.213 270.1 347.998C270.456 347.789 270.759 347.495 270.984 347.14C271.404 346.454 271.629 345.659 271.633 344.846C271.633 344.846 277.897 342.942 279.589 344.846C279.894 345.19 280.15 345.578 280.35 345.998C280.913 347.313 281.184 348.743 281.145 350.182C281.145 350.182 281.468 352.251 281.98 354.609C282.493 356.967 272.73 355.613 272.73 355.613Z" fill="#2D293D"/>
<path fill-rule="evenodd" clip-rule="evenodd" d="M301.723 352.606L296.028 350.495C294.457 349.174 294.956 347.673 295.75 346.572C296.3 345.855 297.124 345.424 298.006 345.393C298.23 345.372 298.45 345.311 298.655 345.214C298.807 345.15 298.955 345.075 299.096 344.989C300.686 344.072 300.646 341.846 300.646 341.846C300.646 341.846 306.897 339.942 308.592 341.846C308.822 342.102 309.022 342.386 309.188 342.691C310.265 344.618 310.146 347.187 310.146 347.187C310.146 347.187 310.464 349.256 310.98 351.615C311.497 353.973 301.723 352.606 301.723 352.606Z" fill="#2D293D"/>
<path opacity="0.1" fill-rule="evenodd" clip-rule="evenodd" d="M280.19 344.815C280.515 345.144 280.788 345.516 281 345.918L271 347C271.447 346.342 271.687 345.58 271.692 344.801C271.692 344.801 278.367 342.99 280.19 344.815Z" fill="black"/>
<path opacity="0.1" fill-rule="evenodd" clip-rule="evenodd" d="M309 342.595V344.335C307.486 346.703 300.136 346.185 298 344.997C298.159 344.937 298.313 344.865 298.46 344.784C300.117 343.913 300.076 341.803 300.076 341.803C300.076 341.803 306.593 339.997 308.36 341.803C308.606 342.042 308.821 342.308 309 342.595Z" fill="black"/>
<path fill-rule="evenodd" clip-rule="evenodd" d="M309.645 334.666C309.199 335.443 308.817 336.255 308.504 337.094V343.491C306.88 346.184 298.418 345.286 297.277 343.814C296.136 342.342 294.918 338.553 296.222 337.907C297.525 337.26 298.581 334.019 298.581 334.019C298.581 334.019 297.196 334.342 294.999 331.752C292.803 329.162 293.452 323.412 293.863 322.034C294.273 320.656 293.863 316.041 293.863 316.041C293.863 316.041 293.944 312.805 293.29 311.75C292.636 310.695 291.256 304.707 291.256 304.707C291.256 304.707 291.256 302.682 290.119 301.628C288.983 300.573 288.247 296.447 288.247 296.447C287.577 295.417 287.286 294.188 287.422 292.969C287.67 290.944 286.042 288.758 286.042 288.758L283.277 280.014L280.67 273.455L279.217 277.258C279.217 277.258 278.807 286.163 279.136 288.031C279.465 289.898 279.948 294.831 279.948 294.831C279.948 294.831 278.32 298.072 279.046 300.824C279.772 303.576 279.533 309.488 279.533 309.488C279.533 309.488 280.264 321.715 279.614 322.685C278.965 323.654 279.046 326.087 279.046 326.087C279.046 326.087 282.379 333.211 281.301 334.167C280.223 335.123 280.566 337.812 280.566 337.812C280.566 337.812 282.821 337.812 281.87 338.782C280.918 339.752 280.205 344.869 280.205 344.869L270.368 346C270.368 346 269.466 344.869 268.162 341.87C266.859 338.872 268.406 339.177 269.718 338.876C271.031 338.575 270.196 337.74 268.654 336.771C267.111 335.801 268 333.629 268 333.629C268 333.629 270.359 329.661 269.547 329.333C268.735 329.005 268.645 323.426 268.645 323.426C268.645 323.426 267.017 316.782 267.423 315.004C267.828 313.227 266.119 308.931 266.119 308.931L265.551 303.827C263.806 300.936 263.166 297.517 263.746 294.194V286.325C263.746 286.325 261.491 271.103 261.144 263.409C260.936 258.472 260.995 251.761 261.063 247.564C261.103 245.212 261.144 243.654 261.144 243.654L296.303 240C296.357 241.747 296.57 243.485 296.939 245.194C297.295 247.115 297.841 249.602 298.743 252.712C301.264 261.618 299.717 268.257 299.717 268.257L299.393 279.515C299.393 279.515 302.487 287.043 301.833 289.638C301.443 291.174 301.226 292.749 301.183 294.333C301.183 294.333 308.098 310.771 307.367 315.548C306.636 320.324 309.622 327.856 309.622 327.856C309.622 327.856 310.457 333.207 309.645 334.666Z" fill="#575988"/>
<path opacity="0.05" fill-rule="evenodd" clip-rule="evenodd" d="M290 292.326L301 291C301 291 294.77 296.753 290 292.326Z" fill="black"/>
<path opacity="0.1" fill-rule="evenodd" clip-rule="evenodd" d="M299.256 281C299.256 281 299.678 284.632 297 286C297.005 286 301.799 285.372 299.256 281Z" fill="black"/>
<path opacity="0.1" fill-rule="evenodd" clip-rule="evenodd" d="M299 268C299 268 289.79 275.578 286.459 274.965C283.129 274.352 299 268 299 268Z" fill="black"/>
<path opacity="0.1" fill-rule="evenodd" clip-rule="evenodd" d="M277 296C277 296 270.207 297.573 270.004 300.356C269.801 303.139 277 296 277 296Z" fill="black"/>
<path opacity="0.05" fill-rule="evenodd" clip-rule="evenodd" d="M278.382 330C278.382 330 268.756 331.733 271.488 332.89C274.22 334.046 278.725 334.999 278.725 334.999C278.725 334.999 281.81 335.155 278.382 330Z" fill="black"/>
<g opacity="0.05">
<path fill-rule="evenodd" clip-rule="evenodd" d="M270.027 334.432C269.546 334.124 269.228 333.613 269.163 333.042L269.065 333.213C269.065 333.213 268.174 335.403 269.706 336.361C269.884 336.474 270.049 336.586 270.201 336.694C270.486 336.64 270.789 336.6 271.091 336.528C272.374 336.213 271.555 335.403 270.027 334.432Z" fill="black"/>
<path fill-rule="evenodd" clip-rule="evenodd" d="M282.242 333.78C282.504 333.537 282.495 332.911 282.335 332.111C281.948 332.831 281.761 333.644 281.796 334.463C281.896 334.206 282.047 333.973 282.242 333.78Z" fill="black"/>
<path fill-rule="evenodd" clip-rule="evenodd" d="M280.785 293.416C280.433 294.375 280.217 295.379 280.143 296.398C280.325 295.693 280.571 295.006 280.878 294.347C280.878 294.347 280.842 293.983 280.785 293.416Z" fill="black"/>
<path fill-rule="evenodd" clip-rule="evenodd" d="M302.51 289.157C302.575 288.862 302.605 288.559 302.599 288.257C302.479 288.86 302.394 289.422 302.336 289.917C302.367 289.678 302.425 289.422 302.51 289.157Z" fill="black"/>
<path fill-rule="evenodd" clip-rule="evenodd" d="M280.553 322.261C280.738 321.68 280.819 321.071 280.794 320.461C280.503 321.184 280.351 321.957 280.348 322.737C280.398 322.571 280.466 322.411 280.553 322.261Z" fill="black"/>
<path fill-rule="evenodd" clip-rule="evenodd" d="M282.544 337.558C282.045 339.186 281.675 340.853 281.439 342.541L271.724 343.679C271.724 343.679 270.833 342.541 269.546 339.541C269.434 339.276 269.345 339.042 269.274 338.826C268.69 339.096 268.463 339.726 269.225 341.489C270.512 344.489 271.399 345.627 271.399 345.627L281.128 344.489C281.128 344.489 281.849 339.379 282.811 338.403C283.279 337.926 282.976 337.684 282.544 337.558Z" fill="black"/>
<path fill-rule="evenodd" clip-rule="evenodd" d="M269.706 322.989C269.706 322.989 269.786 328.589 270.597 328.913C271.003 327.986 271.274 327.114 270.913 326.961C270.107 326.637 270.023 321.037 270.023 321.037C270.023 321.037 268.419 314.385 268.82 312.599C269.221 310.814 267.532 306.514 267.532 306.514L266.971 301.404C265.246 298.507 264.613 295.078 265.189 291.747V283.876C265.189 283.876 262.962 268.624 262.619 260.937C262.414 255.99 262.472 249.243 262.539 245.06C262.539 244.3 262.561 243.625 262.575 243.059L262.298 243.086C262.298 243.086 262.254 244.646 262.218 247.008C262.147 251.209 262.089 257.946 262.298 262.88C262.619 270.59 264.869 285.842 264.869 285.842V293.713C264.292 297.044 264.925 300.472 266.65 303.37L267.216 308.448C267.216 308.448 268.904 312.748 268.504 314.533C268.103 316.319 269.706 322.989 269.706 322.989Z" fill="black"/>
<path fill-rule="evenodd" clip-rule="evenodd" d="M298.313 341.489C297.524 340.335 296.999 339.018 296.776 337.634C295.783 338.534 296.923 342.047 297.992 343.436C299.115 344.894 307.472 345.789 309.08 343.113V341.565C306.906 343.742 299.391 342.87 298.313 341.489Z" fill="black"/>
<path fill-rule="evenodd" clip-rule="evenodd" d="M310.528 332.322C310.084 333.099 309.707 333.913 309.401 334.756V335.884C309.584 335.466 309.846 334.913 310.207 334.256C310.464 333.62 310.584 332.937 310.559 332.25C310.545 332.273 310.535 332.297 310.528 332.322Z" fill="black"/>
<path fill-rule="evenodd" clip-rule="evenodd" d="M298.808 333.6C299.114 332.975 299.379 332.33 299.601 331.67C299.601 331.67 298.233 331.994 296.064 329.421C294.482 327.532 294.393 323.965 294.621 321.635C294.215 323.012 293.574 328.774 295.743 331.369C297.164 333.046 298.233 333.492 298.808 333.6Z" fill="black"/>
<path fill-rule="evenodd" clip-rule="evenodd" d="M294.616 315.608C294.757 317.207 294.811 318.812 294.776 320.416C294.817 320.162 294.872 319.909 294.941 319.661C295.346 318.284 294.941 313.661 294.941 313.661C294.941 313.661 295.021 310.413 294.38 309.361C293.738 308.308 292.371 302.299 292.371 302.299C292.371 302.299 292.371 300.271 291.248 299.218C290.126 298.166 289.4 294.023 289.4 294.023C288.74 292.991 288.455 291.759 288.593 290.537C288.834 288.509 287.23 286.319 287.23 286.319L284.495 277.552L281.925 270.981L280.477 274.795C280.477 274.795 280.477 275.276 280.428 276.028L281.604 272.929L284.174 279.5L286.918 288.266C286.918 288.266 288.527 290.457 288.286 292.485C288.147 293.706 288.432 294.938 289.092 295.971C289.092 295.971 289.814 300.109 290.936 301.166C292.059 302.223 292.063 304.247 292.063 304.247C292.063 304.247 293.431 310.251 294.072 311.308C294.714 312.365 294.616 315.608 294.616 315.608Z" fill="black"/>
</g>
<path fill-rule="evenodd" clip-rule="evenodd" d="M300.858 166.503L300.255 169.408L300.291 170.702L300.317 171.66L296.979 172L296.606 171.311C295.915 170.066 294.482 167.532 294.017 167.144C293.401 166.627 292.301 158.543 293.622 159.02C294.429 159.331 295.091 159.929 295.48 160.698C295.48 160.698 302.037 161.466 300.858 166.503Z" fill="#FFCDD3"/>
<path opacity="0.1" fill-rule="evenodd" clip-rule="evenodd" d="M301 171.597L297.401 172L297 171.183C297.999 169.938 299.66 169.637 300.971 170.465L301 171.597Z" fill="black"/>
<path fill-rule="evenodd" clip-rule="evenodd" d="M302 172.885L297.36 174L297.266 173.283L297 171.344C297 171.344 298.836 168.803 301.491 170.709L301.72 171.678L302 172.885Z" fill="#DCE6F2"/>
<path fill-rule="evenodd" clip-rule="evenodd" d="M229 166.415L224.145 169L223.686 168.09C223.228 167.13 222.536 165.682 222.348 165.164C222.059 164.367 220.033 163.343 220.033 163.343C214.948 158.52 221.005 154.374 221.005 154.374C224.214 147.971 227.785 156.549 227.785 156.549C227.785 156.549 228.28 161.068 227.932 161.373C227.583 161.678 227.579 162.911 227.579 162.911C228.044 163.799 228.436 164.723 228.752 165.673C228.922 166.133 229 166.415 229 166.415Z" fill="#FFCDD3"/>
<path opacity="0.1" fill-rule="evenodd" clip-rule="evenodd" d="M229 166.684L224.431 169L224 168.184C224.643 167.679 226.934 165.925 227.684 166.002C228.043 166.044 228.406 166.054 228.767 166.031C228.927 166.431 229 166.684 229 166.684Z" fill="black"/>
<path fill-rule="evenodd" clip-rule="evenodd" d="M230 168.073L224.2 171L224.083 169.723L224 168.841C224 168.841 227.363 165.893 228.357 166.003C228.86 166.078 229.371 166.078 229.873 166.003L229.937 167.07L230 168.073Z" fill="#DCE6F2"/>
<path fill-rule="evenodd" clip-rule="evenodd" d="M288 186.341C288 186.341 264.085 189.011 268.557 187.576C271.667 186.574 272.901 184.619 273.164 182.446C273.371 180.623 272.901 178.664 272.27 176.978C271.706 175.485 270.99 174.053 270.133 172.704C270.133 172.704 288.415 162.757 284.757 171.792C284.193 173.16 283.844 174.604 283.721 176.076C283.605 177.536 283.761 179.004 284.181 180.409C284.873 182.698 286.195 184.752 288 186.341Z" fill="#FFCDD3"/>
<path opacity="0.1" fill-rule="evenodd" clip-rule="evenodd" d="M285.52 171.59C284.96 172.88 284.613 174.244 284.491 175.632C282.78 176.983 280.905 176.892 278.5 176.892C276.671 176.892 274.604 177.323 273.122 176.462C272.562 175.054 271.851 173.702 271 172.429C271 172.429 289.151 163.049 285.52 171.59Z" fill="black"/>
<path fill-rule="evenodd" clip-rule="evenodd" d="M277.5 178C282.747 178 287 173.747 287 168.5C287 163.253 282.747 159 277.5 159C272.253 159 268 163.253 268 168.5C268 173.747 272.253 178 277.5 178Z" fill="#FFCDD3"/>
<path opacity="0.1" fill-rule="evenodd" clip-rule="evenodd" d="M288 186.265C288 186.265 264.085 189.058 268.557 187.557C271.667 186.508 272.901 184.464 273.164 182.191C274.352 180.857 276.743 179.895 278.281 179.385C279.684 178.897 281.198 178.872 282.615 179.313C283.173 179.484 283.703 179.738 284.191 180.066C284.881 182.458 286.2 184.604 288 186.265Z" fill="black"/>
<path opacity="0.1" fill-rule="evenodd" clip-rule="evenodd" d="M302 173.096L297.099 174L297 173.418C298.073 172.245 299.954 171.732 301.704 172.136L302 173.096Z" fill="black"/>
<path opacity="0.1" fill-rule="evenodd" clip-rule="evenodd" d="M229 168.02L224.099 171L224 169.701C225.59 168.649 227.242 167.746 228.942 167L229 168.02Z" fill="black"/>
<path opacity="0.1" fill-rule="evenodd" clip-rule="evenodd" d="M298 245.211C288.9 246.641 275.944 248.497 273.888 247.877C272.186 247.36 266.74 247.427 262 247.576C262.041 245.22 262.081 243.66 262.081 243.66L297.362 240C297.415 241.753 297.629 243.497 298 245.211Z" fill="black"/>
<path fill-rule="evenodd" clip-rule="evenodd" d="M307 243.073C307 243.073 277.1 248.177 273.889 247.203C270.678 246.229 254.206 247.283 254.206 247.283C246.794 252.221 249.888 244.936 249.888 244.936C249.888 244.936 249.238 241.129 250.132 238.054C250.739 235.799 251.156 233.497 251.378 231.173C251.378 231.173 251.216 226.311 252.11 225.18C253.004 224.049 254.066 215.946 254.066 215.946C254.066 215.946 254.883 210.443 254.802 209.213C254.805 207.672 254.887 206.131 255.046 204.598L256.103 198.929C249.992 198.121 231.415 186.782 231.415 186.782C230.512 182.98 223.597 174.069 223.597 174.069C223.496 173.32 223.304 172.586 223.023 171.883C222.536 170.59 229.87 168 229.87 168C229.87 168 235.326 174.639 236.469 176.421C237.612 178.203 241.519 181.521 241.519 181.521C242.131 181.458 242.749 181.538 243.325 181.754L243.42 181.781C244.731 182.297 245.961 182.998 247.07 183.864C248.906 183.82 250.688 184.488 252.038 185.727C252.038 185.727 255.38 185.242 255.949 185.808C256.518 186.373 259.373 185.808 259.373 185.808C259.373 185.808 262.223 179.815 264.097 181.557C265.971 183.298 273.921 183.217 273.921 183.217C274.982 181.817 277.561 180.811 279.173 180.295C280.549 179.838 282.034 179.814 283.423 180.228C284.024 180.399 284.591 180.671 285.099 181.031L289.923 185.727C289.923 185.727 291.309 183.931 291.147 183.541C290.984 183.15 292.777 182.813 292.777 182.813C292.777 182.813 295.139 182.082 296.034 181.839C296.928 181.597 297.75 182.562 297.84 182.647C297.813 182.544 297.199 180.582 297.438 179.088C297.678 177.593 296.458 176.17 296.458 176.17C299.313 169.208 305.749 175.039 305.749 175.039C305.749 175.039 306.481 178.845 305.83 180.3C305.18 181.754 306.481 184.838 306.318 185.646C306.155 186.454 306.643 187.832 306.643 189.372C306.643 190.911 305.83 193.825 305.338 195.118C304.846 196.41 300.939 199.328 300.939 199.328C300.939 199.328 300.695 203.947 298.983 206.618C297.271 209.289 298.283 218.442 298.283 218.442C298.283 218.442 299.913 225.584 301.964 227.869C304.015 230.154 307 243.073 307 243.073Z" fill="#656691"/>
<path opacity="0.1" fill-rule="evenodd" clip-rule="evenodd" d="M262.796 189C262.796 189 261.954 186.31 261.201 186.066C260.446 185.765 259.711 185.41 259 185.004L259.488 184C259.488 184 262.337 184.841 262.796 185.736C263.255 186.631 262.796 189 262.796 189Z" fill="black"/>
<path opacity="0.1" fill-rule="evenodd" clip-rule="evenodd" d="M247 183.314C246.847 184.199 240 185 240 185L243.462 181L243.547 181.034C244.788 181.598 245.951 182.366 247 183.314Z" fill="black"/>
<path fill-rule="evenodd" clip-rule="evenodd" d="M225.5 173C225.776 173 226 172.776 226 172.5C226 172.224 225.776 172 225.5 172C225.224 172 225 172.224 225 172.5C225 172.776 225.224 173 225.5 173Z" fill="#575988"/>
<path fill-rule="evenodd" clip-rule="evenodd" d="M226.5 174C226.776 174 227 173.776 227 173.5C227 173.224 226.776 173 226.5 173C226.224 173 226 173.224 226 173.5C226 173.776 226.224 174 226.5 174Z" fill="#575988"/>
<path fill-rule="evenodd" clip-rule="evenodd" d="M227.5 175C227.776 175 228 174.776 228 174.5C228 174.224 227.776 174 227.5 174C227.224 174 227 174.224 227 174.5C227 174.776 227.224 175 227.5 175Z" fill="#575988"/>
<path fill-rule="evenodd" clip-rule="evenodd" d="M228.5 177C228.776 177 229 176.776 229 176.5C229 176.224 228.776 176 228.5 176C228.224 176 228 176.224 228 176.5C228 176.776 228.224 177 228.5 177Z" fill="#575988"/>
<path fill-rule="evenodd" clip-rule="evenodd" d="M304.5 177C304.776 177 305 176.776 305 176.5C305 176.224 304.776 176 304.5 176C304.224 176 304 176.224 304 176.5C304 176.776 304.224 177 304.5 177Z" fill="#575988"/>
<path fill-rule="evenodd" clip-rule="evenodd" d="M304.5 178C304.776 178 305 177.776 305 177.5C305 177.224 304.776 177 304.5 177C304.224 177 304 177.224 304 177.5C304 177.776 304.224 178 304.5 178Z" fill="#575988"/>
<path fill-rule="evenodd" clip-rule="evenodd" d="M304.5 179C304.776 179 305 178.776 305 178.5C305 178.224 304.776 178 304.5 178C304.224 178 304 178.224 304 178.5C304 178.776 304.224 179 304.5 179Z" fill="#575988"/>
<path opacity="0.1" fill-rule="evenodd" clip-rule="evenodd" d="M263 211C262.925 210.905 280.981 234.319 295 220.79C295 220.79 272.85 223.873 263 211Z" fill="black"/>
<path opacity="0.1" fill-rule="evenodd" clip-rule="evenodd" d="M253 223C253 223 263.866 223.297 265 226.451V229.736C264.372 230.088 263.609 230.088 262.981 229.736C261.887 229.137 255.313 225.771 253 227.388L253 223Z" fill="black"/>
<path fill-rule="evenodd" clip-rule="evenodd" d="M253 223C253 223 263.865 223.298 265 226.457V229.735C264.371 230.088 263.607 230.088 262.978 229.735C261.886 229.139 255.316 225.767 253 227.37V223Z" fill="#656691"/>
<path opacity="0.1" fill-rule="evenodd" clip-rule="evenodd" d="M258 200C259.13 202.644 260.568 205.142 262.285 207.441C264.156 209.982 266.424 212.197 269 214C269 214 258.182 201.54 258 200Z" fill="black"/>
<path opacity="0.1" fill-rule="evenodd" clip-rule="evenodd" d="M255 187C255 187 256.957 195.208 262 198L255 187Z" fill="black"/>
<path opacity="0.1" fill-rule="evenodd" clip-rule="evenodd" d="M252.156 188.002C252.113 187.855 250.597 194.385 258 198C258.017 198 254.855 196.863 252.156 188.002Z" fill="black"/>
<path opacity="0.1" fill-rule="evenodd" clip-rule="evenodd" d="M300.003 182.005C299.878 182.005 303.908 184.734 305 186C305 186 302.381 181.828 300.003 182.005Z" fill="black"/>
<path fill-rule="evenodd" clip-rule="evenodd" d="M274.871 176.403C274.947 176.909 275.213 177.367 275.613 177.685C275.889 177.816 276.191 177.884 276.497 177.883C279.39 178.06 282.398 178.188 285.071 177.075C285.577 176.901 286.032 176.605 286.396 176.213C286.873 175.63 286.962 174.839 287.156 174.115C287.527 172.696 288.327 171.433 288.923 170.085C289.892 167.806 290.216 165.303 289.859 162.852C289.789 162.1 289.543 161.375 289.139 160.736C288.371 159.64 286.975 159.198 285.959 158.328C284.943 157.457 284.293 156.119 283.11 155.465C282.041 154.873 280.737 154.943 279.532 155.147C277.151 155.546 274.868 156.398 272.808 157.656C272.124 158.076 271.368 158.562 270.6 158.416C269.906 158.284 269.402 157.7 268.956 157.157C268.393 158.457 268.151 159.874 268.25 161.288C268.285 161.494 268.285 161.705 268.25 161.911C268.15 162.159 267.999 162.383 267.808 162.569C267.092 163.396 266.646 164.708 267.366 165.543C267.671 165.91 268.144 166.109 268.444 166.48C268.978 167.147 268.797 168.101 268.784 168.958C268.754 169.254 268.829 169.552 268.996 169.798C269.311 170.089 269.755 170.195 270.167 170.076C270.57 169.956 270.993 169.916 271.412 169.957C271.858 170.103 272.24 170.398 272.495 170.792C273.793 172.489 274.31 174.358 274.871 176.403Z" fill="#2D293D"/>
<g opacity="0.1">
<path fill-rule="evenodd" clip-rule="evenodd" d="M287.721 176.241C287.349 176.657 286.878 176.972 286.352 177.157C283.613 178.312 280.481 178.179 277.491 177.992C277.174 177.997 276.861 177.926 276.578 177.785C276.163 177.457 275.888 176.981 275.811 176.456C275.231 174.339 274.697 172.4 273.314 170.64C273.051 170.231 272.656 169.925 272.195 169.774C271.762 169.728 271.324 169.77 270.908 169.897C270.486 170.014 270.035 169.905 269.712 169.609C269.538 169.352 269.461 169.042 269.493 168.733C269.493 167.849 269.693 166.854 269.141 166.167C268.831 165.777 268.347 165.575 268.027 165.195C267.608 164.621 267.534 163.864 267.835 163.219C267.315 164.054 267.087 165.126 267.698 165.855C268.013 166.235 268.502 166.442 268.812 166.827C269.365 167.519 269.178 168.509 269.164 169.398C269.132 169.705 269.21 170.013 269.383 170.269C269.708 170.571 270.167 170.681 270.593 170.557C271.01 170.433 271.447 170.391 271.88 170.434C272.341 170.585 272.736 170.891 272.999 171.3C274.368 173.06 274.916 174.999 275.496 177.121C275.499 177.555 275.684 177.969 276.005 178.261C276.326 178.552 276.754 178.696 277.185 178.656C280.175 178.839 283.284 178.972 286.046 177.817C286.569 177.637 287.039 177.33 287.416 176.924C287.602 176.684 287.746 176.415 287.84 176.126C287.803 176.167 287.763 176.205 287.721 176.241Z" fill="black"/>
<path fill-rule="evenodd" clip-rule="evenodd" d="M268.653 161.904C268.787 161.763 268.89 161.594 268.954 161.409C268.991 161.195 268.991 160.977 268.954 160.763C268.87 159.557 269.025 158.347 269.411 157.202L269.356 157.137C268.771 158.486 268.52 159.956 268.625 161.423C268.648 161.582 268.657 161.743 268.653 161.904Z" fill="black"/>
</g>
<path opacity="0.1" fill-rule="evenodd" clip-rule="evenodd" d="M274 183.249C274 183.249 285.928 185.094 287 183L274 183.249Z" fill="black"/>
<path opacity="0.1" fill-rule="evenodd" clip-rule="evenodd" d="M297 178C297 178 303.556 178 305 181L297 178Z" fill="black"/>
<path fill-rule="evenodd" clip-rule="evenodd" d="M441.206 172C441.206 172 442.004 173.12 440.836 174.816C439.668 176.512 438.689 177.945 439.093 179C439.093 179 440.858 175.853 442.292 175.806C443.727 175.76 442.786 173.871 441.206 172Z" fill="#4D7CFE"/>
<path opacity="0.1" fill-rule="evenodd" clip-rule="evenodd" d="M441.183 172C441.252 172.109 441.308 172.226 441.348 172.35C442.766 174.12 443.523 175.765 442.157 175.806C440.887 175.848 439.365 178.253 439 178.861C439 178.907 439.026 178.953 439.043 179C439.061 179.046 440.831 175.852 442.283 175.806C443.736 175.76 442.783 173.871 441.183 172Z" fill="black"/>
<path fill-rule="evenodd" clip-rule="evenodd" d="M443.097 173.26C443.097 173.668 443.056 174 443.002 174C442.948 174 442.903 173.668 442.903 173.26C442.903 172.852 442.957 173.046 443.011 173.046C443.065 173.046 443.097 172.857 443.097 173.26Z" fill="#FFD037"/>
<path fill-rule="evenodd" clip-rule="evenodd" d="M443.76 173.506C443.37 173.858 443.028 174.072 443.002 173.978C442.976 173.883 443.261 173.531 443.656 173.18C444.05 172.828 443.889 173.085 443.92 173.18C443.952 173.274 444.154 173.154 443.76 173.506Z" fill="#FFD037"/>
<path fill-rule="evenodd" clip-rule="evenodd" d="M436.797 172C436.797 172 435.995 173.12 437.166 174.816C438.337 176.512 439.311 177.945 438.907 179C438.907 179 437.145 175.853 435.708 175.806C434.271 175.76 435.219 173.871 436.797 172Z" fill="#4D7CFE"/>
<path opacity="0.1" fill-rule="evenodd" clip-rule="evenodd" d="M436.82 172C436.748 172.108 436.691 172.226 436.65 172.35C435.234 174.12 434.479 175.765 435.843 175.806C437.111 175.848 438.635 178.253 439 178.861C439 178.907 438.974 178.953 438.957 179C438.939 179.046 437.172 175.852 435.717 175.806C434.262 175.76 435.221 173.871 436.82 172Z" fill="black"/>
<path fill-rule="evenodd" clip-rule="evenodd" d="M434.898 173.259C434.898 173.667 434.943 174 434.997 174C435.087 173.765 435.12 173.51 435.092 173.259C435.092 172.855 435.038 173.045 434.984 173.045C434.93 173.045 434.898 172.855 434.898 173.259Z" fill="#FFD037"/>
<path fill-rule="evenodd" clip-rule="evenodd" d="M434.238 173.506C434.631 173.858 434.967 174.072 434.998 173.978C435.029 173.883 434.734 173.531 434.346 173.18C433.958 172.828 434.108 173.085 434.077 173.18C434.046 173.274 433.85 173.154 434.238 173.506Z" fill="#FFD037"/>
<path fill-rule="evenodd" clip-rule="evenodd" d="M435 178.14C435 178.14 437.415 178.075 438.143 177.622C438.871 177.168 441.851 176.63 442.041 177.355C442.231 178.079 445.671 180.966 442.968 180.998C440.266 181.031 436.632 180.63 435.904 180.241C435.176 179.852 435 178.14 435 178.14Z" fill="#A8A8A8"/>
<path opacity="0.2" fill-rule="evenodd" clip-rule="evenodd" d="M443.011 181.735C440.282 181.735 436.666 181.342 435.942 180.937C435.385 180.625 435.167 179.512 435.093 179H435C435 179 435.153 180.796 435.882 181.201C436.611 181.607 440.221 182.021 442.955 181.999C443.744 181.999 444.013 181.735 443.999 181.355C443.897 181.585 443.6 181.73 443.011 181.735Z" fill="black"/>
<defs>
<linearGradient id="paint0_linear" x1="423.011" y1="199.034" x2="423.011" y2="19.9942" gradientUnits="userSpaceOnUse">
<stop stop-color="#808080" stop-opacity="0.25"/>
<stop offset="0.54" stop-color="#808080" stop-opacity="0.12"/>
<stop offset="1" stop-color="#808080" stop-opacity="0.1"/>
</linearGradient>
<linearGradient id="paint1_linear" x1="311.972" y1="354.966" x2="311.972" y2="152.003" gradientUnits="userSpaceOnUse">
<stop stop-color="#808080" stop-opacity="0.25"/>
<stop offset="0.54" stop-color="#808080" stop-opacity="0.12"/>
<stop offset="1" stop-color="#808080" stop-opacity="0.1"/>
</linearGradient>
</defs>
</svg>
