<svg width="200" height="200" viewBox="0 0 200 200" fill="none" xmlns="http://www.w3.org/2000/svg">
<g clip-path="url(#clip0)">
<path d="M174.479 49.48L133.854 8.85315C129.512 4.51277 123.781 1.69018 116.664 0.389481V66.6668H182.942C181.64 59.5467 178.817 53.8185 174.479 49.48Z" fill="#604BFE"/>
<path d="M112.497 83.3324C109.023 83.3324 106.072 82.1179 103.642 79.6871C101.211 77.2576 99.9969 74.3059 99.9969 70.833V0H29.1635C25.6919 0 22.7402 1.2145 20.3099 3.64534C17.879 6.0748 16.6641 9.02646 16.6641 12.4994V187.501C16.6641 190.974 17.879 193.926 20.3099 196.356C22.7407 198.785 25.6919 200 29.1639 200H170.833C174.304 200 177.254 198.785 179.684 196.356C182.114 193.924 183.33 190.974 183.33 187.501V83.3324H112.497Z" fill="#604BFE"/>
</g>
<defs>
<clipPath id="clip0">
<rect width="200" height="200" fill="white"/>
</clipPath>
</defs>
</svg>
