<svg width="200" height="200" viewBox="0 0 200 200" fill="none" xmlns="http://www.w3.org/2000/svg">
<path d="M180 0H20C9 0 0 9 0 20V180C0 191 9 200 20 200H180C191 200 200 191 200 180V20C200 9 191 0 180 0ZM140 70V80C140 86 144 90 150 90C156 90 160 94 160 100V130C160 147 147 160 130 160H70C53 160 40 147 40 130V60C40 43 53 30 70 30H110C127 30 140 43 140 60V70ZM80 80H106C112 80 116 76 116 70C116 64 112 60 106 60H80C74 60 70 64 70 70C70 76 74 80 80 80ZM120 110H80C74 110 70 114 70 120C70 126 74 130 80 130H120C126 130 130 126 130 120C130 114 126 110 120 110Z" fill="#604BFE"/>
</svg>
