<svg width="200" height="200" viewBox="0 0 200 200" fill="none" xmlns="http://www.w3.org/2000/svg">
<g clip-path="url(#clip0)">
<path d="M72.8868 110.34C72.8868 107.835 70.8545 105.805 68.3471 105.805H52.5059C50.0013 105.805 47.9688 107.835 47.9688 110.34V126.179C47.9688 128.688 50.0013 130.718 52.5059 130.718H68.3471C70.8545 130.718 72.8868 128.688 72.8868 126.179V110.34Z" fill="#646079"/>
<path d="M112.465 110.34C112.465 107.835 110.432 105.805 107.929 105.805H92.086C89.5814 105.805 87.5488 107.835 87.5488 110.34V126.179C87.5488 128.688 89.5814 130.718 92.086 130.718H107.929C110.432 130.718 112.465 128.688 112.465 126.179V110.34Z" fill="#646079"/>
<path d="M152.066 110.34C152.066 107.835 150.034 105.805 147.529 105.805H131.688C129.181 105.805 127.148 107.835 127.148 110.34V126.179C127.148 128.688 129.181 130.718 131.688 130.718H147.529C150.034 130.718 152.066 128.688 152.066 126.179V110.34Z" fill="#646079"/>
<path d="M72.8868 149.933C72.8868 147.423 70.8545 145.395 68.3471 145.395H52.5059C50.0013 145.395 47.9688 147.423 47.9688 149.933V165.769C47.9688 168.276 50.0013 170.306 52.5059 170.306H68.3471C70.8545 170.306 72.8868 168.276 72.8868 165.769V149.933Z" fill="#646079"/>
<path d="M112.465 149.933C112.465 147.423 110.432 145.395 107.929 145.395H92.086C89.5814 145.395 87.5488 147.423 87.5488 149.933V165.769C87.5488 168.276 89.5814 170.306 92.086 170.306H107.929C110.432 170.306 112.465 168.276 112.465 165.769V149.933Z" fill="#646079"/>
<path d="M152.066 149.933C152.066 147.423 150.034 145.395 147.531 145.395H131.688C129.181 145.395 127.148 147.423 127.148 149.933V165.769C127.148 168.276 129.181 170.306 131.688 170.306H147.531C150.034 170.306 152.066 168.276 152.066 165.769V149.933Z" fill="#646079"/>
<path d="M180.385 22.2685V46.4618C180.385 57.3969 171.514 66.2089 160.581 66.2089H148.088C137.153 66.2089 128.165 57.3969 128.165 46.4618V22.1816H71.8545V46.4618C71.8545 57.3969 62.8663 66.2089 51.9336 66.2089H39.4379C28.5048 66.2089 19.6343 57.3969 19.6343 46.4618V22.2685C10.0786 22.5565 2.22656 30.4635 2.22656 40.1822V181.966C2.22656 191.868 10.2519 200 20.1534 200H179.866C189.753 200 197.793 191.851 197.793 181.966V40.1822C197.793 30.4635 189.941 22.5565 180.385 22.2685ZM174.583 173.137C174.583 177.416 171.113 180.887 166.833 180.887H32.8453C28.5647 180.887 25.0953 177.416 25.0953 173.137V99.9005C25.0953 95.6199 28.5643 92.1484 32.8453 92.1484H166.832C171.113 92.1484 174.582 95.6199 174.582 99.9005L174.583 173.137Z" fill="#646079"/>
<path d="M39.3957 53.2396H51.7533C55.5042 53.2396 58.5454 50.2028 58.5454 46.4519V6.7901C58.5454 3.03881 55.5042 0 51.7533 0H39.3957C35.6444 0 32.6035 3.03881 32.6035 6.7901V46.4519C32.6035 50.2028 35.6444 53.2396 39.3957 53.2396Z" fill="#646079"/>
<path d="M147.925 53.2396H160.282C164.031 53.2396 167.072 50.2028 167.072 46.4519V6.7901C167.072 3.03881 164.031 0 160.282 0H147.925C144.174 0 141.133 3.03881 141.133 6.7901V46.4519C141.133 50.2028 144.174 53.2396 147.925 53.2396Z" fill="#646079"/>
</g>
<defs>
<clipPath id="clip0">
<rect width="200" height="200" fill="white"/>
</clipPath>
</defs>
</svg>
