<svg width="200" height="200" viewBox="0 0 200 200" fill="none" xmlns="http://www.w3.org/2000/svg">
<path d="M60 160C49 160 40 169 40 180C40 191 49 200 60 200C71 200 80 191 80 180C80 169 71 160 60 160ZM0 0V20H20L56 96L42 120C41 123 40 127 40 130C40 141 49 150 60 150H180V130H64C63 130 62 129 62 128V127L71 110H145C153 110 159 106 162 99.9996L198 35C200 33 200 32 200 30C200 24 196 20 190 20H42L33 0H0ZM160 160C149 160 140 169 140 180C140 191 149 200 160 200C171 200 180 191 180 180C180 169 171 160 160 160Z" fill="#646079"/>
</svg>
