<svg width="200" height="200" viewBox="0 0 200 200" fill="none" xmlns="http://www.w3.org/2000/svg">
<path d="M200 100C200 44.8596 155.14 0 100 0C44.8596 0 0 44.8596 0 100C0 155.14 44.8596 200 100 200C105.021 200 109.094 195.928 109.094 190.906V109.094H190.911C195.928 109.094 200 105.021 200 100Z" fill="#646079"/>
<path d="M194.943 118.176H122.726C120.215 118.176 118.186 120.214 118.186 122.72V194.946C118.186 196.244 118.734 197.478 119.696 198.337C120.53 199.09 121.611 199.49 122.726 199.49C122.896 199.49 123.058 199.482 123.228 199.465C162.998 195.048 195.054 162.988 199.471 123.222C199.611 121.937 199.203 120.652 198.334 119.69C197.475 118.733 196.241 118.176 194.943 118.176ZM127.271 189.703V127.273H189.7C184.028 158.818 158.815 184.031 127.271 189.703Z" fill="#646079"/>
</svg>
