<svg width="200" height="200" viewBox="0 0 200 200" fill="none" xmlns="http://www.w3.org/2000/svg">
<path d="M200 100C200 44.8596 155.14 0 100 0C44.8596 0 0 44.8596 0 100C0 155.14 44.8596 200 100 200C105.021 200 109.094 195.928 109.094 190.906V109.094H190.911C195.928 109.094 200 105.021 200 100Z" fill="#604BFE"/>
<path d="M194.943 118.174H122.726C120.215 118.174 118.186 120.213 118.186 122.719V194.945C118.186 196.243 118.734 197.477 119.696 198.336C120.53 199.089 121.611 199.489 122.726 199.489C122.896 199.489 123.058 199.481 123.228 199.464C162.998 195.047 195.054 162.987 199.471 123.221C199.611 121.936 199.203 120.651 198.334 119.689C197.475 118.732 196.241 118.174 194.943 118.174ZM127.271 189.702V127.272H189.7C184.028 158.817 158.815 184.03 127.271 189.702Z" fill="#604BFE"/>
</svg>
