<svg width="200" height="200" viewBox="0 0 200 200" fill="none" xmlns="http://www.w3.org/2000/svg">
<g clip-path="url(#clip0)">
<path d="M186.361 163.637H154.543C134.493 163.637 118.18 147.324 118.18 127.274C118.18 107.224 134.493 90.9109 154.543 90.9109H186.361C188.873 90.9109 190.906 88.8778 190.906 86.3653V72.7292C190.906 63.1975 183.513 55.4458 174.172 54.6941L148.067 9.09828C145.648 4.8813 141.742 1.86729 137.068 0.615744C132.415 -0.627275 127.551 0.0255554 123.387 2.44895L33.8986 54.5475H18.1817C8.15441 54.5475 0 62.7015 0 72.7292V181.818C0 191.846 8.15399 200 18.1817 200H172.725C182.752 200 190.906 191.846 190.906 181.818V168.182C190.906 165.67 188.873 163.637 186.361 163.637ZM153.704 37.2484L163.609 54.5475H123.991L153.704 37.2484ZM51.9665 54.5475L127.963 10.3055C130.018 9.10254 132.42 8.78294 134.715 9.39571C137.036 10.017 138.972 11.5174 140.175 13.617L140.184 13.6336L69.9112 54.5475H51.9665Z" fill="#604BFE"/>
<path d="M186.356 100.001H154.538C139.499 100.001 127.266 112.235 127.266 127.274C127.266 142.313 139.499 154.546 154.538 154.546H186.356C193.875 154.546 199.992 148.429 199.992 140.91V113.638C199.992 106.118 193.875 100.001 186.356 100.001ZM154.538 136.364C149.527 136.364 145.447 132.285 145.447 127.274C145.447 122.262 149.527 118.183 154.538 118.183C159.549 118.183 163.629 122.262 163.629 127.274C163.629 132.285 159.55 136.364 154.538 136.364Z" fill="#604BFE"/>
</g>
<defs>
<clipPath id="clip0">
<rect width="200" height="200" fill="white"/>
</clipPath>
</defs>
</svg>
