<svg width="200" height="200" viewBox="0 0 200 200" fill="none" xmlns="http://www.w3.org/2000/svg">
<path d="M186.361 163.637H154.543C134.493 163.637 118.18 147.324 118.18 127.274C118.18 107.224 134.493 90.9108 154.543 90.9108H186.361C188.873 90.9108 190.906 88.8778 190.906 86.3653V72.7292C190.906 63.1975 183.513 55.4458 174.172 54.6941L148.067 9.09826C145.648 4.88128 141.742 1.86727 137.068 0.615729C132.415 -0.62729 127.551 0.0255399 123.387 2.44894L33.8986 54.5475H18.1817C8.15441 54.5475 0 62.7015 0 72.7292V181.818C0 191.846 8.15399 200 18.1817 200H172.725C182.752 200 190.906 191.846 190.906 181.818V168.182C190.906 165.67 188.873 163.637 186.361 163.637ZM153.704 37.2484L163.609 54.5475H123.991L153.704 37.2484ZM51.9665 54.5475L127.963 10.3055C130.018 9.10252 132.42 8.78293 134.715 9.3957C137.036 10.017 138.972 11.5174 140.175 13.6169L140.184 13.6336L69.9112 54.5475H51.9665Z" fill="#646079"/>
<path d="M186.356 100.002H154.538C139.499 100.002 127.266 112.236 127.266 127.275C127.266 142.314 139.499 154.547 154.538 154.547H186.356C193.875 154.547 199.992 148.43 199.992 140.911V113.639C199.992 106.119 193.875 100.002 186.356 100.002ZM154.538 136.365C149.527 136.365 145.447 132.286 145.447 127.275C145.447 122.263 149.527 118.184 154.538 118.184C159.549 118.184 163.629 122.263 163.629 127.275C163.629 132.286 159.55 136.365 154.538 136.365Z" fill="#646079"/>
</svg>
