<svg width="200" height="200" viewBox="0 0 200 200" fill="none" xmlns="http://www.w3.org/2000/svg">
<g clip-path="url(#clip0)">
<path d="M43.9746 19.5312H168.645L168.672 9.83789C168.687 7.20234 167.679 4.73711 165.832 2.87969C163.985 1.02266 161.526 0 158.907 0H43.9746C38.5898 0 34.209 4.38086 34.209 9.76562C34.209 15.1504 38.5898 19.5312 43.9746 19.5312Z" fill="#646079"/>
<path d="M110.645 95.6456C114.829 95.6456 118.233 92.2418 118.233 88.0574C118.233 83.873 114.829 80.4688 110.645 80.4688C106.461 80.4688 103.057 83.8726 103.057 88.0569C103.057 92.2413 106.461 95.6456 110.645 95.6456Z" fill="#646079"/>
<path d="M117.782 107.365H103.175C99.4676 107.365 96.3332 110.139 95.8844 113.82L91.377 150.781H129.58L125.072 113.82C124.624 110.139 121.489 107.365 117.782 107.365Z" fill="#646079"/>
<path d="M179.977 34.1128C178.132 32.266 175.678 31.2488 173.068 31.2488H43.9844C40.4703 31.2488 37.15 30.4007 34.2187 28.8984V35.155V47.2644H23.0859C22.8883 47.2644 22.693 47.275 22.5 47.2941C19.5391 47.5882 17.2266 50.0855 17.2266 53.1238C17.2266 56.1621 19.5391 58.6594 22.5 58.9535C22.693 58.9726 22.8883 58.9832 23.0859 58.9832H46.5234C49.7594 58.9832 52.3828 61.6066 52.3828 64.8426C52.3828 68.0785 49.7594 70.7019 46.5234 70.7019H34.2187V82.4207H23.0859C22.8883 82.4207 22.693 82.4313 22.5 82.4504C19.5391 82.7445 17.2266 85.2418 17.2266 88.2801C17.2266 91.3184 19.5391 93.8156 22.5 94.1098C22.693 94.1289 22.8883 94.1395 23.0859 94.1395H46.5234C49.7594 94.1395 52.3828 96.7629 52.3828 99.9989C52.3828 103.235 49.7594 105.858 46.5234 105.858H34.2187V117.577H23.0312C22.852 117.577 22.6754 117.588 22.5 117.604C19.5133 117.873 17.1719 120.38 17.1719 123.436C17.1719 126.493 19.5133 129 22.5 129.269C22.6754 129.284 22.852 129.296 23.0312 129.296H46.4687C49.7047 129.296 52.3281 131.919 52.3281 135.155C52.3281 138.391 49.7047 141.015 46.4687 141.015H34.2187V152.733H23.0859C22.8883 152.733 22.693 152.744 22.5 152.763C19.5391 153.057 17.2266 155.554 17.2266 158.593C17.2266 161.631 19.5391 164.128 22.5 164.422C22.693 164.442 22.8883 164.452 23.0859 164.452H46.5234C49.7594 164.452 52.3828 167.075 52.3828 170.311C52.3828 173.547 49.7594 176.171 46.5234 176.171H34.2187V190.233C34.2187 195.618 38.5996 199.999 43.9844 199.999H172.891C178.275 199.999 182.656 195.618 182.656 190.233L182.834 41.0253C182.837 38.4148 181.822 35.9601 179.977 34.1128ZM140.585 160.524C139.473 161.78 137.876 162.499 136.198 162.499H84.7605C83.0832 162.499 81.4859 161.78 80.3738 160.524C79.2617 159.268 78.741 157.595 78.9441 155.93L84.2527 112.4C85.0211 106.1 88.8222 100.823 94.0816 97.9594C92.3429 95.0617 91.3402 91.6742 91.3402 88.0559C91.3402 77.4098 100.001 68.7488 110.647 68.7488C121.293 68.7488 129.954 77.4098 129.954 88.0559C129.954 91.7328 128.92 95.1723 127.129 98.1008C132.257 100.995 135.95 106.201 136.705 112.4L142.014 155.93C142.218 157.595 141.697 159.268 140.585 160.524Z" fill="#646079"/>
</g>
<defs>
<clipPath id="clip0">
<rect width="200" height="200" fill="white"/>
</clipPath>
</defs>
</svg>
