<svg width="200" height="200" viewBox="0 0 200 200" fill="none" xmlns="http://www.w3.org/2000/svg">
<path d="M43.9746 19.5312H168.645L168.672 9.83789C168.687 7.20234 167.679 4.73711 165.832 2.87969C163.985 1.02266 161.526 0 158.907 0H43.9746C38.5898 0 34.209 4.38086 34.209 9.76562C34.209 15.1504 38.5898 19.5312 43.9746 19.5312V19.5312Z" fill="#604BFE"/>
<path d="M110.645 95.6457C114.829 95.6457 118.233 92.2418 118.233 88.0574C118.233 83.873 114.829 80.4688 110.645 80.4688C106.461 80.4688 103.057 83.8727 103.057 88.057C103.057 92.2414 106.461 95.6457 110.645 95.6457Z" fill="#604BFE"/>
<path d="M117.782 107.365H103.175C99.4676 107.365 96.3332 110.139 95.8844 113.82L91.377 150.781H129.58L125.072 113.82C124.624 110.139 121.489 107.365 117.782 107.365V107.365Z" fill="#604BFE"/>
<path d="M179.977 34.1138C178.132 32.267 175.678 31.2498 173.068 31.2498H43.9844C40.4703 31.2498 37.15 30.4017 34.2187 28.8994V35.156V47.2654H23.0859C22.8883 47.2654 22.693 47.276 22.5 47.2951C19.5391 47.5892 17.2266 50.0865 17.2266 53.1248C17.2266 56.1631 19.5391 58.6604 22.5 58.9545C22.693 58.9736 22.8883 58.9842 23.0859 58.9842H46.5234C49.7594 58.9842 52.3828 61.6076 52.3828 64.8436C52.3828 68.0795 49.7594 70.7029 46.5234 70.7029H34.2187V82.4217H23.0859C22.8883 82.4217 22.693 82.4323 22.5 82.4514C19.5391 82.7455 17.2266 85.2428 17.2266 88.2811C17.2266 91.3194 19.5391 93.8166 22.5 94.1108C22.693 94.1299 22.8883 94.1405 23.0859 94.1405H46.5234C49.7594 94.1405 52.3828 96.7639 52.3828 99.9999C52.3828 103.236 49.7594 105.859 46.5234 105.859H34.2187V117.578H23.0312C22.852 117.578 22.6754 117.589 22.5 117.605C19.5133 117.874 17.1719 120.381 17.1719 123.437C17.1719 126.494 19.5133 129.001 22.5 129.27C22.6754 129.285 22.852 129.297 23.0312 129.297H46.4687C49.7047 129.297 52.3281 131.92 52.3281 135.156C52.3281 138.392 49.7047 141.016 46.4687 141.016H34.2187V152.734H23.0859C22.8883 152.734 22.693 152.745 22.5 152.764C19.5391 153.058 17.2266 155.555 17.2266 158.594C17.2266 161.632 19.5391 164.129 22.5 164.423C22.693 164.443 22.8883 164.453 23.0859 164.453H46.5234C49.7594 164.453 52.3828 167.076 52.3828 170.312C52.3828 173.548 49.7594 176.172 46.5234 176.172H34.2187V190.234C34.2187 195.619 38.5996 200 43.9844 200H172.891C178.275 200 182.656 195.619 182.656 190.234L182.834 41.0263C182.837 38.4158 181.822 35.9611 179.977 34.1138V34.1138ZM140.585 160.525C139.473 161.781 137.876 162.5 136.198 162.5H84.7605C83.0832 162.5 81.4859 161.781 80.3738 160.525C79.2617 159.269 78.741 157.596 78.9441 155.931L84.2527 112.401C85.0211 106.101 88.8222 100.824 94.0816 97.9604C92.3429 95.0627 91.3402 91.6752 91.3402 88.0569C91.3402 77.4108 100.001 68.7498 110.647 68.7498C121.293 68.7498 129.954 77.4108 129.954 88.0569C129.954 91.7338 128.92 95.1733 127.129 98.1018C132.257 100.996 135.95 106.202 136.705 112.401L142.014 155.931C142.218 157.596 141.697 159.269 140.585 160.525V160.525Z" fill="#604BFE"/>
</svg>
