<svg width="200" height="200" viewBox="0 0 200 200" fill="none" xmlns="http://www.w3.org/2000/svg">
<g clip-path="url(#clip0)">
<path d="M198.229 168.698L111.342 18.1817C106.306 9.46026 93.6943 9.46026 88.658 18.1817L1.77104 168.698C-3.26529 177.419 3.04036 188.352 13.113 188.352H186.887C196.96 188.352 203.265 177.419 198.229 168.698ZM100.123 64.5323C105.691 64.5323 110.195 69.1592 110.032 74.7278L108.394 131.888C108.271 136.392 104.586 139.954 100.082 139.954C95.5778 139.954 91.8927 136.351 91.7698 131.888L90.173 74.7278C90.0501 69.1592 94.5132 64.5323 100.123 64.5323ZM99.9999 167.92C94.3085 167.92 89.6816 163.293 89.6816 157.602C89.6816 151.91 94.3085 147.283 99.9999 147.283C105.691 147.283 110.318 151.91 110.318 157.602C110.318 163.293 105.691 167.92 99.9999 167.92Z" fill="#646079"/>
</g>
<defs>
<clipPath id="clip0">
<rect width="200" height="200" fill="white"/>
</clipPath>
</defs>
</svg>
