<svg width="200" height="200" viewBox="0 0 200 200" fill="none" xmlns="http://www.w3.org/2000/svg">
<g clip-path="url(#clip0)">
<path d="M198.229 168.702L111.342 18.1854C106.306 9.46391 93.6943 9.46391 88.658 18.1854L1.77104 168.702C-3.26529 177.423 3.04036 188.356 13.113 188.356H186.887C196.96 188.356 203.265 177.423 198.229 168.702ZM100.123 64.536C105.691 64.536 110.195 69.1628 110.032 74.7315L108.394 131.892C108.271 136.396 104.586 139.958 100.082 139.958C95.5778 139.958 91.8927 136.355 91.7698 131.892L90.173 74.7315C90.0501 69.1628 94.5132 64.536 100.123 64.536ZM99.9999 167.924C94.3085 167.924 89.6816 163.297 89.6816 157.606C89.6816 151.914 94.3085 147.287 99.9999 147.287C105.691 147.287 110.318 151.914 110.318 157.606C110.318 163.297 105.691 167.924 99.9999 167.924Z" fill="#604BFE"/>
</g>
<defs>
<clipPath id="clip0">
<rect width="200" height="200" fill="white"/>
</clipPath>
</defs>
</svg>
