<svg width="175" height="200" viewBox="0 0 175 200" fill="none" xmlns="http://www.w3.org/2000/svg">
<path d="M155.391 12.5H19.6094C8.86719 12.5 0 21.3672 0 32.1094V167.891C0 178.633 8.86719 187.5 19.6094 187.5H155.391C166.133 187.5 175 178.633 175 167.891V32.1094C175 21.3672 166.133 12.5 155.391 12.5ZM137.656 123.555C137.656 125.195 136.25 125.898 134.609 126.602C128.086 129.414 121.094 131.953 113.594 131.953C103.086 131.953 98.2031 125.43 85.5859 125.43C76.4844 125.43 66.9141 128.711 59.2188 132.187C58.75 132.422 58.2813 132.422 57.8125 132.656V150.391C57.8125 151.094 57.8125 151.797 57.5781 152.266V152.734C56.6406 156.016 53.5938 158.32 50.1172 158.32C45.7031 158.32 42.1875 154.805 42.1875 150.391V65C39.1406 62.6562 37.0703 58.9453 37.0703 54.7266C37.0703 47.5 42.8906 41.6406 50.1562 41.6406C57.3828 41.6406 63.2422 47.4609 63.2422 54.7266C63.2422 58.9453 61.3672 62.6562 58.125 65V72.2266C58.8281 71.9922 59.5312 71.7578 60.2344 71.2891C67.4609 68.2422 76.0937 65.7031 84.2578 65.7031C93.125 65.7031 100.117 68.0469 108.047 71.0547C109.688 71.7578 111.328 71.9922 113.164 71.9922C122.031 71.9922 131.836 65.7031 134.18 65.7031C136.055 65.7031 137.695 67.1094 137.695 68.75V123.555H137.656Z" fill="#604BFE"/>
</svg>
