<svg width="200" height="200" viewBox="0 0 200 200" fill="none" xmlns="http://www.w3.org/2000/svg">
<path d="M111.945 175.076C110.441 177.202 108.239 178.746 105.729 179.44L93.242 182.85C92.2618 183.127 91.2504 183.271 90.23 183.271C87.9296 183.271 85.7053 182.568 83.83 181.248C81.0776 179.332 79.3501 176.311 79.0771 173.04L77.9806 160.146C77.721 157.501 78.4326 154.851 79.9364 152.721L80.3973 152.059H35.8574C32.2636 152.059 29.3501 149.096 29.3501 145.511C29.3501 141.913 32.2636 138.95 35.8574 138.95H89.769L101.817 121.742H35.8574C32.2636 121.742 29.3501 118.779 29.3501 115.185C29.3501 111.591 32.2636 108.629 35.8574 108.629L111.095 108.436L139.308 67.9825V38.0281C139.308 33.1051 135.499 29.1309 130.59 29.1309H108.991V46.2227C108.991 54.292 102.394 60.674 94.3385 60.674H50.8995C42.8257 60.674 36.4571 54.2875 36.4571 46.2227V29.1309H14.6258C9.70721 29.1309 5.72852 33.1096 5.72852 38.0281V190.879C5.72852 195.802 9.71169 199.996 14.6258 199.996H130.581C135.504 199.996 139.304 195.798 139.304 190.879V136.225L111.945 175.076ZM35.8574 78.3029H109.363C112.947 78.3029 115.865 81.2612 115.865 84.855C115.865 88.4488 112.947 91.4116 109.363 91.4116H35.8574C32.2636 91.4116 29.3501 88.4488 29.3501 84.855C29.3501 81.2612 32.2636 78.3029 35.8574 78.3029Z" fill="#604BFE"/>
<path d="M51.0213 52.0766H94.42C97.705 52.0766 100.377 49.4092 100.377 46.1153V21.1556C100.377 17.8616 97.705 15.1942 94.42 15.1942H87.8813C87.8366 6.80272 81.0159 0 72.6065 0C64.1926 0 57.381 6.79825 57.3317 15.1942H51.0213C47.7274 15.1942 45.0645 17.8616 45.0645 21.1556V46.1108C45.0645 49.4048 47.7274 52.0766 51.0213 52.0766ZM72.611 8.46312C76.348 8.46312 79.3779 11.4706 79.4182 15.1987H65.7904C65.8351 11.4706 68.8695 8.46312 72.611 8.46312Z" fill="#604BFE"/>
<path d="M194.212 40.1808C194.011 39.0709 193.379 38.0997 192.458 37.4553L181.591 29.8827C180.857 29.3681 180.011 29.1219 179.179 29.1219C177.854 29.1219 176.534 29.7485 175.724 30.9255L98.75 141.304L116.531 153.706L193.514 43.3316C194.149 42.4141 194.404 41.2818 194.212 40.1808Z" fill="#604BFE"/>
<path d="M86.6249 159.327L87.7393 172.288C87.793 173.035 88.1913 173.702 88.7955 174.132C89.2251 174.427 89.7309 174.597 90.2321 174.597C90.4514 174.597 90.6752 174.566 90.89 174.503L103.444 171.066C104.012 170.909 104.504 170.56 104.845 170.081L109.557 163.324L91.7627 150.918L87.0501 157.675C86.7189 158.154 86.5622 158.741 86.6249 159.327Z" fill="#604BFE"/>
</svg>
