<svg width="200" height="200" viewBox="0 0 200 200" fill="none" xmlns="http://www.w3.org/2000/svg">
<path d="M172.661 112.12C157.741 46.94 99.8607 61.7 99.8607 61.7C99.2407 61.86 98.6207 62.04 98.0207 62.22C71.4607 70.22 44.9407 78.32 18.3607 86.24C12.2807 88.06 10.3607 92.48 13.4407 97.4C18.3207 105.22 24.4607 112.14 30.0807 119.44C32.5207 122.62 35.8807 125.42 37.2607 129.04C44.2407 147.18 60.6007 158.16 79.0007 155.74C87.0407 154.68 94.9207 152.4 104.261 150.36C101.721 162.56 99.4607 173.5 97.1807 184.42C94.4807 197.34 96.3807 199.92 108.681 199.96C152.341 200.16 183.621 157.16 172.661 112.12ZM84.4407 141.3C72.4407 144.3 57.0607 139.74 51.3207 127.16C60.1007 124.5 68.6207 121.72 77.2407 119.34C89.6207 115.9 101.941 111.66 114.541 109.78C128.561 107.68 142.121 117.1 145.641 127.48C137.241 128.66 128.281 129.18 119.661 131.26C106.241 134.5 97.8207 137.96 84.4407 141.3ZM148.401 168.02C138.981 180.54 125.941 187.18 109.261 186.58C112.041 173.58 113.381 160.84 117.881 149.48C119.641 145.04 128.441 141.56 134.021 141.56C139.201 141.56 146.501 145.52 148.961 150.1C151.421 154.68 151.361 164.1 148.401 168.02ZM157.881 122.06C146.641 101.7 124.561 92 102.921 98.22C88.0607 102.5 73.3407 107.28 58.4807 111.54C45.1807 115.36 33.3807 109.84 27.5207 96.72C51.7407 89.36 75.0807 81.3 98.8807 75.3C130.101 67.44 159.481 92.26 162.341 129.12C160.321 125.94 158.981 124.06 157.881 122.06ZM158.141 0C141.701 0 128.301 13.38 128.301 29.84C128.301 46.28 141.681 59.68 158.141 59.68C174.601 59.68 187.981 46.3 187.981 29.84C187.981 13.38 174.601 0 158.141 0ZM158.141 49.2C147.461 49.2 138.761 40.5 138.761 29.82C138.761 19.14 147.461 10.44 158.141 10.44C168.821 10.44 177.521 19.14 177.521 29.82C177.521 40.52 168.841 49.2 158.141 49.2Z" fill="#604BFE"/>
</svg>
