<svg width="200" height="200" viewBox="0 0 200 200" fill="none" xmlns="http://www.w3.org/2000/svg">
<g clip-path="url(#clip0)">
<path d="M20.3379 3.83055C20.6025 3.9724 20.8428 4.15549 21.0498 4.37293L88.7108 72.034L92.8125 76.1356C96.7829 80.1011 103.215 80.1011 107.185 76.1356L111.287 72.034L178.948 4.37293C179.155 4.15549 179.395 3.9724 179.66 3.83055C176.209 1.33195 172.056 -0.00906057 167.796 4.60762e-05H32.2023C27.9421 -0.00906057 23.7885 1.33195 20.3379 3.83055Z" fill="#646079"/>
<path d="M16.2345 9.18647C16.017 8.97949 15.834 8.73919 15.6921 8.47461C13.1935 11.9252 11.8525 16.0787 11.8616 20.339V128.814C11.8397 133.023 13.1575 137.131 15.6243 140.542C15.7632 140.295 15.9342 140.067 16.1328 139.864L81.4887 74.4407L16.2345 9.18647Z" fill="#646079"/>
<path d="M113.693 79.2539L111.998 80.9488C105.359 87.547 94.638 87.547 87.9985 80.9488L86.3036 79.2539L20.9137 144.644C20.7061 144.875 20.452 145.06 20.168 145.187C23.6434 147.778 27.8667 149.17 32.2019 149.153H38.9815V162.712C38.9815 164.584 40.4992 166.102 42.3714 166.102C44.2435 166.102 45.7612 164.584 45.7612 162.712V149.153H69.49V176.271C69.49 178.143 71.0077 179.661 72.8798 179.661C74.752 179.661 76.2697 178.143 76.2697 176.271V149.153H96.6086V176.271C96.6086 178.143 98.1263 179.661 99.9985 179.661C101.871 179.661 103.388 178.143 103.388 176.271V149.153H123.727V176.271C123.727 178.143 125.245 179.661 127.117 179.661C128.989 179.661 130.507 178.143 130.507 176.271V149.153H154.236V162.712C154.236 164.584 155.753 166.102 157.626 166.102C159.498 166.102 161.015 164.584 161.015 162.712V149.153H167.795C172.129 149.163 176.35 147.772 179.829 145.187C179.545 145.06 179.291 144.875 179.083 144.644L113.693 79.2539Z" fill="#646079"/>
<path d="M183.756 9.18647L118.502 74.4407L183.858 139.864C184.057 140.067 184.228 140.295 184.366 140.542C186.833 137.131 188.151 133.023 188.129 128.814V20.339C188.138 16.0787 186.797 11.9252 184.299 8.47461C184.157 8.73919 183.974 8.97949 183.756 9.18647Z" fill="#646079"/>
<path d="M100.003 186.441C98.131 186.441 96.6133 187.958 96.6133 189.831V196.61C96.6133 198.482 98.131 200 100.003 200C101.875 200 103.393 198.482 103.393 196.61V189.831C103.393 187.958 101.875 186.441 100.003 186.441Z" fill="#646079"/>
<path d="M42.3742 172.881C40.5021 172.881 38.9844 174.399 38.9844 176.271V179.661C38.9844 181.533 40.5021 183.051 42.3742 183.051C44.2463 183.051 45.764 181.533 45.764 179.661V176.271C45.764 174.399 44.2463 172.881 42.3742 172.881Z" fill="#646079"/>
<path d="M157.634 172.881C155.762 172.881 154.244 174.399 154.244 176.271V179.661C154.244 181.533 155.762 183.051 157.634 183.051C159.506 183.051 161.024 181.533 161.024 179.661V176.271C161.024 174.399 159.506 172.881 157.634 172.881Z" fill="#646079"/>
</g>
<defs>
<clipPath id="clip0">
<rect width="200" height="200" fill="white"/>
</clipPath>
</defs>
</svg>
