<svg width="200" height="200" viewBox="0 0 200 200" fill="none" xmlns="http://www.w3.org/2000/svg">
<path d="M125 0V50H175L125 0Z" fill="#604BFE"/>
<path d="M125 62.5C118.113 62.5 112.5 56.8875 112.5 50V0H37.5C30.6125 0 25 5.6125 25 12.5V187.5C25 194.4 30.6125 200 37.5 200H162.5C169.4 200 175 194.4 175 187.5V62.5H125ZM68.75 38.275V31.25C68.75 27.8 71.55 25 75 25C78.45 25 81.25 27.8 81.25 31.25V38.2875C85.1625 39.175 88.8125 40.825 91.825 43.275C94.5125 45.45 94.9125 49.3875 92.725 52.0625C90.5375 54.75 86.6 55.1375 83.9375 52.9625C81.575 51.05 78.4 50 75 50C68.225 50 62.5 54.2875 62.5 59.375C62.5 64.4625 68.225 68.75 75 68.75C88.7875 68.75 100 78.5625 100 90.625C100 100.788 92 109.275 81.25 111.725V118.75C81.25 122.2 78.45 125 75 125C71.55 125 68.75 122.2 68.75 118.75V111.713C64.8375 110.825 61.1875 109.175 58.175 106.725C55.4875 104.538 55.0875 100.6 57.275 97.925C59.4625 95.225 63.3875 94.85 66.0625 97.025C68.425 98.95 71.6 100 75 100C81.775 100 87.5 95.7125 87.5 90.625C87.5 85.5375 81.775 81.25 75 81.25C61.2125 81.25 50 71.4375 50 59.375C50 49.2125 58 40.725 68.75 38.275ZM143.75 175H56.25C52.8 175 50 172.2 50 168.75C50 165.3 52.8 162.5 56.25 162.5H143.75C147.2 162.5 150 165.3 150 168.75C150 172.2 147.2 175 143.75 175ZM143.75 150H56.25C52.8 150 50 147.2 50 143.75C50 140.3 52.8 137.5 56.25 137.5H143.75C147.2 137.5 150 140.3 150 143.75C150 147.2 147.2 150 143.75 150ZM143.75 125H118.75C115.3 125 112.5 122.2 112.5 118.75C112.5 115.3 115.3 112.5 118.75 112.5H143.75C147.2 112.5 150 115.3 150 118.75C150 122.2 147.2 125 143.75 125ZM143.75 100H118.75C115.3 100 112.5 97.2 112.5 93.75C112.5 90.3 115.3 87.5 118.75 87.5H143.75C147.2 87.5 150 90.2875 150 93.75C150 97.2 147.2 100 143.75 100Z" fill="#604BFE"/>
</svg>
