<svg width="200" height="200" viewBox="0 0 200 200" fill="none" xmlns="http://www.w3.org/2000/svg">
<path d="M120.691 44.7324C129.939 50.5305 136.423 60.342 137.604 71.731C141.375 73.4932 145.561 74.5065 149.999 74.5065C166.2 74.5065 179.331 61.3753 179.331 45.1767C179.331 28.9755 166.2 15.8443 149.999 15.8443C133.952 15.8493 120.936 28.7459 120.691 44.7324ZM101.475 104.79C117.676 104.79 130.807 91.6561 130.807 75.4575C130.807 59.2588 117.674 46.1276 101.475 46.1276C85.2764 46.1276 72.1378 59.2613 72.1378 75.46C72.1378 91.6586 85.2764 104.79 101.475 104.79ZM113.917 106.789H89.0278C68.319 106.789 51.4714 123.639 51.4714 144.348V174.786L51.5487 175.263L53.6453 175.919C73.4082 182.094 90.5778 184.153 104.71 184.153C132.313 184.153 148.312 176.284 149.297 175.782L151.257 174.791H151.466V144.348C151.474 123.639 134.626 106.789 113.917 106.789ZM162.446 76.5083H137.749C137.482 86.3897 133.263 95.2877 126.592 101.687C144.999 107.161 158.468 124.231 158.468 144.393V153.773C182.853 152.879 196.905 145.968 197.831 145.504L199.79 144.51H200V114.062C200 93.3559 183.152 76.5083 162.446 76.5083ZM50.0062 74.5115C55.7444 74.5115 61.0832 72.8367 65.6059 69.9839C67.0436 60.6066 72.0704 52.4124 79.2512 46.8315C79.2812 46.2824 79.3336 45.7383 79.3336 45.1842C79.3336 28.983 66.1999 15.8518 50.0062 15.8518C33.8026 15.8518 20.6739 28.983 20.6739 45.1842C20.6739 61.3778 33.8026 74.5115 50.0062 74.5115ZM76.3484 101.687C69.7092 95.3202 65.5061 86.4696 65.1991 76.648C64.283 76.5806 63.377 76.5083 62.4435 76.5083H37.5565C16.8476 76.5083 0 93.3559 0 114.062V144.505L0.0773743 144.974L2.17397 145.636C18.0282 150.585 32.1777 152.867 44.4677 153.585V144.393C44.4727 124.231 57.9359 107.166 76.3484 101.687Z" fill="#604BFE"/>
</svg>
