<svg width="200" height="200" viewBox="0 0 200 200" fill="none" xmlns="http://www.w3.org/2000/svg">
<path d="M120.691 44.7318C129.939 50.5299 136.423 60.3415 137.604 71.7305C141.375 73.4927 145.561 74.506 149.999 74.506C166.2 74.506 179.331 61.3748 179.331 45.1762C179.331 28.975 166.2 15.8438 149.999 15.8438C133.952 15.8487 120.936 28.7453 120.691 44.7318ZM101.475 104.789C117.676 104.789 130.807 91.6555 130.807 75.4569C130.807 59.2582 117.674 46.1271 101.475 46.1271C85.2764 46.1271 72.1378 59.2607 72.1378 75.4594C72.1378 91.6581 85.2764 104.789 101.475 104.789ZM113.917 106.788H89.0278C68.319 106.788 51.4714 123.638 51.4714 144.347V174.785L51.5487 175.262L53.6453 175.918C73.4082 182.093 90.5778 184.152 104.71 184.152C132.313 184.152 148.312 176.283 149.297 175.781L151.257 174.79H151.466V144.347C151.474 123.638 134.626 106.788 113.917 106.788ZM162.446 76.5078H137.749C137.482 86.3892 133.263 95.2871 126.592 101.686C144.999 107.16 158.468 124.23 158.468 144.392V153.772C182.853 152.878 196.905 145.967 197.831 145.503L199.79 144.509H200V114.061C200 93.3553 183.152 76.5078 162.446 76.5078ZM50.0062 74.5109C55.7444 74.5109 61.0832 72.8362 65.6059 69.9834C67.0436 60.6061 72.0704 52.4119 79.2512 46.831C79.2812 46.2819 79.3336 45.7378 79.3336 45.1837C79.3336 28.9825 66.1999 15.8512 50.0062 15.8512C33.8026 15.8512 20.6739 28.9825 20.6739 45.1837C20.6739 61.3773 33.8026 74.5109 50.0062 74.5109ZM76.3484 101.686C69.7092 95.3196 65.5061 86.4691 65.1991 76.6475C64.283 76.5801 63.377 76.5078 62.4435 76.5078H37.5565C16.8476 76.5078 0 93.3553 0 114.061V144.504L0.0773743 144.973L2.17397 145.635C18.0282 150.584 32.1777 152.866 44.4677 153.584V144.392C44.4727 124.23 57.9359 107.165 76.3484 101.686Z" fill="#646079"/>
</svg>
