<svg width="200" height="200" viewBox="0 0 200 200" fill="none" xmlns="http://www.w3.org/2000/svg">
<g clip-path="url(#clip0)">
<path d="M103.615 158.143C97.7995 158.054 92.1926 155.963 87.7384 152.223L58.4076 126.391C53.7922 122.078 46.7345 121.737 41.724 125.583L0.0154866 156.259V176.172C-0.284275 181.513 3.80371 186.086 9.14533 186.386C9.42037 186.402 9.69644 186.405 9.97199 186.397H157.702C163.622 186.397 169.542 182.092 169.542 176.172V123.969L116.531 154.645C112.634 156.987 108.162 158.199 103.615 158.143Z" fill="#604BFE"/>
<path d="M101.459 105.94C107.998 105.94 113.299 100.639 113.299 94.0998C113.299 87.5607 107.998 82.2597 101.459 82.2597C94.9201 82.2597 89.6191 87.5607 89.6191 94.0998C89.6191 100.639 94.9201 105.94 101.459 105.94Z" fill="#604BFE"/>
<path d="M197.526 34.6312C195.808 32.2908 193.155 30.8167 190.261 30.5947L43.6069 13.6422C40.7478 13.4027 37.8944 14.1635 35.5344 15.7952C33.4443 17.6102 32.0233 20.0737 31.498 22.7917L29.0762 43.7806H157.701C169.964 44.0587 179.88 53.8561 180.305 66.1149V161.103C180.305 160.565 182.726 160.027 183.803 158.95C186.031 157.201 187.323 154.518 187.301 151.685L199.948 42.4348C200.228 39.6128 199.354 36.798 197.526 34.6312Z" fill="#604BFE"/>
<path d="M157.71 54.5436H9.97994C4.05991 54.5436 0.0234375 60.1943 0.0234375 66.1143V142.805L35.5431 116.972C44.5596 110.284 57.0332 110.846 65.4121 118.318L95.0117 144.15C99.4752 147.939 105.851 148.48 110.888 145.496L169.549 111.321V66.1143C169.142 59.7972 164.035 54.8058 157.71 54.5436ZM101.47 116.703C88.9866 116.703 78.8663 106.583 78.8663 94.0993C78.8663 81.6159 88.9861 71.4956 101.47 71.4956C113.953 71.4956 124.074 81.6154 124.074 94.0993C124.074 106.583 113.954 116.703 101.47 116.703Z" fill="#604BFE"/>
</g>
<defs>
<clipPath id="clip0">
<rect width="200" height="200" fill="white"/>
</clipPath>
</defs>
</svg>
