<svg width="200" height="200" viewBox="0 0 200 200" fill="none" xmlns="http://www.w3.org/2000/svg">
<path d="M103.615 158.143C97.7995 158.054 92.1926 155.963 87.7384 152.223L58.4076 126.391C53.7922 122.078 46.7345 121.737 41.724 125.583L0.0154866 156.259V176.172C-0.284275 181.513 3.80371 186.086 9.14533 186.386C9.42037 186.402 9.69644 186.405 9.97199 186.397H157.702C163.622 186.397 169.542 182.092 169.542 176.172V123.969L116.531 154.645C112.634 156.987 108.162 158.199 103.615 158.143Z" fill="#646079"/>
<path d="M101.459 105.94C107.998 105.94 113.299 100.639 113.299 94.0999C113.299 87.5608 107.998 82.2598 101.459 82.2598C94.9201 82.2598 89.6191 87.5608 89.6191 94.0999C89.6191 100.639 94.9201 105.94 101.459 105.94Z" fill="#646079"/>
<path d="M197.526 34.6318C195.808 32.2914 193.155 30.8173 190.261 30.5953L43.6069 13.6428C40.7478 13.4033 37.8944 14.1641 35.5344 15.7958C33.4443 17.6108 32.0233 20.0743 31.498 22.7923L29.0762 43.7812H157.701C169.964 44.0593 179.88 53.8567 180.305 66.1155V161.104C180.305 160.566 182.726 160.028 183.803 158.951C186.031 157.202 187.323 154.519 187.301 151.686L199.948 42.4354C200.228 39.6134 199.354 36.7986 197.526 34.6318Z" fill="#646079"/>
<path d="M157.71 54.5449H9.97994C4.05991 54.5449 0.0234375 60.1956 0.0234375 66.1156V142.806L35.5431 116.973C44.5596 110.285 57.0332 110.847 65.4121 118.319L95.0117 144.151C99.4752 147.94 105.851 148.481 110.888 145.497L169.549 111.322V66.1156C169.142 59.7985 164.035 54.8071 157.71 54.5449ZM101.47 116.704C88.9866 116.704 78.8663 106.584 78.8663 94.1006C78.8663 81.6172 88.9861 71.4969 101.47 71.4969C113.953 71.4969 124.074 81.6167 124.074 94.1006C124.074 106.584 113.954 116.704 101.47 116.704Z" fill="#646079"/>
</svg>
