<svg width="200" height="200" viewBox="0 0 200 200" fill="none" xmlns="http://www.w3.org/2000/svg">
<path d="M68.3917 5.88235V15.2078H56.627V5.88235C56.627 2.63529 59.2583 0 62.5093 0C65.7564 0 68.3917 2.63529 68.3917 5.88235Z" fill="#646079"/>
<path d="M105.88 5.88235V15.2078H94.1152V5.88235C94.1152 2.63529 96.7505 0 99.9976 0C103.245 0 105.88 2.63529 105.88 5.88235Z" fill="#646079"/>
<path d="M143.382 5.88235V15.2078H131.617V5.88235C131.617 2.63529 134.252 0 137.5 0C140.751 0 143.382 2.63529 143.382 5.88235Z" fill="#646079"/>
<path d="M161.118 26.9727H143.384V36.1334C143.384 39.2981 140.953 42.0236 137.792 42.1727C134.412 42.3334 131.62 39.6432 131.62 36.2981V26.9727H105.886V36.2981C105.886 39.5491 103.251 42.1805 100.004 42.1805C96.7568 42.1805 94.1215 39.5491 94.1215 36.2981V26.9727H68.3882V36.2981C68.3882 39.6432 65.596 42.3334 62.2157 42.1727C59.0549 42.0236 56.6235 39.2981 56.6235 36.1334V26.9727H38.8902C35.6431 26.9727 33.0078 29.608 33.0078 32.855V194.118C33.0078 197.365 35.6431 200 38.8902 200H161.118C164.365 200 167 197.365 167 194.118V32.855C167 29.608 164.365 26.9727 161.118 26.9727ZM137.502 162.902H62.5059C59.2549 162.902 56.6235 160.267 56.6235 157.02C56.6235 153.769 59.2549 151.137 62.5059 151.137H137.502C140.753 151.137 143.384 153.769 143.384 157.02C143.384 160.267 140.753 162.902 137.502 162.902ZM137.502 125.286H62.5059C59.2549 125.286 56.6235 122.655 56.6235 119.404C56.6235 116.157 59.2549 113.522 62.5059 113.522H137.502C140.753 113.522 143.384 116.157 143.384 119.404C143.384 122.655 140.753 125.286 137.502 125.286ZM137.502 87.6746H62.5059C59.2549 87.6746 56.6235 85.0433 56.6235 81.7923C56.6235 78.5452 59.2549 75.9099 62.5059 75.9099H137.502C140.753 75.9099 143.384 78.5452 143.384 81.7923C143.384 85.0433 140.753 87.6746 137.502 87.6746Z" fill="#646079"/>
</svg>
