<svg width="200" height="200" viewBox="0 0 200 200" fill="none" xmlns="http://www.w3.org/2000/svg">
<path d="M101.146 137.751C98.7326 140.164 98.7326 144.131 101.146 146.544C103.559 148.957 107.526 148.957 109.939 146.544C112.352 144.131 112.352 140.164 109.939 137.751C107.526 135.297 103.559 135.297 101.146 137.751Z" fill="#646079"/>
<path d="M70.3552 112.434C67.9421 110.02 63.9748 110.02 61.5618 112.434C59.1487 114.847 59.1487 118.814 61.5618 121.227C63.9748 123.64 67.9421 123.64 70.3552 121.227C72.7683 118.814 72.7683 114.888 70.3552 112.434Z" fill="#646079"/>
<path d="M169.53 12.6789C167.608 8.01636 161.719 0.163599 143.804 0C143.6 0 143.436 0 143.232 0C132.23 0 119.142 2.90389 106.258 8.22086C103.886 9.20245 101.596 10.2249 99.3873 11.3292L99.2646 11.2065C91.9026 4.04908 80.1644 4.04908 72.8024 11.2065L36.7288 46.2577C31.9435 50.8793 29.2441 57.2597 29.2441 63.9264V182.658C29.2441 192.229 37.0151 200 46.5857 200H125.522C135.093 200 142.864 192.229 142.864 182.658V63.9264C142.864 60.5317 142.168 57.1779 140.819 54.1513C148.467 49.8568 155.134 44.9489 160.246 39.7955C172.762 27.0757 171.453 17.3415 169.53 12.6789ZM50.921 116.851C50.921 108.589 57.6695 101.84 65.9313 101.84C74.193 101.84 80.9415 108.589 80.9415 116.851C80.9415 125.112 74.193 131.861 65.9313 131.861C57.6695 131.861 50.9619 125.153 50.921 116.851ZM63.6818 156.115C62.1276 154.806 61.9231 152.515 63.191 150.961L102.618 103.476C103.927 101.922 106.218 101.718 107.772 102.986C109.326 104.294 109.53 106.585 108.263 108.139L68.8351 155.624C67.5264 157.178 65.236 157.382 63.6818 156.115ZM105.563 157.178C97.3014 157.178 90.5529 150.429 90.5529 142.168C90.5529 133.906 97.3014 127.157 105.563 127.157C113.825 127.157 120.573 133.906 120.573 142.168C120.573 150.429 113.825 157.178 105.563 157.178ZM122.209 46.9121C114.684 50.0204 106.954 52.229 99.919 53.2924C99.919 53.6196 99.9599 53.9059 99.9599 54.2331C99.9599 62.1677 93.5386 68.589 85.6041 68.589C77.6695 68.589 71.2482 62.1677 71.2482 54.2331C71.2482 46.2986 77.6695 39.8773 85.6041 39.8773C90.3484 39.8773 94.5202 42.1677 97.1378 45.6851C103.804 44.5399 111.003 42.454 118.079 39.5501C120.573 38.5276 122.905 37.4642 125.113 36.3599L110.635 22.2495C111.044 22.0859 111.453 21.9223 111.862 21.7178C122.864 17.1779 134.275 14.6012 143.273 14.6012C143.395 14.6012 143.559 14.6012 143.682 14.6012C152.312 14.683 155.543 17.0143 156.034 18.2413C157.547 22.0041 147.935 36.319 122.209 46.9121Z" fill="#646079"/>
</svg>
