<svg width="200" height="200" viewBox="0 0 200 200" fill="none" xmlns="http://www.w3.org/2000/svg">
<path d="M129.497 17.1387C132.51 17.1387 135.367 17.8082 137.935 18.9983C136.384 11.6695 129.868 6.15234 122.085 6.15234H42.2454C34.4646 6.15234 27.9517 11.6661 26.3965 18.9903C28.9588 17.8047 31.8073 17.1387 34.809 17.1387H129.497Z" fill="#604BFE"/>
<path d="M34.8209 160.693C31.6817 160.693 28.7074 159.968 26.0547 158.679V177.45C26.0547 186.384 33.324 193.652 42.2572 193.652H122.097C131.03 193.652 138.298 186.384 138.298 177.45V158.67C135.641 159.966 132.66 160.693 129.509 160.693H34.8209ZM96.8249 182.666H67.5281C64.4942 182.666 62.0349 180.207 62.0349 177.173C62.0349 174.139 64.4942 171.68 67.5281 171.68H96.8249C99.8599 171.68 102.318 174.139 102.318 177.173C102.318 180.207 99.8599 182.666 96.8249 182.666Z" fill="#604BFE"/>
<path d="M34.8209 149.707H118.085C97.3113 144.517 81.8149 124.872 81.8149 101.494V81.673C81.8149 74.3614 86.4131 68.1049 92.8687 65.6399V61.7008C92.8687 45.7741 103.586 32.3067 118.185 28.125H34.8209C30.6781 28.125 27.1728 30.9013 26.0547 34.6939V143.138C27.1728 146.931 30.6781 149.707 34.8209 149.707V149.707Z" fill="#604BFE"/>
<path d="M106.016 62.7708V65.4785H117.002V62.7708C117.002 56.3873 122.195 51.1963 128.577 51.1963H138.389C144.77 51.1963 149.961 56.3873 149.961 62.7708V65.4785H160.948V62.7708C160.948 50.3311 150.829 40.21 138.389 40.21H128.577C116.137 40.21 106.016 50.3311 106.016 62.7708Z" fill="#604BFE"/>
<path d="M166.07 76.4648H100.884C97.8511 76.4648 95.3906 78.9242 95.3906 81.958V101C95.3906 121.194 110.802 137.622 129.744 137.622H137.211C156.153 137.622 171.563 121.194 171.563 101V81.958C171.563 78.9242 169.105 76.4648 166.07 76.4648ZM138.97 110.065C138.97 113.098 136.512 115.558 133.477 115.558C130.443 115.558 127.983 113.098 127.983 110.065V104.022C127.983 100.988 130.443 98.529 133.477 98.529C136.512 98.529 138.97 100.988 138.97 104.022V110.065Z" fill="#604BFE"/>
</svg>
