<svg width="200" height="200" viewBox="0 0 200 200" fill="none" xmlns="http://www.w3.org/2000/svg">
<path d="M108.227 8.13008C108.227 3.63821 104.589 0 100.097 0C95.605 0 91.9668 3.63821 91.9668 8.13008V14.7764H108.227V8.13008Z" fill="#646079"/>
<path d="M197.373 38.5369C197.373 31.8092 191.906 26.3418 185.178 26.3418H14.8123C8.08467 26.3418 2.61719 31.8092 2.61719 38.5369V128.476C2.61719 135.204 8.08467 140.671 14.8123 140.671H185.178C191.906 140.671 197.373 135.204 197.373 128.476V38.5369Z" fill="#646079"/>
<path d="M180.282 160.976C180.282 156.708 177.01 153.212 172.823 152.866C172.599 152.846 172.376 152.846 172.152 152.846H146.542H128.087H108.229H91.969H71.908H53.4324H27.843C27.6194 152.846 27.3958 152.866 27.1722 152.866C23.0056 153.212 19.7129 156.708 19.7129 160.976C19.7129 165.468 23.3511 169.106 27.843 169.106H44.6926L34.5096 188.008C32.3755 191.972 33.8592 196.89 37.8226 199.025C39.0422 199.675 40.3633 200 41.6641 200C44.5503 200 47.3552 198.455 48.8389 195.732L63.1682 169.106H91.9893V191.87C91.9893 196.362 95.6273 200 100.119 200C104.611 200 108.249 196.362 108.249 191.87V169.106H136.867L151.197 195.732C152.66 198.455 155.465 200 158.371 200C159.672 200 160.993 199.695 162.213 199.025C166.176 196.89 167.639 191.972 165.526 188.008L155.343 169.106H172.192C176.644 169.106 180.282 165.447 180.282 160.976Z" fill="#646079"/>
<path d="M168.574 39H30C26.134 39 23 42.134 23 46V120C23 123.866 26.134 127 30 127H168.574C172.44 127 175.574 123.866 175.574 120V46C175.574 42.134 172.44 39 168.574 39Z" fill="#646079" stroke="white" stroke-width="6"/>
</svg>
