<svg width="200" height="200" viewBox="0 0 200 200" fill="none" xmlns="http://www.w3.org/2000/svg">
<path d="M0 184.001C0 186.211 0.877974 188.331 2.44078 189.894C4.00358 191.457 6.1232 192.335 8.33333 192.335H191.667C193.877 192.335 195.996 191.457 197.559 189.894C199.122 188.331 200 186.211 200 184.001V175.668H0V184.001Z" fill="#646079"/>
<path d="M200 122H0V166H200V122Z" fill="#646079"/>
<path d="M191.667 0H8.33333C6.1232 0 4.00358 0.877974 2.44078 2.44078C0.877974 4.00358 0 6.1232 0 8.33333V133.333H200V8.33333C200 6.1232 199.122 4.00358 197.559 2.44078C195.996 0.877974 193.877 0 191.667 0ZM135.774 116.309L114.628 95.1636C106.004 100.867 95.5692 103.164 85.3471 101.611C75.125 100.057 65.8441 94.7631 59.3038 86.7551C52.7636 78.747 49.4301 68.5955 49.9497 58.2692C50.4693 47.9428 54.8051 38.1772 62.1162 30.8662C69.4272 23.5551 79.1928 19.2194 89.5191 18.6997C99.8455 18.1801 109.997 21.5136 118.005 28.0539C126.013 34.5941 131.307 43.875 132.861 54.0971C134.414 64.3192 132.117 74.754 126.414 83.3781L147.559 104.524L135.774 116.309Z" fill="#646079"/>
<path d="M91.6699 85.416C105.477 85.416 116.67 74.2231 116.67 60.416C116.67 46.6089 105.477 35.416 91.6699 35.416C77.8628 35.416 66.6699 46.6089 66.6699 60.416C66.6699 74.2231 77.8628 85.416 91.6699 85.416Z" fill="#646079"/>
</svg>
