<svg width="200" height="200" viewBox="0 0 200 200" fill="none" xmlns="http://www.w3.org/2000/svg">
<g clip-path="url(#clip0)">
<path d="M0 184C0 186.21 0.877974 188.33 2.44078 189.893C4.00358 191.456 6.1232 192.334 8.33333 192.334H191.667C193.877 192.334 195.996 191.456 197.559 189.893C199.122 188.33 200 186.21 200 184V175.667H0V184Z" fill="#604BFE"/>
<rect y="122" width="200" height="44" fill="#604BFE"/>
<path d="M191.667 0H8.33333C6.1232 0 4.00358 0.877974 2.44078 2.44078C0.877974 4.00358 0 6.1232 0 8.33333L0 133.333H200V8.33333C200 6.1232 199.122 4.00358 197.559 2.44078C195.996 0.877974 193.877 0 191.667 0V0ZM135.774 116.309L114.628 95.1636C106.004 100.867 95.5692 103.164 85.3471 101.611C75.125 100.057 65.8441 94.7631 59.3038 86.7551C52.7636 78.747 49.4301 68.5955 49.9497 58.2692C50.4693 47.9428 54.8051 38.1772 62.1162 30.8662C69.4272 23.5551 79.1928 19.2194 89.5191 18.6997C99.8455 18.1801 109.997 21.5136 118.005 28.0539C126.013 34.5941 131.307 43.875 132.861 54.0971C134.414 64.3192 132.117 74.754 126.414 83.3781L147.559 104.524L135.774 116.309Z" fill="#604BFE"/>
<path d="M91.6699 85.4167C105.477 85.4167 116.67 74.2238 116.67 60.4167C116.67 46.6096 105.477 35.4167 91.6699 35.4167C77.8628 35.4167 66.6699 46.6096 66.6699 60.4167C66.6699 74.2238 77.8628 85.4167 91.6699 85.4167Z" fill="#604BFE"/>
</g>
<defs>
<clipPath id="clip0">
<rect width="200" height="200" fill="white"/>
</clipPath>
</defs>
</svg>
