<svg width="200" height="200" viewBox="0 0 200 200" fill="none" xmlns="http://www.w3.org/2000/svg">
<g clip-path="url(#clip0)">
<path d="M81.6331 169.387C81.3775 168.707 81.2895 168.129 81.3762 167.661C81.4624 167.197 81.1653 166.812 80.484 166.515C79.8027 166.218 79.4627 165.983 79.4627 165.815C79.4627 165.645 78.9744 165.517 77.9956 165.433C77.0172 165.348 76.5289 165.304 76.5289 165.304H74.8714H73.4686H36.7339C31.1218 165.304 26.3169 163.308 22.3198 159.308C18.3236 155.312 16.3257 150.508 16.3257 144.897V55.1004C16.3257 49.4883 18.3232 44.6852 22.3198 40.6886C26.3169 36.6915 31.1218 34.6922 36.7339 34.6922H77.5497C78.6555 34.6922 79.5248 34.4179 80.1641 33.864C80.8008 33.3113 81.2252 32.4817 81.4387 31.3764C81.6514 30.2712 81.7796 29.2731 81.8225 28.3801C81.8645 27.4879 81.8439 26.3603 81.7582 24.9999C81.6737 23.64 81.6313 22.7898 81.6313 22.4481C81.6313 21.3428 81.227 20.3881 80.4197 19.5786C79.6115 18.7726 78.6554 18.3683 77.5502 18.3683H36.7339C26.6158 18.3683 17.9631 21.9611 10.777 29.1462C3.59279 36.3314 0 44.9828 0 55.1017V144.897C0 155.015 3.59279 163.668 10.777 170.851C17.9631 178.039 26.6158 181.632 36.7339 181.632H77.5515C78.6572 181.632 79.5271 181.354 80.1659 180.804C80.8025 180.25 81.227 179.422 81.4405 178.315C81.6532 177.211 81.7814 176.208 81.8243 175.319C81.8663 174.426 81.8457 173.3 81.7599 171.94C81.6746 170.578 81.6331 169.728 81.6331 169.387Z" fill="#604BFE"/>
<path d="M197.582 94.2602L128.195 24.8709C126.58 23.2572 124.666 22.4477 122.455 22.4477C120.244 22.4477 118.33 23.2572 116.714 24.8709C115.098 26.4868 114.291 28.402 114.291 30.6117V67.3464H57.1483C54.936 67.3464 53.0235 68.1559 51.4076 69.7696C49.7917 71.3855 48.9844 73.2994 48.9844 75.5104V124.491C48.9844 126.701 49.7917 128.615 51.4076 130.23C53.0253 131.843 54.9374 132.655 57.1483 132.655H114.291V169.389C114.291 171.598 115.099 173.514 116.714 175.128C118.33 176.744 120.244 177.553 122.456 177.553C124.666 177.553 126.58 176.744 128.195 175.128L197.582 105.742C199.198 104.125 200.005 102.214 200.005 100.002C200.005 97.7918 199.198 95.8761 197.582 94.2602Z" fill="#604BFE"/>
</g>
<defs>
<clipPath id="clip0">
<rect width="200" height="200" fill="white"/>
</clipPath>
</defs>
</svg>
