<svg width="200" height="200" viewBox="0 0 200 200" fill="none" xmlns="http://www.w3.org/2000/svg">
<path d="M124.999 108.332C120.391 108.332 116.666 112.066 116.666 116.665V149.999C116.666 154.59 112.932 158.332 108.332 158.332H83.332V33.3325C83.332 26.2158 78.7986 19.8576 71.9826 17.491L69.5153 16.6655H108.332C112.932 16.6655 116.666 20.4069 116.666 24.9997V49.9995C116.666 54.5984 120.391 58.3322 124.999 58.3322C129.607 58.3322 133.331 54.5984 133.331 49.9995V24.9997C133.331 11.2166 122.115 0 108.332 0H18.7498C18.4324 0 18.1669 0.141906 17.8587 0.183104C17.4574 0.149535 17.0744 0 16.667 0C7.4752 0 0 7.47368 0 16.6655V166.664C0 173.781 4.53334 180.139 11.3494 182.506L61.4999 199.223C63.1997 199.748 64.8904 199.998 66.6665 199.998C75.8583 199.998 83.332 192.523 83.332 183.331V174.999H108.332C122.115 174.999 133.331 163.782 133.331 149.999V116.665C133.331 112.066 129.607 108.332 124.999 108.332Z" fill="#646079"/>
<path d="M197.545 77.4424L164.211 44.11C161.829 41.7266 158.245 41.0094 155.129 42.3003C152.021 43.5927 149.987 46.6337 149.987 50.0013V75.0011H116.655C112.054 75.0011 108.32 78.7332 108.32 83.3337C108.32 87.9342 112.054 91.6665 116.655 91.6665H149.987V116.666C149.987 120.033 152.021 123.074 155.129 124.367C158.245 125.658 161.829 124.941 164.211 122.559L197.545 89.2251C200.803 85.9674 200.803 80.7002 197.545 77.4424Z" fill="#646079"/>
</svg>
