<svg width="200" height="200" viewBox="0 0 200 200" fill="none" xmlns="http://www.w3.org/2000/svg">
<g clip-path="url(#clip0)">
<path d="M81.6331 169.388C81.3775 168.708 81.2895 168.13 81.3762 167.662C81.4624 167.198 81.1653 166.813 80.484 166.516C79.8027 166.219 79.4627 165.984 79.4627 165.816C79.4627 165.646 78.9744 165.518 77.9956 165.434C77.0172 165.349 76.5289 165.305 76.5289 165.305H74.8714H73.4686H36.7339C31.1218 165.305 26.3169 163.309 22.3198 159.309C18.3236 155.313 16.3257 150.509 16.3257 144.898V55.1012C16.3257 49.4891 18.3232 44.686 22.3198 40.6894C26.3169 36.6923 31.1218 34.693 36.7339 34.693H77.5497C78.6555 34.693 79.5248 34.4187 80.1641 33.8648C80.8008 33.3121 81.2252 32.4825 81.4387 31.3772C81.6514 30.272 81.7796 29.2739 81.8225 28.3809C81.8645 27.4887 81.8439 26.3611 81.7582 25.0007C81.6737 23.6408 81.6313 22.7906 81.6313 22.4489C81.6313 21.3436 81.227 20.3889 80.4197 19.5794C79.6115 18.7734 78.6554 18.3691 77.5502 18.3691H36.7339C26.6158 18.3691 17.9631 21.9619 10.777 29.147C3.59279 36.3322 0 44.9836 0 55.1025V144.898C0 155.016 3.59279 163.669 10.777 170.852C17.9631 178.04 26.6158 181.633 36.7339 181.633H77.5515C78.6572 181.633 79.5271 181.355 80.1659 180.805C80.8025 180.251 81.227 179.423 81.4405 178.316C81.6532 177.212 81.7814 176.209 81.8243 175.32C81.8663 174.427 81.8457 173.301 81.7599 171.941C81.6746 170.579 81.6331 169.729 81.6331 169.388Z" fill="#646079"/>
<path d="M197.582 94.2617L128.195 24.8724C126.58 23.2587 124.666 22.4492 122.455 22.4492C120.244 22.4492 118.33 23.2587 116.714 24.8724C115.098 26.4883 114.291 28.4035 114.291 30.6132V67.3479H57.1483C54.936 67.3479 53.0235 68.1574 51.4076 69.7711C49.7917 71.387 48.9844 73.3009 48.9844 75.5119V124.493C48.9844 126.703 49.7917 128.617 51.4076 130.232C53.0253 131.845 54.9374 132.657 57.1483 132.657H114.291V169.391C114.291 171.6 115.099 173.516 116.714 175.13C118.33 176.746 120.244 177.555 122.456 177.555C124.666 177.555 126.58 176.746 128.195 175.13L197.582 105.744C199.198 104.127 200.005 102.216 200.005 100.004C200.005 97.7933 199.198 95.8776 197.582 94.2617Z" fill="#646079"/>
</g>
<defs>
<clipPath id="clip0">
<rect width="200" height="200" fill="white"/>
</clipPath>
</defs>
</svg>
