<svg width="200" height="200" viewBox="0 0 200 200" fill="none" xmlns="http://www.w3.org/2000/svg">
<path d="M124.999 108.332C120.391 108.332 116.666 112.066 116.666 116.665V149.999C116.666 154.59 112.932 158.332 108.332 158.332H83.332V33.3329C83.332 26.2162 78.7986 19.858 71.9826 17.4914L69.5153 16.6659H108.332C112.932 16.6659 116.666 20.4073 116.666 25.0001V49.9999C116.666 54.5988 120.391 58.3326 124.999 58.3326C129.607 58.3326 133.331 54.5988 133.331 49.9999V25.0001C133.331 11.217 122.115 0.000366211 108.332 0.000366211H18.7498C18.4324 0.000366211 18.1669 0.142272 17.8587 0.18347C17.4574 0.149901 17.0744 0.000366211 16.667 0.000366211C7.4752 0.000366211 0 7.47405 0 16.6659V166.664C0 173.781 4.53334 180.139 11.3494 182.506L61.4999 199.223C63.1997 199.748 64.8904 199.998 66.6665 199.998C75.8583 199.998 83.332 192.523 83.332 183.331V174.999H108.332C122.115 174.999 133.331 163.782 133.331 149.999V116.665C133.331 112.066 129.607 108.332 124.999 108.332V108.332Z" fill="#604BFE"/>
<path d="M197.545 77.443L164.211 44.1106C161.829 41.7272 158.245 41.01 155.129 42.3009C152.021 43.5933 149.987 46.6343 149.987 50.0019V75.0017H116.655C112.054 75.0017 108.32 78.7339 108.32 83.3344C108.32 87.9349 112.054 91.6671 116.655 91.6671H149.987V116.667C149.987 120.034 152.021 123.075 155.129 124.368C158.245 125.659 161.829 124.942 164.211 122.56L197.545 89.2257C200.803 85.968 200.803 80.7008 197.545 77.443V77.443Z" fill="#604BFE"/>
</svg>
