<svg width="200" height="200" viewBox="0 0 200 200" fill="none" xmlns="http://www.w3.org/2000/svg">
<path d="M186.609 49.8182C177.68 38.8437 165.551 30.1753 150.225 23.8136C134.9 17.4527 118.157 14.2715 100.002 14.2715C86.4592 14.2715 73.5127 16.1498 61.1619 19.9073C48.811 23.6643 38.1716 28.7426 29.2428 35.141C20.3125 41.5402 13.2085 49.1481 7.92493 57.9644C2.64138 66.781 0 76.0264 0 85.6991C0 96.8592 3.36574 107.316 10.1 117.063C16.8342 126.809 26.0405 134.994 37.7233 141.616C36.9039 144.592 35.9368 147.42 34.8204 150.096C33.7043 152.775 32.7001 154.973 31.8072 156.684C30.9136 158.395 29.7057 160.293 28.1792 162.376C26.655 164.459 25.5018 165.929 24.7204 166.784C23.9398 167.64 22.6564 169.056 20.8695 171.025C19.085 172.998 17.9311 174.28 17.4108 174.877C17.3353 174.912 17.0382 175.249 16.5175 175.88C15.9972 176.512 15.7361 176.828 15.7361 176.828L15.0665 177.831C14.6939 178.39 14.5266 178.743 14.5634 178.889C14.6009 179.035 14.5266 179.409 14.3406 180.003C14.1541 180.6 14.1732 181.047 14.3961 181.345V181.456C14.6951 182.797 15.346 183.875 16.3498 184.692C17.3537 185.51 18.4897 185.845 19.7539 185.694C24.5914 185.099 28.832 184.284 32.4772 183.241C51.9719 178.253 69.0856 169.253 83.8171 156.23C89.3962 156.825 94.7907 157.123 99.9992 157.123C118.154 157.123 134.896 153.942 150.223 147.579C165.55 141.218 177.678 132.549 186.606 121.576C195.535 110.607 200 98.6449 200 85.6987C200 72.7521 195.536 60.7906 186.609 49.8182Z" fill="#646079"/>
</svg>
