<svg width="200" height="200" viewBox="0 0 200 200" fill="none" xmlns="http://www.w3.org/2000/svg">
<path d="M144.399 138.559L100.041 104.824L56.5666 138.535C52.9357 141.327 50.8118 145.65 50.8203 150.229V168.853H150.274V150.337C150.246 145.712 148.077 141.362 144.399 138.559Z" fill="#646079"/>
<path d="M38.5354 0H160.918C161.377 0 161.749 0.371414 161.749 0.830345V22.6669C161.749 23.1259 161.377 23.4973 160.918 23.4973H38.5354C38.0765 23.4973 37.7051 23.1259 37.7051 22.6669V0.830345C37.7051 0.371414 38.0765 0 38.5354 0Z" fill="#646079"/>
<path d="M38.5354 176.504H160.918C161.377 176.504 161.749 176.875 161.749 177.334V199.171C161.749 199.63 161.377 200.001 160.918 200.001H38.5354C38.0765 200.001 37.7051 199.63 37.7051 199.171V177.334C37.7051 176.875 38.0765 176.504 38.5354 176.504Z" fill="#646079"/>
<path d="M50.2734 48.2548C50.2713 52.7566 52.3248 57.0129 55.851 59.8113L99.9895 95.102L144.141 59.8113C147.669 57.0129 149.727 52.7566 149.727 48.2548V31.1484H50.2734V48.2548Z" fill="#646079"/>
</svg>
