<svg width="200" height="200" viewBox="0 0 200 200" fill="none" xmlns="http://www.w3.org/2000/svg">
<path d="M53.6516 0C50.3379 0 47.6516 2.68629 47.6516 6V16.4142C47.6516 18.2804 46.7832 20.0404 45.3022 21.1758L38.3728 26.4884C35.2403 28.89 35.2403 33.61 38.3728 36.0116L45.3022 41.3242C46.7832 42.4596 47.6516 44.2196 47.6516 46.0858V56.5C47.6516 59.8137 50.3379 62.5 53.6516 62.5H193.995C197.309 62.5 199.995 59.8137 199.995 56.5V6C199.995 2.68629 197.309 0 193.995 0H53.6516ZM160.933 39.0625C160.933 42.2985 158.309 44.9219 155.073 44.9219H76.9484C73.7124 44.9219 71.0891 42.2985 71.0891 39.0625V39.0625C71.0891 35.8265 73.7124 33.2031 76.9484 33.2031H155.073C158.309 33.2031 160.933 35.8265 160.933 39.0625V39.0625ZM180.464 23.4375C180.464 26.6735 177.841 29.2969 174.605 29.2969H76.9484C73.7124 29.2969 71.0891 26.6735 71.0891 23.4375V23.4375C71.0891 20.2015 73.7124 17.5781 76.9484 17.5781H174.605C177.841 17.5781 180.464 20.2015 180.464 23.4375V23.4375Z" fill="#604BFE"/>
<path d="M53.6516 68.75C50.3379 68.75 47.6516 71.4363 47.6516 74.75V85.1642C47.6516 87.0304 46.7832 88.7904 45.3022 89.9258L38.3728 95.2384C35.2403 97.64 35.2403 102.36 38.3728 104.762L45.3022 110.074C46.7832 111.21 47.6516 112.97 47.6516 114.836V125.25C47.6516 128.564 50.3379 131.25 53.6516 131.25H193.995C197.309 131.25 199.995 128.564 199.995 125.25V74.75C199.995 71.4363 197.309 68.75 193.995 68.75H53.6516ZM160.933 107.812C160.933 111.049 158.309 113.672 155.073 113.672H76.9484C73.7124 113.672 71.0891 111.049 71.0891 107.812V107.812C71.0891 104.576 73.7124 101.953 76.9484 101.953H155.073C158.309 101.953 160.933 104.576 160.933 107.812V107.812ZM180.464 92.1875C180.464 95.4235 177.841 98.0469 174.605 98.0469H76.9484C73.7124 98.0469 71.0891 95.4235 71.0891 92.1875V92.1875C71.0891 88.9515 73.7124 86.3281 76.9484 86.3281H174.605C177.841 86.3281 180.464 88.9515 180.464 92.1875V92.1875Z" fill="#604BFE"/>
<path d="M53.6516 137.5C50.3379 137.5 47.6516 140.186 47.6516 143.5V153.914C47.6516 155.78 46.7832 157.54 45.3022 158.676L38.3728 163.988C35.2403 166.39 35.2403 171.11 38.3728 173.512L45.3022 178.824C46.7832 179.96 47.6516 181.72 47.6516 183.586V194C47.6516 197.314 50.3379 200 53.6516 200H193.995C197.309 200 199.995 197.314 199.995 194V143.5C199.995 140.186 197.309 137.5 193.995 137.5H53.6516ZM160.933 176.562C160.933 179.799 158.309 182.422 155.073 182.422H76.9484C73.7124 182.422 71.0891 179.799 71.0891 176.562V176.562C71.0891 173.326 73.7124 170.703 76.9484 170.703H155.073C158.309 170.703 160.933 173.326 160.933 176.562V176.562ZM180.464 160.938C180.464 164.174 177.841 166.797 174.605 166.797H76.9484C73.7124 166.797 71.0891 164.174 71.0891 160.938V160.938C71.0891 157.701 73.7124 155.078 76.9484 155.078H174.605C177.841 155.078 180.464 157.701 180.464 160.938V160.938Z" fill="#604BFE"/>
<path d="M31.25 100C31.25 94.8949 28.7879 90.356 24.9897 87.5039C23.037 86.0376 21.4844 83.9219 21.4844 81.48V49.77C21.4844 47.3281 23.037 45.2124 24.9897 43.7461C28.7879 40.894 31.25 36.3551 31.25 31.25C31.25 26.1449 28.7879 21.606 24.9897 18.7539C23.037 17.2876 21.4844 15.1719 21.4844 12.73V5.85938C21.4844 2.62333 18.861 0 15.625 0V0C12.389 0 9.76562 2.62333 9.76562 5.85938V12.73C9.76562 15.1719 8.21301 17.2876 6.26034 18.7539C2.46206 21.606 0 26.1449 0 31.25C0 36.3551 2.46206 40.894 6.26034 43.7461C8.21301 45.2124 9.76562 47.3281 9.76562 49.77V81.48C9.76562 83.9219 8.21301 86.0376 6.26034 87.5039C2.46206 90.356 0 94.8949 0 100C0 105.105 2.46206 109.644 6.26035 112.496C8.21301 113.962 9.76562 116.078 9.76562 118.52V150.23C9.76562 152.672 8.21301 154.788 6.26034 156.254C2.46206 159.106 0 163.645 0 168.75C0 173.855 2.46206 178.394 6.26035 181.246C8.21301 182.712 9.76562 184.828 9.76562 187.27V194.141C9.76562 197.377 12.389 200 15.625 200V200C18.861 200 21.4844 197.377 21.4844 194.141V187.27C21.4844 184.828 23.037 182.712 24.9897 181.246C28.7879 178.394 31.25 173.855 31.25 168.75C31.25 163.645 28.7879 159.106 24.9897 156.254C23.037 154.788 21.4844 152.672 21.4844 150.23V118.52C21.4844 116.078 23.037 113.962 24.9897 112.496C28.7879 109.644 31.25 105.105 31.25 100ZM15.625 172.656C13.4711 172.656 11.7188 170.904 11.7188 168.75C11.7188 166.596 13.4711 164.844 15.625 164.844C17.7789 164.844 19.5312 166.596 19.5312 168.75C19.5312 170.904 17.7789 172.656 15.625 172.656ZM15.625 103.906C13.4711 103.906 11.7188 102.154 11.7188 100C11.7188 97.8461 13.4711 96.0938 15.625 96.0938C17.7789 96.0938 19.5312 97.8461 19.5312 100C19.5312 102.154 17.7789 103.906 15.625 103.906ZM15.625 35.1562C13.4711 35.1562 11.7188 33.4039 11.7188 31.25C11.7188 29.0961 13.4711 27.3438 15.625 27.3438C17.7789 27.3438 19.5312 29.0961 19.5312 31.25C19.5312 33.4039 17.7789 35.1562 15.625 35.1562Z" fill="#604BFE"/>
</svg>
