<svg width="200" height="200" viewBox="0 0 200 200" fill="none" xmlns="http://www.w3.org/2000/svg">
<path d="M131.25 12.5H117.675C115.1 5.225 108.15 0 100 0C91.85 0 84.9 5.225 82.3125 12.5H68.75C65.3 12.5 62.5 15.3 62.5 18.75V43.75C62.5 47.2 65.3 50 68.75 50H131.25C134.7 50 137.5 47.2 137.5 43.75V18.75C137.5 15.3 134.7 12.5 131.25 12.5Z" fill="#604BFE"/>
<path d="M162.5 25H150V43.75C150 54.0875 141.588 62.5 131.25 62.5H68.75C58.4125 62.5 50 54.0875 50 43.75V25H37.5C30.6125 25 25 30.6125 25 37.5V187.5C25 194.512 30.4875 200 37.5 200H162.5C169.512 200 175 194.512 175 187.5V37.5C175 30.4875 169.512 25 162.5 25ZM98.175 135.675L73.175 160.675C71.95 161.888 70.35 162.5 68.75 162.5C67.15 162.5 65.55 161.888 64.325 160.675L51.825 148.175C49.3875 145.738 49.3875 141.775 51.825 139.338C54.2625 136.9 58.225 136.9 60.6625 139.338L68.75 147.413L89.325 126.838C91.7625 124.4 95.725 124.4 98.1625 126.838C100.6 129.275 100.613 133.225 98.175 135.675ZM98.175 85.675L73.175 110.675C71.95 111.888 70.35 112.5 68.75 112.5C67.15 112.5 65.55 111.888 64.325 110.675L51.825 98.175C49.3875 95.7375 49.3875 91.775 51.825 89.3375C54.2625 86.9 58.225 86.9 60.6625 89.3375L68.75 97.4125L89.325 76.8375C91.7625 74.4 95.725 74.4 98.1625 76.8375C100.6 79.275 100.613 83.225 98.175 85.675ZM143.75 150H118.75C115.3 150 112.5 147.2 112.5 143.75C112.5 140.3 115.3 137.5 118.75 137.5H143.75C147.2 137.5 150 140.3 150 143.75C150 147.2 147.2 150 143.75 150ZM143.75 100H118.75C115.3 100 112.5 97.2 112.5 93.75C112.5 90.3 115.3 87.5 118.75 87.5H143.75C147.2 87.5 150 90.3 150 93.75C150 97.2 147.2 100 143.75 100Z" fill="#604BFE"/>
</svg>
