<svg width="24" height="15" viewBox="0 0 24 15" fill="none" xmlns="http://www.w3.org/2000/svg">
<path fill-rule="evenodd" clip-rule="evenodd" d="M17.758 0H6.35334C6.0704 0 5.84244 0.232219 5.84244 0.520444V14.4782C5.84244 14.7664 6.0704 15 6.35334 15H17.758C18.0396 15 18.2689 14.7664 18.2689 14.4782V0.520444C18.2689 0.232219 18.0396 0 17.758 0ZM8.12739 3.59394C7.53872 3.59394 7.06269 3.10901 7.06269 2.5107C7.06269 1.91239 7.53872 1.4261 8.12739 1.4261C8.71472 1.4261 9.19075 1.91103 9.19075 2.5107C9.19075 3.10764 8.71606 3.59394 8.12739 3.59394ZM21.7673 1.58182V0.953465H18.7905V3.46963H21.7673V2.83854H24V1.58182H21.7673ZM21.7673 6.24397H18.7905V8.75877H21.7673V8.13041H24V6.87369H21.7673V6.24397ZM18.7905 11.6192H21.7673V12.2489H24V13.5056H21.7673V14.1326H18.7905V11.6192ZM2.22461 1.79628H0V3.053H2.22461V3.68136H5.19075V1.16656H2.22461V1.79628ZM0 7.08405H2.22461V6.45296H5.19075V8.96913H2.22461V8.34077H0V7.08405ZM2.22461 12.4592H0V13.716H2.22461V14.3457H5.19075V11.8309H2.22461V12.4592Z" fill="#646079"/>
</svg>
