<svg width="18" height="20" viewBox="0 0 18 20" fill="none" xmlns="http://www.w3.org/2000/svg">
<path fill-rule="evenodd" clip-rule="evenodd" d="M5.73794 19.2188C5.73794 19.6503 5.38607 20 4.95192 20H3.14408C1.41038 20 0 18.5982 0 16.875V3.125C0 1.40182 1.41038 0 3.14408 0H12.8078C14.5414 0 15.9519 1.40182 15.9519 3.125V7.77344C15.9519 8.20496 15.5999 8.55469 15.1659 8.55469C14.7317 8.55469 14.3799 8.20496 14.3799 7.77344V3.125C14.3799 2.26349 13.6746 1.5625 12.8078 1.5625H3.14408C2.27731 1.5625 1.57204 2.26349 1.57204 3.125V16.875C1.57204 17.7365 2.27731 18.4375 3.14408 18.4375H4.95192C5.38607 18.4375 5.73794 18.7872 5.73794 19.2188ZM12.8077 5.46875C12.8077 5.03723 12.4558 4.6875 12.0216 4.6875H3.92564C3.49164 4.6875 3.13962 5.03723 3.13962 5.46875C3.13962 5.90027 3.49164 6.25 3.92564 6.25H12.0216C12.4558 6.25 12.8077 5.90027 12.8077 5.46875ZM8.88202 7.8125C9.31617 7.8125 9.66803 8.16223 9.66803 8.59375C9.66803 9.02527 9.31617 9.375 8.88202 9.375H3.92564C3.49164 9.375 3.13962 9.02527 3.13962 8.59375C3.13962 8.16223 3.49164 7.8125 3.92564 7.8125H8.88202ZM3.92564 10.9375C3.49164 10.9375 3.13962 11.2872 3.13962 11.7188C3.13962 12.1503 3.49164 12.5 3.92564 12.5H7.19207C7.62623 12.5 7.97809 12.1503 7.97809 11.7188C7.97809 11.2872 7.62623 10.9375 7.19207 10.9375H3.92564ZM16.4141 20C16.8899 20 17.3362 19.7882 17.6386 19.4188C17.9453 19.044 18.0648 18.5582 17.9662 18.0858C17.9618 18.0646 17.9565 18.0438 17.9504 18.0232C17.6851 16.8362 17.0204 15.7582 16.0726 14.9811C15.7063 14.6806 15.3037 14.4308 14.8769 14.2355C15.3525 13.6986 15.6418 12.995 15.6418 12.2252C15.6418 10.545 14.2667 9.17831 12.5763 9.17831C10.8859 9.17831 9.51083 10.545 9.51083 12.2252C9.51083 12.995 9.80006 13.6986 10.2757 14.2355C9.84888 14.4308 9.44635 14.6808 9.08006 14.9811C8.11288 15.7741 7.44032 16.8803 7.18639 18.0962C7.0883 18.5658 7.20635 19.0482 7.51032 19.4194C7.81245 19.7884 8.26011 20 8.73847 20H16.4141ZM11.0829 12.2252C11.0829 13.0437 11.7528 13.7096 12.5763 13.7096C13.3998 13.7096 14.0697 13.0437 14.0697 12.2252C14.0697 11.4067 13.3998 10.7408 12.5763 10.7408C11.7528 10.7408 11.0829 11.4067 11.0829 12.2252ZM16.427 18.4138L16.4273 18.4154C16.4253 18.4281 16.4161 18.4359 16.4144 18.4373C16.4143 18.4374 16.4142 18.4375 16.4141 18.4375H8.73848C8.73671 18.4375 8.7355 18.4374 8.73482 18.4373C8.73449 18.4372 8.73428 18.4372 8.73418 18.4372C8.73418 18.4372 8.7341 18.4371 8.73395 18.437C8.73232 18.4361 8.72233 18.43 8.72558 18.4138C9.10293 16.6071 10.7226 15.2956 12.5763 15.2956C14.4301 15.2956 16.0495 16.6071 16.427 18.4138Z" fill="#646079"/>
</svg>
