<svg width="20" height="17" viewBox="0 0 20 17" fill="none" xmlns="http://www.w3.org/2000/svg">
<path fill-rule="evenodd" clip-rule="evenodd" d="M18.077 0C18.606 0 19.0585 0.189076 19.4353 0.567441C19.8118 0.945763 20 1.40054 20 1.93191V15.0684C20 15.5995 19.8118 16.0541 19.4353 16.4327C19.0585 16.8111 18.606 17 18.077 17H1.92312C1.39424 17 0.941522 16.8111 0.564871 16.4327C0.188304 16.0541 0 15.5998 0 15.0684V1.93191C0 1.40054 0.188304 0.945889 0.564871 0.567441C0.941522 0.189076 1.39429 0 1.92312 0H18.077ZM6.04565 15.3458C6.11785 15.2733 6.15401 15.181 6.15401 15.068H6.15397V12.7497C6.15397 12.6368 6.11781 12.5444 6.04578 12.4722C5.97383 12.3995 5.8816 12.3634 5.76932 12.3634H1.92312C1.81106 12.3634 1.71882 12.3995 1.64666 12.4722C1.57455 12.5444 1.53856 12.6368 1.53856 12.7497V15.068C1.53856 15.181 1.57455 15.2733 1.64666 15.3458C1.71882 15.4182 1.81106 15.4542 1.92312 15.4542H5.76919C5.88151 15.4542 5.97358 15.4182 6.04565 15.3458ZM6.15401 10.4318C6.15401 10.5444 6.11785 10.6371 6.04565 10.7094C5.97358 10.7819 5.88151 10.818 5.76919 10.818H1.92312C1.81106 10.818 1.71882 10.7819 1.64666 10.7094C1.57455 10.637 1.53856 10.5444 1.53856 10.4318V8.11354C1.53856 8.00088 1.57455 7.90826 1.64666 7.83582C1.71882 7.76355 1.81106 7.72735 1.92312 7.72735H5.76932C5.8816 7.72735 5.97366 7.76351 6.04578 7.83582C6.11781 7.90826 6.15397 8.00088 6.15397 8.11354V10.4318H6.15401ZM6.04565 6.07315C6.11785 6.00067 6.15401 5.90818 6.15401 5.79544H6.15397V3.47725C6.15397 3.36451 6.11781 3.2719 6.04578 3.19954C5.97366 3.1271 5.8816 3.09094 5.76932 3.09094H1.92312C1.81106 3.09094 1.71882 3.1271 1.64666 3.19954C1.57455 3.2719 1.53856 3.36451 1.53856 3.47725V5.79544C1.53856 5.90818 1.57455 6.00063 1.64666 6.07315C1.71882 6.14543 1.81106 6.18175 1.92312 6.18175H5.76919C5.88151 6.18175 5.97358 6.14543 6.04565 6.07315ZM12.3079 15.068C12.3079 15.181 12.2719 15.2733 12.2 15.3458C12.1279 15.4182 12.0358 15.4542 11.9234 15.4542H8.07692C7.96481 15.4542 7.87262 15.4182 7.80046 15.3458C7.72835 15.2733 7.69236 15.181 7.69236 15.068V12.7497C7.69236 12.6368 7.72835 12.5444 7.80046 12.4722C7.87262 12.3995 7.96481 12.3634 8.07692 12.3634H11.9232C12.0356 12.3634 12.1278 12.3995 12.1998 12.4722C12.2715 12.5444 12.3076 12.6368 12.3076 12.7497V15.0679H12.3079V15.068ZM12.2 10.7094C12.2719 10.6371 12.3079 10.5444 12.3079 10.4318H12.3076V8.11354C12.3076 8.00088 12.2715 7.90826 12.1998 7.83582C12.1278 7.76351 12.0356 7.72735 11.9232 7.72735H8.07692C7.96481 7.72735 7.87262 7.76355 7.80046 7.83582C7.72835 7.90826 7.69236 8.00088 7.69236 8.11354V10.4318C7.69236 10.5444 7.72835 10.637 7.80046 10.7094C7.87262 10.7819 7.96481 10.818 8.07692 10.818H11.9234C12.0358 10.818 12.1279 10.7819 12.2 10.7094ZM12.3079 5.79544C12.3079 5.90818 12.2719 6.00067 12.2 6.07315C12.1279 6.14543 12.0358 6.18175 11.9234 6.18175H8.07692C7.96481 6.18175 7.87262 6.14543 7.80046 6.07315C7.72835 6.00063 7.69236 5.90818 7.69236 5.79544V3.47725C7.69236 3.36451 7.72835 3.2719 7.80046 3.19954C7.87262 3.1271 7.96481 3.09094 8.07692 3.09094H11.9232C12.0356 3.09094 12.1278 3.1271 12.1998 3.19954C12.2715 3.2719 12.3076 3.36451 12.3076 3.47725V5.79544H12.3079ZM18.3536 15.3458C18.4255 15.2733 18.4615 15.181 18.4615 15.068V12.7497C18.4615 12.6368 18.4255 12.5444 18.3536 12.4722C18.2813 12.3995 18.1891 12.3634 18.077 12.3634H14.2312C14.1187 12.3634 14.0265 12.3995 13.9546 12.4722C13.8826 12.5444 13.8468 12.6368 13.8468 12.7497V15.068C13.8468 15.181 13.8826 15.2733 13.9546 15.3458C14.0265 15.4182 14.1187 15.4542 14.2312 15.4542H18.077C18.1891 15.4542 18.2813 15.4182 18.3536 15.3458ZM18.4615 10.4318C18.4615 10.5444 18.4255 10.6371 18.3536 10.7094C18.2813 10.7819 18.1891 10.818 18.077 10.818H14.2312C14.1187 10.818 14.0265 10.7819 13.9546 10.7094C13.8826 10.637 13.8468 10.5444 13.8468 10.4318V8.11354C13.8468 8.00088 13.8826 7.90826 13.9546 7.83582C14.0265 7.76355 14.1187 7.72735 14.2312 7.72735H18.077C18.1891 7.72735 18.2813 7.76351 18.3536 7.83582C18.4255 7.90826 18.4615 8.00088 18.4615 8.11354V10.4318ZM18.3536 6.07315C18.4255 6.00067 18.4615 5.90818 18.4615 5.79544V3.47725C18.4615 3.36451 18.4255 3.2719 18.3536 3.19954C18.2813 3.1271 18.1891 3.09094 18.077 3.09094H14.2312C14.1187 3.09094 14.0265 3.1271 13.9546 3.19954C13.8826 3.2719 13.8468 3.36451 13.8468 3.47725V5.79544C13.8468 5.90818 13.8826 6.00063 13.9546 6.07315C14.0265 6.14543 14.1187 6.18175 14.2312 6.18175H18.077C18.1891 6.18175 18.2813 6.14543 18.3536 6.07315Z" fill="#646079"/>
</svg>
