<svg width="20" height="20" viewBox="0 0 20 20" fill="none" xmlns="http://www.w3.org/2000/svg">
<path fill-rule="evenodd" clip-rule="evenodd" d="M0 10C0 4.45455 4.45455 0 10 0C15.5455 0 20 4.45455 20 10C20 15.5455 15.5455 20 10 20C4.45455 20 0 15.5455 0 10ZM8.5 14.4091L15.7727 6.86364C15.9545 6.68182 15.9545 6.40909 15.7727 6.27273L15.1364 5.63636C14.9545 5.45455 14.6818 5.45455 14.5 5.63636H14.4545L8.36364 11.9545C8.27273 12.0455 8.13636 12.0455 8.04545 11.9545L5.54545 9.27273L5.5 9.22727C5.31818 9.04545 5.04545 9.04545 4.86364 9.22727L4.22727 9.86364C4.13636 9.95455 4.09091 10.0909 4.09091 10.1818C4.09091 10.2727 4.13636 10.4091 4.22727 10.5L4.31818 10.5909L7.86364 14.4091C7.90909 14.5 8.04545 14.5455 8.18182 14.5455C8.31818 14.5455 8.40909 14.5 8.5 14.4091Z" fill="#646079"/>
</svg>
