<svg width="18" height="18" viewBox="0 0 18 18" fill="none" xmlns="http://www.w3.org/2000/svg">
<path d="M15.8571 8.57143H14.5714V5.14286C14.5714 4.2 13.8 3.42857 12.8571 3.42857H9.42857V2.14286C9.42857 0.942857 8.48571 0 7.28571 0C6.08571 0 5.14286 0.942857 5.14286 2.14286V3.42857H1.71429C0.771429 3.42857 0 4.2 0 5.14286V8.4H1.28571C2.57143 8.4 3.6 9.42857 3.6 10.7143C3.6 12 2.57143 13.0286 1.28571 13.0286H0V16.2857C0 17.2286 0.771429 18 1.71429 18H4.97143V16.7143C4.97143 15.4286 6 14.4 7.28571 14.4C8.57143 14.4 9.6 15.4286 9.6 16.7143V18H12.8571C13.8 18 14.5714 17.2286 14.5714 16.2857V12.8571H15.8571C17.0571 12.8571 18 11.9143 18 10.7143C18 9.51429 17.0571 8.57143 15.8571 8.57143Z" fill="#604BFE"/>
</svg>
