<svg width="20" height="17" viewBox="0 0 20 17" fill="none" xmlns="http://www.w3.org/2000/svg">
<path fill-rule="evenodd" clip-rule="evenodd" d="M19.2998 0C19.5299 0 19.7106 0.0657958 19.8298 0.193275C19.9572 0.324867 20.0106 0.509918 19.9983 0.748428L19.9449 1.88752L19.9397 1.99432C19.9044 2.71912 19.8694 3.44035 19.838 4.16159C19.8298 4.33841 19.7969 4.56459 19.6202 4.74141C19.5709 4.79076 19.5134 4.83188 19.4477 4.86889C19.3491 4.92235 19.2546 4.94702 19.16 4.94702C18.9341 4.94702 18.7861 4.79898 18.6793 4.69207L17.7794 3.7956L9.82451 11.7569C9.63138 11.9461 9.38074 12.053 9.10955 12.053C8.83836 12.053 8.5836 11.9461 8.39459 11.7569L5.22659 8.58636L1.91066 11.9049C1.72165 12.0941 1.47101 12.201 1.19981 12.201C0.928623 12.201 0.673868 12.0941 0.484856 11.9049L0.295845 11.7158C-0.0986148 11.321 -0.0986148 10.6836 0.295845 10.2888L4.51574 6.06967C4.70475 5.8805 4.9554 5.77358 5.22659 5.77358C5.49778 5.77358 5.75253 5.8805 5.94155 6.06967L9.10955 9.2402L16.1605 2.17949C15.9551 1.97799 15.7496 1.77238 15.5483 1.56676L15.2565 1.27068C15.1415 1.15554 14.8991 0.912917 15.0716 0.538703C15.1045 0.464683 15.1456 0.402999 15.199 0.34954C15.3644 0.184 15.5734 0.173066 15.7287 0.164939L15.7373 0.16449C16.3208 0.13776 16.9032 0.110002 17.4856 0.0822448C18.0681 0.0544872 18.6505 0.0267296 19.234 0H19.2998ZM17.7794 5.48984L14.7922 8.47944V16.6381C14.7922 16.8355 14.9525 17 15.1538 17H17.6603C17.8575 17 18.0219 16.8396 18.0219 16.6381V5.71601C17.9652 5.66783 17.9183 5.62355 17.8799 5.58721L17.8797 5.58709C17.8624 5.57076 17.8469 5.55604 17.8329 5.5433L17.7794 5.48984ZM10.3135 16.6381V12.896C10.4408 12.8137 10.56 12.7192 10.671 12.6081L13.5431 9.73367V16.6381C13.5431 16.8396 13.3788 17 13.1815 17H10.6751C10.4737 17 10.3135 16.8355 10.3135 16.6381ZM5.83471 10.8892V16.6381C5.83471 16.8355 5.99496 17 6.1963 17H8.70276C8.89999 17 9.06435 16.8396 9.06435 16.6381V13.2537C8.49321 13.2414 7.95904 13.0152 7.55636 12.6122L5.83471 10.8892ZM1.35595 13.3936V16.6381C1.35595 16.8355 1.5162 17 1.71754 17H4.224C4.42123 17 4.58559 16.8396 4.58559 16.6381V10.9303L2.76533 12.7521C2.37908 13.1345 1.88601 13.3566 1.35595 13.3936Z" fill="white"/>
</svg>
