<svg width="20" height="22" viewBox="0 0 20 22" fill="none" xmlns="http://www.w3.org/2000/svg">
<path fill-rule="evenodd" clip-rule="evenodd" d="M6.92661 16.0918C6.92661 12.0516 10.2035 8.76462 14.2312 8.76462C14.3648 8.76462 14.4974 8.76847 14.6291 8.77559V0.770299C14.6291 0.34489 14.2853 0 13.8612 0H0.767933C0.343831 0 0 0.34489 0 0.770299V21.2297C0 21.6551 0.343831 22 0.767933 22H9.91637C8.10483 20.6653 6.92661 18.5141 6.92661 16.0918ZM4.34278 4.09194H9.78189C10.206 4.09194 10.5498 4.43683 10.5498 4.86224C10.5498 5.28765 10.206 5.63254 9.78189 5.63254H4.34278C3.91868 5.63254 3.57485 5.28765 3.57485 4.86224C3.57485 4.43683 3.91868 4.09194 4.34278 4.09194ZM9.78189 8.18381H4.34278C3.91868 8.18381 3.57478 8.5287 3.57485 8.9541C3.57485 9.37951 3.91868 9.7244 4.34278 9.7244H9.78189C10.206 9.7244 10.5498 9.37951 10.5498 8.9541C10.5498 8.5287 10.206 8.18381 9.78189 8.18381ZM5.70252 13.8163H4.34278C3.91868 13.8163 3.57485 13.4714 3.57485 13.046C3.57485 12.6206 3.91868 12.2757 4.34278 12.2757H5.70252C6.12663 12.2757 6.47046 12.6206 6.47046 13.046C6.47046 13.4714 6.12663 13.8163 5.70252 13.8163ZM8.46255 16.0918C8.46255 19.2875 11.0453 21.8783 14.2313 21.8783C17.4173 21.8783 20 19.2876 20 16.0918C20 12.8959 17.4173 10.3053 14.2313 10.3053C11.0453 10.3053 8.46255 12.896 8.46255 16.0918ZM11.978 13.8319C12.1208 13.6886 12.319 13.6062 12.5209 13.6062C12.7229 13.6062 12.921 13.6886 13.0647 13.8319C13.2076 13.9752 13.289 14.174 13.289 14.3766C13.289 14.5792 13.2076 14.7779 13.0647 14.9212C12.921 15.0645 12.7237 15.1469 12.5209 15.1469C12.319 15.1469 12.1208 15.0645 11.978 14.9212C11.8351 14.7779 11.7529 14.5792 11.7529 14.3766C11.7529 14.174 11.8351 13.9752 11.978 13.8319ZM15.9414 18.5772C16.1434 18.5772 16.3415 18.4947 16.4844 18.3514C16.6273 18.2082 16.7094 18.0102 16.7094 17.8068C16.7094 17.6041 16.6273 17.4055 16.4844 17.2621C16.3415 17.1188 16.1434 17.0364 15.9414 17.0364C15.7394 17.0364 15.5413 17.1188 15.3985 17.2621C15.2548 17.4055 15.1734 17.6041 15.1734 17.8068C15.1734 18.0101 15.2548 18.2081 15.3985 18.3514C15.5413 18.4947 15.7394 18.5772 15.9414 18.5772ZM16.474 13.842C16.7739 14.1429 16.7739 14.6306 16.474 14.9315L13.0746 18.3413C12.9247 18.4917 12.7282 18.567 12.5316 18.567C12.335 18.567 12.1385 18.4918 11.9885 18.3413C11.6886 18.0405 11.6886 17.5527 11.9885 17.2519L15.3879 13.842C15.6879 13.5413 16.1741 13.5413 16.474 13.842Z" fill="white"/>
</svg>
