<svg width="16" height="19" viewBox="0 0 16 19" fill="none" xmlns="http://www.w3.org/2000/svg">
<path fill-rule="evenodd" clip-rule="evenodd" d="M10.855 0.0649077C11.4584 0.184546 10.4779 2.91991 9.0105 4.13409C14.5418 6.37708 22.6196 20.0906 6.48766 18.9305C-5.17115 18.0921 1.51183 6.53714 6.26647 4.2354C4.6728 3.21811 3.65417 0.883018 4.24746 0.240923C4.65925 -0.204751 5.25266 0.0523145 5.90608 0.335373C6.4105 0.553886 6.95068 0.787889 7.47066 0.726048C7.76688 0.682802 8.17456 0.568377 8.61349 0.445178L8.6135 0.445175L8.61351 0.445172C9.42153 0.21838 10.3355 -0.0381394 10.855 0.0649077ZM9.74164 14.3813C10.1039 14.1047 10.3463 13.6973 10.3959 13.2469C10.4334 12.9072 10.3768 12.5497 10.2045 12.2507L10.2071 12.2551L10.2073 12.2554C10.2394 12.3109 10.2675 12.3594 10.2032 12.2481C10.1358 12.1316 10.1684 12.1882 10.202 12.2462C9.98551 11.8737 9.60964 11.6375 9.21298 11.4834C8.95054 11.3815 8.67639 11.311 8.40246 11.2464V9.47677C8.63295 9.51705 8.86362 9.58912 9.0538 9.72745C9.14163 9.79125 9.21857 9.86868 9.27794 9.95899C9.30848 10.0054 9.33499 10.0546 9.35546 10.1062C9.36581 10.1321 9.37347 10.1589 9.38113 10.1857C9.38848 10.2115 9.39583 10.2372 9.40557 10.2622C9.47234 10.4339 9.64128 10.5535 9.82774 10.5615C10.0175 10.5695 10.1979 10.4616 10.2783 10.2923C10.3176 10.2096 10.3316 10.1163 10.3179 10.0259C10.3093 9.96932 10.2912 9.91348 10.2732 9.85925C10.2539 9.80108 10.2317 9.74404 10.2062 9.68829C10.115 9.48844 9.98533 9.30518 9.82692 9.15139C9.49254 8.82667 9.04531 8.64069 8.58806 8.55919C8.52651 8.54819 8.46465 8.53898 8.4026 8.53129V8.49342V8.01742C8.4026 7.83671 8.29303 7.66834 8.12636 7.59274C7.95746 7.51611 7.75312 7.54606 7.61395 7.66726C7.51274 7.75543 7.45368 7.88428 7.45368 8.01742V8.49342V8.53411C6.98803 8.59902 6.52379 8.77575 6.17429 9.0926C6.01084 9.2408 5.87753 9.41959 5.78494 9.61872C5.68608 9.8314 5.64105 10.0628 5.64282 10.2962C5.64455 10.5261 5.68699 10.7575 5.78943 10.9653C5.88652 11.1621 6.03476 11.3284 6.20947 11.4623C6.56895 11.7376 7.01831 11.881 7.45364 11.992V13.8412C7.231 13.7797 7.01744 13.6763 6.84978 13.5172C6.76844 13.4399 6.69781 13.351 6.64144 13.2545C6.61289 13.2055 6.5886 13.154 6.5685 13.1011C6.55671 13.0702 6.54764 13.0386 6.53857 13.007L6.53856 13.0069C6.53201 12.9841 6.52546 12.9613 6.51789 12.9387C6.45924 12.7638 6.29598 12.6365 6.1097 12.6202C5.92042 12.6036 5.73505 12.7037 5.64709 12.8694C5.60429 12.95 5.58609 13.0423 5.59548 13.1327C5.60094 13.1855 5.61653 13.2369 5.63187 13.2876L5.63288 13.2909C5.65018 13.3481 5.66992 13.4046 5.69207 13.4601C5.77686 13.6724 5.89945 13.8691 6.04983 14.0424C6.35172 14.3901 6.76499 14.6252 7.21053 14.7457C7.29074 14.7674 7.37189 14.7856 7.45364 14.8009V15.3449C7.45364 15.5256 7.56316 15.694 7.72988 15.7696C7.89873 15.8462 8.10316 15.8163 8.24228 15.6951C8.3435 15.6069 8.40255 15.4781 8.40255 15.3449V14.8472C8.87928 14.8091 9.35909 14.6733 9.74164 14.3813ZM9.39346 13.4399L9.37784 13.4677C9.38144 13.4614 9.38685 13.4519 9.39346 13.4399Z" fill="white"/>
</svg>
