<svg width="22" height="19" viewBox="0 0 22 19" fill="none" xmlns="http://www.w3.org/2000/svg">
<g clip-path="url(#clip0)">
<path fill-rule="evenodd" clip-rule="evenodd" d="M13.1706 9.99255C12.9928 10.1826 12.7166 10.2486 12.4698 10.1597L5.24382 7.54515L1.11411 11.7709C0.986817 11.9007 0.817236 11.9663 0.647223 11.9663C0.486056 11.9663 0.324458 11.9077 0.198674 11.7887C-0.0589335 11.5454 -0.0671321 11.1423 0.180551 10.8888L4.60347 6.36335C4.78147 6.18177 5.05224 6.12046 5.29345 6.20743L12.5093 8.81796L18.83 2.03878L17.2703 0.756846C17.2194 0.715056 17.1889 0.656083 17.1833 0.593715C17.1805 0.562743 17.1838 0.531347 17.1939 0.500376C17.2232 0.407673 17.307 0.341275 17.4058 0.332577L21.1793 0.00101079C21.3141 -0.0110809 21.433 0.0867132 21.4449 0.219297L21.7823 3.92932C21.7912 4.02669 21.7396 4.11876 21.6518 4.16415C21.564 4.20934 21.4574 4.19767 21.3812 4.1353L19.8241 2.85571L13.1706 9.99255ZM21.9471 4.94035C21.7795 5.02648 21.5907 5.07209 21.4013 5.07209C21.126 5.07209 20.8574 4.97663 20.6462 4.80268L19.8492 4.14761L16.9656 7.24053V18.6818C16.9656 18.8574 17.1106 19 17.2893 19H21.6764C21.8552 19 22 18.8574 22 18.6818V4.9079C21.9926 4.91222 21.9855 4.91683 21.9785 4.92141C21.9683 4.92808 21.9581 4.9347 21.9471 4.94035ZM1.71908 12.4436L5.33228 8.74647H5.74156L6.75344 9.11262V18.6816C6.75344 18.8572 6.60846 18.9998 6.42981 18.9998H2.04271C1.86385 18.9998 1.71908 18.8572 1.71908 18.6816V12.4436ZM9.88163 11.6459H14.2687C14.4476 11.6459 14.5924 11.7885 14.5924 11.9641V18.6816C14.5924 18.8572 14.4476 18.9998 14.2687 18.9998H9.88163C9.70299 18.9998 9.558 18.8572 9.558 18.6816V11.9641C9.558 11.7885 9.70299 11.6459 9.88163 11.6459Z" fill="#646079"/>
</g>
<defs>
<clipPath id="clip0">
<rect width="22" height="19" fill="white"/>
</clipPath>
</defs>
</svg>
