<svg width="23" height="16" viewBox="0 0 23 16" fill="none" xmlns="http://www.w3.org/2000/svg">
<path fill-rule="evenodd" clip-rule="evenodd" d="M1.53333 12.5V0H21.4667V12.5H1.53333ZM8.10711 7.82578C8.27792 7.74181 8.43021 7.63783 8.56406 7.51379C8.69778 7.38988 8.79764 7.24981 8.8636 7.09384L7.88185 6.52381C7.8448 6.6198 7.79431 6.7008 7.73055 6.76681C7.66666 6.83283 7.59472 6.88679 7.51442 6.92882C7.43412 6.9708 7.3508 7.00078 7.26434 7.01878C7.17788 7.03678 7.09349 7.04578 7.01116 7.04578C6.85474 7.04578 6.71374 7.01484 6.58825 6.9528C6.46262 6.89085 6.35669 6.80784 6.27023 6.70381C6.18377 6.59983 6.11785 6.47981 6.07262 6.3438C6.0273 6.20788 6.00468 6.06589 6.00468 5.91782C6.00468 5.78588 6.0242 5.65293 6.06336 5.51884C6.10239 5.38484 6.16214 5.26483 6.2424 5.15883C6.3227 5.05293 6.42553 4.96681 6.55115 4.90084C6.67664 4.83482 6.82592 4.80184 6.9988 4.80184C7.08112 4.80184 7.1665 4.80992 7.25508 4.82587C7.34357 4.8419 7.4289 4.86999 7.51132 4.90988C7.5936 4.9499 7.66878 5.00391 7.73667 5.07189C7.80461 5.13991 7.8591 5.22594 7.90029 5.32988L8.8203 4.69388C8.66792 4.41395 8.43637 4.18891 8.12564 4.01886C7.81477 3.84886 7.44738 3.76384 7.02348 3.76384C6.66936 3.76384 6.35449 3.82588 6.07874 3.94983C5.80289 4.07382 5.56828 4.23583 5.37485 4.4358C5.18134 4.6359 5.03417 4.86182 4.93337 5.11383C4.83243 5.36584 4.78207 5.62186 4.78207 5.88182C4.78207 6.15388 4.83553 6.42179 4.94259 6.68581C5.0496 6.94979 5.20085 7.18585 5.39643 7.39382C5.59189 7.60187 5.82447 7.76881 6.09416 7.89481C6.36375 8.02082 6.66117 8.08382 6.98643 8.08382C7.17167 8.08382 7.362 8.06175 7.55759 8.0178C7.75304 7.97385 7.93626 7.9098 8.10711 7.82578ZM11.7162 8.04782L10.9444 6.73986H10.4936V8.04782H9.28953V3.78783H11.3025C11.5165 3.78783 11.7141 3.83086 11.8952 3.91685C12.0764 4.00291 12.2318 4.11485 12.3615 4.25282C12.4911 4.39084 12.593 4.54887 12.6671 4.72682C12.7412 4.90482 12.7782 5.08382 12.7782 5.26382C12.7782 5.51189 12.7227 5.74289 12.6115 5.95684C12.5004 6.17083 12.346 6.3459 12.1484 6.48182L13.0746 8.04782H11.7162ZM16.7731 5.80383V8.04782H17.9771V3.78778H16.6681L15.7172 5.79177L14.7725 3.78778H13.4573V8.04777H14.6614V5.80379L15.3962 7.3818H16.0383L16.7731 5.80383ZM11.3078 4.96158C11.2365 4.87607 11.1652 4.83333 11.0939 4.83333H10.3926V5.83333H11.1236C11.1949 5.83333 11.2613 5.78955 11.3227 5.70173C11.3841 5.61407 11.4148 5.49123 11.4148 5.33333C11.4148 5.17107 11.3792 5.04709 11.3078 4.96158ZM23 14H0V16H23V14Z" fill="#646079"/>
</svg>
