<svg width="25" height="24" viewBox="0 0 25 24" fill="none" xmlns="http://www.w3.org/2000/svg">
<path fill-rule="evenodd" clip-rule="evenodd" d="M22.3464 2.55172C22.3464 3.95901 21.1875 5.10345 19.7626 5.10345C18.3376 5.10345 17.1788 3.95901 17.1788 2.55172C17.1788 1.14444 18.3376 0 19.7626 0C21.1875 0 22.3464 1.14444 22.3464 2.55172ZM24.513 4.92176L24.5741 4.98262C24.8486 5.25555 24.9999 5.61847 25 6.00445C25 6.39009 24.8487 6.75344 24.5742 7.02637L20.8568 10.7224C20.3039 11.2726 19.3396 11.2726 18.7863 10.7224L16.805 8.75273L13.9627 11.5746L17.5405 15.1276C17.6413 15.2273 17.6857 15.3705 17.6598 15.5093L16.3193 22.6593C16.1982 23.1778 15.8655 23.5947 15.4027 23.8226C15.1632 23.9404 14.9029 24 14.6413 24C14.3983 24 14.154 23.9486 13.9239 23.8457C13.1771 23.5137 12.7785 22.6722 12.9763 21.8461L13.761 16.8595L11.1617 14.1567L8.07085 17.4375C7.98899 17.5245 7.87521 17.5733 7.7563 17.5733H1.7236C1.2526 17.5733 0.797118 17.3788 0.473092 17.039C0.144283 16.6946 -0.0229046 16.243 0.00252737 15.7678C0.0503648 14.8581 0.838463 14.1456 1.79682 14.1456H5.83958L12.3941 6.86139H11.3888L8.58018 9.81703C8.30741 10.1136 7.9127 10.2871 7.50203 10.2892H7.49471C7.08062 10.2892 6.69538 10.1217 6.41011 9.81747C5.87619 9.24845 5.91626 8.31395 6.49886 7.73421L10.4757 3.97948C10.5559 3.90405 10.6618 3.86207 10.7726 3.86207H15.4648C15.8823 3.86207 16.2809 4.01676 16.5873 4.29828L19.7415 7.19393C19.8652 7.30707 20.0548 7.30231 20.1733 7.18407L22.4231 4.92345C23.0014 4.34891 23.9382 4.35017 24.513 4.92176Z" fill="#604BFE"/>
</svg>
