<svg width="22" height="19" viewBox="0 0 22 19" fill="none" xmlns="http://www.w3.org/2000/svg">
<path fill-rule="evenodd" clip-rule="evenodd" d="M11 3.38257C11.8768 1.77972 13.5498 0 16.1562 0C19.4633 0 22 2.64534 22 6.15386C22 7.0693 21.8141 7.91447 21.4717 8.72659H16.5547L15.4437 6.53613C15.2247 6.10548 14.5097 6.10548 14.2906 6.53613L12.2891 10.4828L11.5766 9.07786C11.3575 8.64721 10.6425 8.64721 10.4234 9.07786L9.71094 10.4828L7.70937 6.53609C7.49031 6.10544 6.77531 6.10544 6.55626 6.53609L5.44534 8.72659H0.528258C0.185926 7.91447 0 7.0693 0 6.15386C0 2.64534 2.53675 0 5.84375 0C8.45019 0 10.1232 1.77967 11 3.38257ZM15.5853 9.67229C15.695 9.88949 15.9181 10.0266 16.1626 10.0266H20.8072C19.5227 12.0339 17.2432 13.944 14.388 16.3364C14.2909 16.4177 14.1932 16.4996 14.0949 16.582C13.2548 17.2862 12.3612 18.0354 11.4229 18.8435C11.3012 18.948 11.1506 19 11 19C10.8494 19 10.6988 18.948 10.5771 18.8435C9.63881 18.0354 8.74517 17.2862 7.90513 16.582C7.80659 16.4994 7.7087 16.4174 7.61148 16.3359C4.7566 13.9437 2.47723 12.0338 1.19277 10.0266H5.83748C6.08202 10.0266 6.30508 9.88949 6.41474 9.67229L7.12812 8.25517L9.13214 12.2361C9.35147 12.6705 10.0673 12.6705 10.2867 12.2361L11 10.819L11.7134 12.2361C11.8231 12.4533 12.0461 12.5904 12.2907 12.5904C12.5352 12.5904 12.7583 12.4533 12.8679 12.2361L14.872 8.25517L15.5853 9.67229Z" fill="#604BFE"/>
</svg>
