<svg width="34" height="34" viewBox="0 0 34 34" fill="none" xmlns="http://www.w3.org/2000/svg">
<mask id="mask0" mask-type="alpha" maskUnits="userSpaceOnUse" x="0" y="0" width="34" height="34">
<rect width="34" height="34" fill="url(#paint0_linear)"/>
</mask>
<g mask="url(#mask0)">
<path d="M25.7063 14.57C27.0891 16.6665 27.7507 19.0798 27.6848 21.2977C27.6188 23.516 26.8203 25.5708 25.252 26.8652C23.5836 28.2424 21.4392 28.4342 19.4146 27.7019C19.0974 27.5872 18.903 27.2564 18.9136 26.8989C18.9313 26.3028 19.4661 25.9238 19.9389 26.0806C21.5329 26.6092 23.1054 26.4011 24.2971 25.4175C25.4546 24.4621 26.0927 22.9079 26.146 21.1155C26.1994 19.3228 25.6629 17.3237 24.5019 15.5635C23.3409 13.8033 21.7916 12.6402 20.2446 12.1684C18.6979 11.6967 17.1822 11.9203 16.0247 12.8757C14.5514 14.0918 13.9152 16.2908 14.2662 18.6937C14.3382 19.1862 14.0035 19.6816 13.5225 19.703C13.1645 19.7189 12.8428 19.4515 12.7769 19.0478C12.2931 16.0834 13.0248 13.1166 15.0701 11.4284C16.6383 10.134 18.629 9.88664 20.5433 10.4706C22.4573 11.0544 24.3235 12.4735 25.7063 14.57Z" fill="white" stroke="white"/>
<path d="M15.5274 7.49723L15.3812 7.99797L15.5274 7.49723C12.9664 6.55519 10.2504 6.96387 8.48552 8.98278C5.76456 12.0954 6.50384 17.5838 9.80995 21.2005C13.1161 24.8172 18.0373 25.521 20.7583 22.4084C22.1979 20.7615 22.6669 18.4239 22.3011 16.0799C22.2415 15.6982 21.9609 15.4223 21.6316 15.3834C21.1088 15.3216 20.7171 15.8409 20.7904 16.3795L21.2563 16.3015L20.7904 16.3795C21.0404 18.2187 20.6413 19.9428 19.5967 21.1377C17.5811 23.4434 13.6642 23.1022 10.8439 20.017C8.0236 16.9318 7.63115 12.5588 9.64676 10.2531C10.9365 8.7777 12.9783 8.38215 15.0515 9.10171C15.4752 9.24879 15.9461 8.96287 16.0296 8.44431C16.0945 8.04172 15.8903 7.63073 15.5274 7.49723Z" fill="white" stroke="white"/>
</g>
<defs>
<linearGradient id="paint0_linear" x1="17" y1="0" x2="17" y2="34" gradientUnits="userSpaceOnUse">
<stop stop-color="white"/>
<stop offset="1" stop-color="#00DEC0"/>
</linearGradient>
</defs>
</svg>
