<svg width="26" height="26" viewBox="0 0 26 26" fill="none" xmlns="http://www.w3.org/2000/svg">
<path d="M12.6391 12.7512C12.5621 12.7512 12.4851 12.7339 12.4136 12.6986L8.38293 10.6832C8.21243 10.5976 8.104 10.4231 8.104 10.2322V6.20072C8.104 6.02551 8.19436 5.86444 8.34286 5.77172C8.49136 5.67901 8.67757 5.67194 8.83315 5.74972L12.8646 7.76508C13.0351 7.85072 13.1436 8.02515 13.1436 8.21608V12.2476C13.1436 12.4228 13.0532 12.5839 12.9047 12.6766C12.8238 12.7261 12.7311 12.7512 12.6391 12.7512ZM9.11208 9.92029L12.1355 11.432V8.52722L9.11208 7.01551V9.92029Z" fill="white"/>
<path d="M12.6384 12.7513C12.5465 12.7513 12.4546 12.7261 12.3736 12.6758C12.2251 12.5839 12.1348 12.4221 12.1348 12.2468V8.21535C12.1348 8.02442 12.2424 7.84999 12.4137 7.76435L16.4452 5.74899C16.6016 5.6712 16.787 5.67828 16.9355 5.77099C17.084 5.86292 17.1743 6.02478 17.1743 6.19999V10.2315C17.1743 10.4224 17.0667 10.5968 16.8954 10.6825L12.8639 12.6978C12.7932 12.734 12.7162 12.7513 12.6384 12.7513ZM13.1428 8.52806V11.4328L16.1663 9.92113V7.01635L13.1428 8.52806Z" fill="white"/>
<path d="M20.7019 12.7513C20.61 12.7513 20.518 12.7261 20.4371 12.6758C20.2886 12.5839 20.1982 12.4221 20.1982 12.2468V8.21535C20.1982 8.02442 20.3059 7.84999 20.4772 7.76435L24.5087 5.74899C24.665 5.6712 24.8505 5.67828 24.999 5.77099C25.1475 5.86292 25.2378 6.02478 25.2378 6.19999V10.2315C25.2378 10.4224 25.1302 10.5968 24.9589 10.6825L20.9274 12.6978C20.8559 12.734 20.7789 12.7513 20.7019 12.7513ZM21.2055 8.52806V11.4328L24.229 9.92113V7.01635L21.2055 8.52806Z" fill="white"/>
<path d="M20.7029 8.72052C20.6259 8.72052 20.5481 8.70323 20.4774 8.66788L16.4459 6.65252C16.2754 6.56688 16.167 6.39245 16.167 6.20152C16.167 6.01059 16.2746 5.83616 16.4459 5.75052L20.4774 3.73516C20.6188 3.66445 20.7862 3.66445 20.9284 3.73516L24.9599 5.75052C25.1304 5.83616 25.2389 6.01059 25.2389 6.20152C25.2389 6.39245 25.1312 6.56688 24.9599 6.65252L20.9284 8.66788C20.8569 8.70245 20.7799 8.72052 20.7029 8.72052ZM17.7981 6.20074L20.7029 7.65274L23.6077 6.20074L20.7029 4.74874L17.7981 6.20074Z" fill="white"/>
<path d="M16.6697 18.7989C16.5927 18.7989 16.5157 18.7816 16.4442 18.7462L12.4127 16.7309C12.2422 16.6452 12.1338 16.4708 12.1338 16.2799V12.2484C12.1338 12.0731 12.2241 11.9121 12.3726 11.8194C12.5211 11.7266 12.7066 11.7196 12.8629 11.7974L16.8944 13.8127C17.0649 13.8984 17.1734 14.0728 17.1734 14.2637V18.2952C17.1734 18.4704 17.083 18.6315 16.9345 18.7242C16.8536 18.7737 16.7616 18.7989 16.6697 18.7989ZM13.1426 15.9679L16.1661 17.4796V14.5749L13.1426 13.0631V15.9679Z" fill="white"/>
<path d="M16.6711 18.7989C16.5792 18.7989 16.4873 18.7737 16.4063 18.7235C16.2578 18.6315 16.1675 18.4697 16.1675 18.2945V14.263C16.1675 14.072 16.2751 13.8976 16.4464 13.812L20.4779 11.7966C20.6343 11.7188 20.8197 11.7259 20.9682 11.8186C21.1167 11.9105 21.2071 12.0724 21.2071 12.2476V16.2791C21.2071 16.47 21.0994 16.6445 20.9281 16.7301L16.8966 18.7455C16.8259 18.7808 16.7481 18.7989 16.6711 18.7989ZM17.1756 14.5749V17.4797L20.199 15.968V13.0632L17.1756 14.5749Z" fill="white"/>
<mask id="mask0" mask-type="alpha" maskUnits="userSpaceOnUse" x="0" y="0" width="26" height="26">
<rect x="0.428223" y="0.428528" width="25.1429" height="25.1429" fill="white"/>
</mask>
<g mask="url(#mask0)">
<path d="M5.73961 20.6878C10.9869 25.749 18.5938 26.5586 22.6831 22.3189C24.8517 20.0706 25.5644 16.8727 24.9736 13.6232C24.9162 13.3072 24.6537 13.0769 24.342 13.0461C23.8509 12.9976 23.4721 13.4392 23.5464 13.9063C23.9872 16.6783 23.3375 19.3387 21.5329 21.2096C18.039 24.832 11.3855 24.2335 6.68839 19.703C1.9913 15.1725 1.15306 8.54498 4.647 4.92256C6.87766 2.60988 10.3819 2.01581 13.8633 3.06971C14.2696 3.19272 14.7109 2.9425 14.7858 2.50961C14.8444 2.17143 14.6507 1.83317 14.316 1.72561C10.309 0.438068 6.15408 1.05933 3.49739 3.81372C-0.591893 8.05337 0.492331 15.6266 5.73961 20.6878Z" fill="white" stroke="white" stroke-width="0.5"/>
</g>
</svg>
