<svg width="26" height="23" viewBox="0 0 26 23" fill="none" xmlns="http://www.w3.org/2000/svg">
<path d="M6.70216 13.4025C6.58837 13.4025 6.47457 13.377 6.36891 13.3247L0.412208 10.3464C0.160238 10.2198 0 9.96202 0 9.67986V3.722C0 3.46306 0.133532 3.22502 0.35299 3.08801C0.572447 2.95099 0.847639 2.94054 1.07755 3.0555L7.03541 6.03385C7.28738 6.16041 7.44762 6.41819 7.44762 6.70035V12.6582C7.44762 12.9171 7.31409 13.1552 7.09463 13.2922C6.97503 13.3653 6.83801 13.4025 6.70216 13.4025ZM1.48976 9.21888L5.95786 11.4529V7.16016L1.48976 4.92611V9.21888Z" fill="white"/>
<path d="M6.70133 13.4027C6.56547 13.4027 6.42962 13.3655 6.31002 13.2912C6.09056 13.1553 5.95703 12.9161 5.95703 12.6572V6.69934C5.95703 6.41718 6.11611 6.1594 6.36924 6.03284L12.3271 3.05449C12.5582 2.93954 12.8322 2.94999 13.0517 3.087C13.2711 3.22286 13.4046 3.46205 13.4046 3.72099V9.67885C13.4046 9.96101 13.2456 10.2188 12.9924 10.3454L7.03458 13.3237C6.93008 13.3771 6.81628 13.4027 6.70133 13.4027ZM7.44679 7.16148V11.4542L11.9149 9.2202V4.92743L7.44679 7.16148Z" fill="white"/>
<path d="M18.6173 13.4027C18.4815 13.4027 18.3456 13.3655 18.226 13.2912C18.0066 13.1553 17.873 12.9161 17.873 12.6572V6.69934C17.873 6.41718 18.0321 6.1594 18.2853 6.03284L24.2431 3.05449C24.4742 2.93954 24.7482 2.94999 24.9677 3.087C25.1871 3.22286 25.3207 3.46205 25.3207 3.72099V9.67885C25.3207 9.96101 25.1616 10.2188 24.9085 10.3454L18.9506 13.3237C18.8449 13.3771 18.7311 13.4027 18.6173 13.4027ZM19.3616 7.16148V11.4542L23.8297 9.2202V4.92743L19.3616 7.16148Z" fill="white"/>
<path d="M18.6203 7.44587C18.5065 7.44587 18.3916 7.42033 18.2871 7.36808L12.3292 4.38973C12.0772 4.26316 11.917 4.00539 11.917 3.72323C11.917 3.44107 12.0761 3.18329 12.3292 3.05673L18.2871 0.0783776C18.4961 -0.0261259 18.7434 -0.0261259 18.9536 0.0783776L24.9114 3.05673C25.1634 3.18329 25.3236 3.44107 25.3236 3.72323C25.3236 4.00539 25.1646 4.26316 24.9114 4.38973L18.9536 7.36808C18.8479 7.41917 18.7341 7.44587 18.6203 7.44587ZM14.3275 3.72207L18.6203 5.86787L22.9131 3.72207L18.6203 1.57626L14.3275 3.72207Z" fill="white"/>
<path d="M12.6584 22.34C12.5446 22.34 12.4308 22.3144 12.3251 22.2622L6.36729 19.2838C6.11532 19.1573 5.95508 18.8995 5.95508 18.6173V12.6595C5.95508 12.4005 6.08861 12.1625 6.30807 12.0255C6.52753 11.8885 6.80156 11.878 7.03263 11.993L12.9905 14.9713C13.2425 15.0979 13.4027 15.3557 13.4027 15.6378V21.5957C13.4027 21.8546 13.2692 22.0927 13.0497 22.2297C12.9301 22.3028 12.7943 22.34 12.6584 22.34ZM7.446 18.1564L11.9141 20.3904V16.0976L7.446 13.8636V18.1564Z" fill="white"/>
<path d="M12.6618 22.34C12.5259 22.34 12.3901 22.3028 12.2705 22.2285C12.051 22.0926 11.9175 21.8534 11.9175 21.5945V15.6366C11.9175 15.3545 12.0766 15.0967 12.3297 14.9701L18.2876 11.9918C18.5186 11.8768 18.7926 11.8873 19.0121 12.0243C19.2316 12.1602 19.3651 12.3994 19.3651 12.6583V18.6162C19.3651 18.8983 19.206 19.1561 18.9529 19.2827L12.995 22.261C12.8905 22.3133 12.7756 22.34 12.6618 22.34ZM13.4072 16.0976V20.3904L17.8753 18.1563V13.8636L13.4072 16.0976Z" fill="white"/>
</svg>
