<svg width="25" height="25" viewBox="0 0 25 25" fill="none" xmlns="http://www.w3.org/2000/svg">
<path fill-rule="evenodd" clip-rule="evenodd" d="M0 12.5C0 5.59644 5.59644 0 12.5 0C19.4036 0 25 5.59644 25 12.5C25 19.4036 19.4036 25 12.5 25C5.59644 25 0 19.4036 0 12.5Z" fill="#00C351"/>
<path d="M8.11538 13.4C8.03846 13.32 8 13.2 8 13.12C8 13.04 8.03846 12.92 8.11538 12.84L8.65385 12.28C8.80769 12.12 9.03846 12.12 9.19231 12.28L9.23077 12.32L11.3462 14.68C11.4231 14.76 11.5385 14.76 11.6154 14.68L16.7692 9.12H16.8077V9.12C16.9615 8.96 17.1923 8.96 17.3462 9.12L17.8846 9.68C18.0385 9.84 18.0385 10.08 17.8846 10.24V10.24L11.7308 16.88C11.6538 16.96 11.5769 17 11.4615 17C11.3462 17 11.2692 16.96 11.1923 16.88L8.19231 13.52L8.11538 13.4Z" fill="white"/>
</svg>
