<svg width="24" height="24" viewBox="0 0 24 24" fill="none" xmlns="http://www.w3.org/2000/svg">
<g clip-path="url(#clip0)">
<path d="M20.8482 13.2663C20.8482 12.9045 20.9688 12.5427 20.9688 12.0603C20.9688 11.5779 20.9688 11.2161 20.8482 10.8543L23.3809 8.80402C23.6221 8.56281 23.6221 8.32161 23.5015 8.0804L21.0894 3.8593C20.9688 3.73869 20.7277 3.61809 20.3658 3.73869L17.3507 4.94472C16.7477 4.46231 16.0241 4.1005 15.3005 3.73869L14.8181 0.603015C14.9387 0.241206 14.5768 0 14.3356 0H9.51153C9.27028 0 8.90851 0.241206 8.90851 0.482412L8.4261 3.73869C7.70248 3.9799 7.09947 4.46231 6.37585 4.94472L3.48138 3.73869C3.11957 3.61809 2.87836 3.73869 2.63711 3.9799L0.225048 8.201C0.104444 8.32161 0.225048 8.68342 0.466254 8.92462L2.99892 10.8543C2.99892 11.2161 2.87831 11.5779 2.87831 12.0603C2.87831 12.5427 2.87831 12.9045 2.99892 13.2663L0.466254 15.3166C0.225048 15.5578 0.225048 15.799 0.345651 16.0402L2.75771 20.2614C2.87831 20.382 3.11947 20.5026 3.48133 20.382L6.4964 19.1759C7.09942 19.6583 7.82304 20.0201 8.54666 20.382L9.02907 23.5176C9.02907 23.7588 9.27028 24 9.63208 24H14.4562C14.6975 24 15.0592 23.7588 15.0592 23.5176L15.5416 20.382C16.2653 20.0201 16.9889 19.6583 17.5919 19.1759L20.607 20.382C20.8482 20.5026 21.21 20.382 21.3306 20.1407L23.7427 15.9196C23.8633 15.6784 23.8633 15.3166 23.622 15.196L20.8482 13.2663ZM11.9236 16.2814C9.63213 16.2814 7.70248 14.3518 7.70248 12.0603C7.70248 9.76884 9.63213 7.8392 11.9236 7.8392C14.215 7.8392 16.1447 9.76884 16.1447 12.0603C16.1447 14.3518 14.215 16.2814 11.9236 16.2814Z" fill="white"/>
</g>
<defs>
<clipPath id="clip0">
<rect width="24" height="24" fill="white"/>
</clipPath>
</defs>
</svg>
